<svg width="200" height="18" viewBox="0 0 200 18" fill="none" xmlns="http://www.w3.org/2000/svg">
<rect width="200" height="18" fill="#292A31"/>
<path d="M7.5 5C7.22 5 7 4.78 7 4.5C7 4.22 7.22 4 7.5 4C7.78 4 8 4.22 8 4.5C8 4.78 7.78 5 7.5 5ZM11.5 5C11.22 5 11 4.78 11 4.5C11 4.22 11.22 4 11.5 4C11.78 4 12 4.22 12 4.5C12 4.78 11.78 5 11.5 5ZM7.5 6C7.22 6 7 5.78 7 5.5C7 5.22 7.22 5 7.5 5C7.78 5 8 5.22 8 5.5C8 5.78 7.78 6 7.5 6ZM11.5 6C11.22 6 11 5.78 11 5.5C11 5.22 11.22 5 11.5 5C11.78 5 12 5.22 12 5.5C12 5.78 11.78 6 11.5 6ZM6.5 7C6.22 7 6 6.78 6 6.5C6 6.22 6.22 6 6.5 6C6.78 6 7 6.22 7 6.5C7 6.78 6.78 7 6.5 7ZM7.5 7C7.22 7 7 6.78 7 6.5C7 6.22 7.22 6 7.5 6C7.78 6 8 6.22 8 6.5C8 6.78 7.78 7 7.5 7ZM8.5 7C8.22 7 8 6.78 8 6.5C8 6.22 8.22 6 8.5 6C8.78 6 9 6.22 9 6.5C9 6.78 8.78 7 8.5 7ZM9.5 7C9.22 7 9 6.78 9 6.5C9 6.22 9.22 6 9.5 6C9.78 6 10 6.22 10 6.5C10 6.78 9.78 7 9.5 7ZM12.5 7C12.22 7 12 6.78 12 6.5C12 6.22 12.22 6 12.5 6C12.78 6 13 6.22 13 6.5C13 6.78 12.78 7 12.5 7ZM10.5 7C10.22 7 10 6.78 10 6.5C10 6.22 10.22 6 10.5 6C10.78 6 11 6.22 11 6.5C11 6.78 10.78 7 10.5 7ZM11.5 7C11.22 7 11 6.78 11 6.5C11 6.22 11.22 6 11.5 6C11.78 6 12 6.22 12 6.5C12 6.78 11.78 7 11.5 7ZM7.5 8C7.22 8 7 7.78 7 7.5C7 7.22 7.22 7 7.5 7C7.78 7 8 7.22 8 7.5C8 7.78 7.78 8 7.5 8ZM8.5 8C8.22 8 8 7.78 8 7.5C8 7.22 8.22 7 8.5 7C8.78 7 9 7.22 9 7.5C9 7.78 8.78 8 8.5 8ZM12.5 8C12.22 8 12 7.78 12 7.5C12 7.22 12.22 7 12.5 7C12.78 7 13 7.22 13 7.5C13 7.78 12.78 8 12.5 8ZM9.5 8C9.22 8 9 7.78 9 7.5C9 7.22 9.22 7 9.5 7C9.78 7 10 7.22 10 7.5C10 7.78 9.78 8 9.5 8ZM10.5 8C10.22 8 10 7.78 10 7.5C10 7.22 10.22 7 10.5 7C10.78 7 11 7.22 11 7.5C11 7.78 10.78 8 10.5 8ZM11.5 8C11.22 8 11 7.78 11 7.5C11 7.22 11.22 7 11.5 7C11.78 7 12 7.22 12 7.5C12 7.78 11.78 8 11.5 8ZM6.5 8C6.22 8 6 7.78 6 7.5C6 7.22 6.22 7 6.5 7C6.78 7 7 7.22 7 7.5C7 7.78 6.78 8 6.5 8ZM7.5 9C7.22 9 7 8.78 7 8.5C7 8.22 7.22 8 7.5 8C7.78 8 8 8.22 8 8.5C8 8.78 7.78 9 7.5 9ZM10.5 9C10.22 9 10 8.78 10 8.5C10 8.22 10.22 8 10.5 8C10.78 8 11 8.22 11 8.5C11 8.78 10.78 9 10.5 9ZM7.5 10C7.22 10 7 9.78 7 9.5C7 9.22 7.22 9 7.5 9C7.78 9 8 9.22 8 9.5C8 9.78 7.78 10 7.5 10ZM10.5 10C10.22 10 10 9.78 10 9.5C10 9.22 10.22 9 10.5 9C10.78 9 11 9.22 11 9.5C11 9.78 10.78 10 10.5 10ZM7.5 11C7.22 11 7 10.78 7 10.5C7 10.22 7.22 10 7.5 10C7.78 10 8 10.22 8 10.5C8 10.78 7.78 11 7.5 11ZM5.5 11C5.22 11 5 10.78 5 10.5C5 10.22 5.22 10 5.5 10C5.78 10 6 10.22 6 10.5C6 10.78 5.78 11 5.5 11ZM9.5 11C9.22 11 9 10.78 9 10.5C9 10.22 9.22 10 9.5 10C9.78 10 10 10.22 10 10.5C10 10.78 9.78 11 9.5 11ZM6.5 11C6.22 11 6 10.78 6 10.5C6 10.22 6.22 10 6.5 10C6.78 10 7 10.22 7 10.5C7 10.78 6.78 11 6.5 11ZM8.5 11C8.22 11 8 10.78 8 10.5C8 10.22 8.22 10 8.5 10C8.78 10 9 10.22 9 10.5C9 10.78 8.78 11 8.5 11ZM10.5 11C10.22 11 10 10.78 10 10.5C10 10.22 10.22 10 10.5 10C10.78 10 11 10.22 11 10.5C11 10.78 10.78 11 10.5 11ZM11.5 11C11.22 11 11 10.78 11 10.5C11 10.22 11.22 10 11.5 10C11.78 10 12 10.22 12 10.5C12 10.78 11.78 11 11.5 11ZM11.5 12C11.22 12 11 11.78 11 11.5C11 11.22 11.22 11 11.5 11C11.78 11 12 11.22 12 11.5C12 11.78 11.78 12 11.5 12ZM10.5 12C10.22 12 10 11.78 10 11.5C10 11.22 10.22 11 10.5 11C10.78 11 11 11.22 11 11.5C11 11.78 10.78 12 10.5 12ZM7.5 12C7.22 12 7 11.78 7 11.5C7 11.22 7.22 11 7.5 11C7.78 11 8 11.22 8 11.5C8 11.78 7.78 12 7.5 12ZM8.5 12C8.22 12 8 11.78 8 11.5C8 11.22 8.22 11 8.5 11C8.78 11 9 11.22 9 11.5C9 11.78 8.78 12 8.5 12ZM6.5 12C6.22 12 6 11.78 6 11.5C6 11.22 6.22 11 6.5 11C6.78 11 7 11.22 7 11.5C7 11.78 6.78 12 6.5 12ZM9.5 12C9.22 12 9 11.78 9 11.5C9 11.22 9.22 11 9.5 11C9.78 11 10 11.22 10 11.5C10 11.78 9.78 12 9.5 12ZM5.5 12C5.22 12 5 11.78 5 11.5C5 11.22 5.22 11 5.5 11C5.78 11 6 11.22 6 11.5C6 11.78 5.78 12 5.5 12ZM10.5 13C10.22 13 10 12.78 10 12.5C10 12.22 10.22 12 10.5 12C10.78 12 11 12.22 11 12.5C11 12.78 10.78 13 10.5 13ZM6.5 13C6.22 13 6 12.78 6 12.5C6 12.22 6.22 12 6.5 12C6.78 12 7 12.22 7 12.5C7 12.78 6.78 13 6.5 13ZM10.5 14C10.22 14 10 13.78 10 13.5C10 13.22 10.22 13 10.5 13C10.78 13 11 13.22 11 13.5C11 13.78 10.78 14 10.5 14ZM6.5 14C6.22 14 6 13.78 6 13.5C6 13.22 6.22 13 6.5 13C6.78 13 7 13.22 7 13.5C7 13.78 6.78 14 6.5 14Z" fill="#FF7878"/>
<path d="M21.5 5C21.22 5 21 4.78 21 4.5C21 4.22 21.22 4 21.5 4C21.78 4 22 4.22 22 4.5C22 4.78 21.78 5 21.5 5ZM20.5 5C20.22 5 20 4.78 20 4.5C20 4.22 20.22 4 20.5 4C20.78 4 21 4.22 21 4.5C21 4.78 20.78 5 20.5 5ZM15.5 5C15.22 5 15 4.78 15 4.5C15 4.22 15.22 4 15.5 4C15.78 4 16 4.22 16 4.5C16 4.78 15.78 5 15.5 5ZM14.5 5C14.22 5 14 4.78 14 4.5C14 4.22 14.22 4 14.5 4C14.78 4 15 4.22 15 4.5C15 4.78 14.78 5 14.5 5ZM20.5 6C20.22 6 20 5.78 20 5.5C20 5.22 20.22 5 20.5 5C20.78 5 21 5.22 21 5.5C21 5.78 20.78 6 20.5 6ZM15.5 6C15.22 6 15 5.78 15 5.5C15 5.22 15.22 5 15.5 5C15.78 5 16 5.22 16 5.5C16 5.78 15.78 6 15.5 6ZM14.5 6C14.22 6 14 5.78 14 5.5C14 5.22 14.22 5 14.5 5C14.78 5 15 5.22 15 5.5C15 5.78 14.78 6 14.5 6ZM21.5 6C21.22 6 21 5.78 21 5.5C21 5.22 21.22 5 21.5 5C21.78 5 22 5.22 22 5.5C22 5.78 21.78 6 21.5 6ZM21.5 7C21.22 7 21 6.78 21 6.5C21 6.22 21.22 6 21.5 6C21.78 6 22 6.22 22 6.5C22 6.78 21.78 7 21.5 7ZM15.5 7C15.22 7 15 6.78 15 6.5C15 6.22 15.22 6 15.5 6C15.78 6 16 6.22 16 6.5C16 6.78 15.78 7 15.5 7ZM14.5 7C14.22 7 14 6.78 14 6.5C14 6.22 14.22 6 14.5 6C14.78 6 15 6.22 15 6.5C15 6.78 14.78 7 14.5 7ZM20.5 7C20.22 7 20 6.78 20 6.5C20 6.22 20.22 6 20.5 6C20.78 6 21 6.22 21 6.5C21 6.78 20.78 7 20.5 7ZM15.5 8C15.22 8 15 7.78 15 7.5C15 7.22 15.22 7 15.5 7C15.78 7 16 7.22 16 7.5C16 7.78 15.78 8 15.5 8ZM14.5 8C14.22 8 14 7.78 14 7.5C14 7.22 14.22 7 14.5 7C14.78 7 15 7.22 15 7.5C15 7.78 14.78 8 14.5 8ZM20.5 8C20.22 8 20 7.78 20 7.5C20 7.22 20.22 7 20.5 7C20.78 7 21 7.22 21 7.5C21 7.78 20.78 8 20.5 8ZM21.5 8C21.22 8 21 7.78 21 7.5C21 7.22 21.22 7 21.5 7C21.78 7 22 7.22 22 7.5C22 7.78 21.78 8 21.5 8ZM15.5 9C15.22 9 15 8.78 15 8.5C15 8.22 15.22 8 15.5 8C15.78 8 16 8.22 16 8.5C16 8.78 15.78 9 15.5 9ZM14.5 9C14.22 9 14 8.78 14 8.5C14 8.22 14.22 8 14.5 8C14.78 8 15 8.22 15 8.5C15 8.78 14.78 9 14.5 9ZM20.5 9C20.22 9 20 8.78 20 8.5C20 8.22 20.22 8 20.5 8C20.78 8 21 8.22 21 8.5C21 8.78 20.78 9 20.5 9ZM21.5 9C21.22 9 21 8.78 21 8.5C21 8.22 21.22 8 21.5 8C21.78 8 22 8.22 22 8.5C22 8.78 21.78 9 21.5 9ZM15.5 10C15.22 10 15 9.78 15 9.5C15 9.22 15.22 9 15.5 9C15.78 9 16 9.22 16 9.5C16 9.78 15.78 10 15.5 10ZM14.5 10C14.22 10 14 9.78 14 9.5C14 9.22 14.22 9 14.5 9C14.78 9 15 9.22 15 9.5C15 9.78 14.78 10 14.5 10ZM20.5 10C20.22 10 20 9.78 20 9.5C20 9.22 20.22 9 20.5 9C20.78 9 21 9.22 21 9.5C21 9.78 20.78 10 20.5 10ZM21.5 10C21.22 10 21 9.78 21 9.5C21 9.22 21.22 9 21.5 9C21.78 9 22 9.22 22 9.5C22 9.78 21.78 10 21.5 10ZM15.5 11C15.22 11 15 10.78 15 10.5C15 10.22 15.22 10 15.5 10C15.78 10 16 10.22 16 10.5C16 10.78 15.78 11 15.5 11ZM20.5 11C20.22 11 20 10.78 20 10.5C20 10.22 20.22 10 20.5 10C20.78 10 21 10.22 21 10.5C21 10.78 20.78 11 20.5 11ZM14.5 11C14.22 11 14 10.78 14 10.5C14 10.22 14.22 10 14.5 10C14.78 10 15 10.22 15 10.5C15 10.78 14.78 11 14.5 11ZM21.5 11C21.22 11 21 10.78 21 10.5C21 10.22 21.22 10 21.5 10C21.78 10 22 10.22 22 10.5C22 10.78 21.78 11 21.5 11ZM15.5 12C15.22 12 15 11.78 15 11.5C15 11.22 15.22 11 15.5 11C15.78 11 16 11.22 16 11.5C16 11.78 15.78 12 15.5 12ZM20.5 12C20.22 12 20 11.78 20 11.5C20 11.22 20.22 11 20.5 11C20.78 11 21 11.22 21 11.5C21 11.78 20.78 12 20.5 12ZM16.5 12C16.22 12 16 11.78 16 11.5C16 11.22 16.22 11 16.5 11C16.78 11 17 11.22 17 11.5C17 11.78 16.78 12 16.5 12ZM19.5 12C19.22 12 19 11.78 19 11.5C19 11.22 19.22 11 19.5 11C19.78 11 20 11.22 20 11.5C20 11.78 19.78 12 19.5 12ZM14.5 12C14.22 12 14 11.78 14 11.5C14 11.22 14.22 11 14.5 11C14.78 11 15 11.22 15 11.5C15 11.78 14.78 12 14.5 12ZM21.5 12C21.22 12 21 11.78 21 11.5C21 11.22 21.22 11 21.5 11C21.78 11 22 11.22 22 11.5C22 11.78 21.78 12 21.5 12ZM20.5 13C20.22 13 20 12.78 20 12.5C20 12.22 20.22 12 20.5 12C20.78 12 21 12.22 21 12.5C21 12.78 20.78 13 20.5 13ZM15.5 13C15.22 13 15 12.78 15 12.5C15 12.22 15.22 12 15.5 12C15.78 12 16 12.22 16 12.5C16 12.78 15.78 13 15.5 13ZM19.5 13C19.22 13 19 12.78 19 12.5C19 12.22 19.22 12 19.5 12C19.78 12 20 12.22 20 12.5C20 12.78 19.78 13 19.5 13ZM18.5 13C18.22 13 18 12.78 18 12.5C18 12.22 18.22 12 18.5 12C18.78 12 19 12.22 19 12.5C19 12.78 18.78 13 18.5 13ZM17.5 13C17.22 13 17 12.78 17 12.5C17 12.22 17.22 12 17.5 12C17.78 12 18 12.22 18 12.5C18 12.78 17.78 13 17.5 13ZM16.5 13C16.22 13 16 12.78 16 12.5C16 12.22 16.22 12 16.5 12C16.78 12 17 12.22 17 12.5C17 12.78 16.78 13 16.5 13ZM16.5 14C16.22 14 16 13.78 16 13.5C16 13.22 16.22 13 16.5 13C16.78 13 17 13.22 17 13.5C17 13.78 16.78 14 16.5 14ZM17.5 14C17.22 14 17 13.78 17 13.5C17 13.22 17.22 13 17.5 13C17.78 13 18 13.22 18 13.5C18 13.78 17.78 14 17.5 14ZM18.5 14C18.22 14 18 13.78 18 13.5C18 13.22 18.22 13 18.5 13C18.78 13 19 13.22 19 13.5C19 13.78 18.78 14 18.5 14ZM19.5 14C19.22 14 19 13.78 19 13.5C19 13.22 19.22 13 19.5 13C19.78 13 20 13.22 20 13.5C20 13.78 19.78 14 19.5 14Z" fill="#FF7878"/>
<path d="M24.5 5C24.22 5 24 4.78 24 4.5C24 4.22 24.22 4 24.5 4C24.78 4 25 4.22 25 4.5C25 4.78 24.78 5 24.5 5ZM23.5 5C23.22 5 23 4.78 23 4.5C23 4.22 23.22 4 23.5 4C23.78 4 24 4.22 24 4.5C24 4.78 23.78 5 23.5 5ZM30.5 5C30.22 5 30 4.78 30 4.5C30 4.22 30.22 4 30.5 4C30.78 4 31 4.22 31 4.5C31 4.78 30.78 5 30.5 5ZM31.5 5C31.22 5 31 4.78 31 4.5C31 4.22 31.22 4 31.5 4C31.78 4 32 4.22 32 4.5C32 4.78 31.78 5 31.5 5ZM31.5 6C31.22 6 31 5.78 31 5.5C31 5.22 31.22 5 31.5 5C31.78 5 32 5.22 32 5.5C32 5.78 31.78 6 31.5 6ZM29.5 6C29.22 6 29 5.78 29 5.5C29 5.22 29.22 5 29.5 5C29.78 5 30 5.22 30 5.5C30 5.78 29.78 6 29.5 6ZM25.5 6C25.22 6 25 5.78 25 5.5C25 5.22 25.22 5 25.5 5C25.78 5 26 5.22 26 5.5C26 5.78 25.78 6 25.5 6ZM24.5 6C24.22 6 24 5.78 24 5.5C24 5.22 24.22 5 24.5 5C24.78 5 25 5.22 25 5.5C25 5.78 24.78 6 24.5 6ZM23.5 6C23.22 6 23 5.78 23 5.5C23 5.22 23.22 5 23.5 5C23.78 5 24 5.22 24 5.5C24 5.78 23.78 6 23.5 6ZM30.5 6C30.22 6 30 5.78 30 5.5C30 5.22 30.22 5 30.5 5C30.78 5 31 5.22 31 5.5C31 5.78 30.78 6 30.5 6ZM25.5 7C25.22 7 25 6.78 25 6.5C25 6.22 25.22 6 25.5 6C25.78 6 26 6.22 26 6.5C26 6.78 25.78 7 25.5 7ZM29.5 7C29.22 7 29 6.78 29 6.5C29 6.22 29.22 6 29.5 6C29.78 6 30 6.22 30 6.5C30 6.78 29.78 7 29.5 7ZM24.5 7C24.22 7 24 6.78 24 6.5C24 6.22 24.22 6 24.5 6C24.78 6 25 6.22 25 6.5C25 6.78 24.78 7 24.5 7ZM30.5 7C30.22 7 30 6.78 30 6.5C30 6.22 30.22 6 30.5 6C30.78 6 31 6.22 31 6.5C31 6.78 30.78 7 30.5 7ZM28.5 8C28.22 8 28 7.78 28 7.5C28 7.22 28.22 7 28.5 7C28.78 7 29 7.22 29 7.5C29 7.78 28.78 8 28.5 8ZM26.5 8C26.22 8 26 7.78 26 7.5C26 7.22 26.22 7 26.5 7C26.78 7 27 7.22 27 7.5C27 7.78 26.78 8 26.5 8ZM25.5 8C25.22 8 25 7.78 25 7.5C25 7.22 25.22 7 25.5 7C25.78 7 26 7.22 26 7.5C26 7.78 25.78 8 25.5 8ZM29.5 8C29.22 8 29 7.78 29 7.5C29 7.22 29.22 7 29.5 7C29.78 7 30 7.22 30 7.5C30 7.78 29.78 8 29.5 8ZM24.5 8C24.22 8 24 7.78 24 7.5C24 7.22 24.22 7 24.5 7C24.78 7 25 7.22 25 7.5C25 7.78 24.78 8 24.5 8ZM30.5 8C30.22 8 30 7.78 30 7.5C30 7.22 30.22 7 30.5 7C30.78 7 31 7.22 31 7.5C31 7.78 30.78 8 30.5 8ZM27.5 9C27.22 9 27 8.78 27 8.5C27 8.22 27.22 8 27.5 8C27.78 8 28 8.22 28 8.5C28 8.78 27.78 9 27.5 9ZM26.5 9C26.22 9 26 8.78 26 8.5C26 8.22 26.22 8 26.5 8C26.78 8 27 8.22 27 8.5C27 8.78 26.78 9 26.5 9ZM28.5 9C28.22 9 28 8.78 28 8.5C28 8.22 28.22 8 28.5 8C28.78 8 29 8.22 29 8.5C29 8.78 28.78 9 28.5 9ZM29.5 9C29.22 9 29 8.78 29 8.5C29 8.22 29.22 8 29.5 8C29.78 8 30 8.22 30 8.5C30 8.78 29.78 9 29.5 9ZM25.5 9C25.22 9 25 8.78 25 8.5C25 8.22 25.22 8 25.5 8C25.78 8 26 8.22 26 8.5C26 8.78 25.78 9 25.5 9ZM27.5 10C27.22 10 27 9.78 27 9.5C27 9.22 27.22 9 27.5 9C27.78 9 28 9.22 28 9.5C28 9.78 27.78 10 27.5 10ZM29.5 10C29.22 10 29 9.78 29 9.5C29 9.22 29.22 9 29.5 9C29.78 9 30 9.22 30 9.5C30 9.78 29.78 10 29.5 10ZM25.5 10C25.22 10 25 9.78 25 9.5C25 9.22 25.22 9 25.5 9C25.78 9 26 9.22 26 9.5C26 9.78 25.78 10 25.5 10ZM28.5 10C28.22 10 28 9.78 28 9.5C28 9.22 28.22 9 28.5 9C28.78 9 29 9.22 29 9.5C29 9.78 28.78 10 28.5 10ZM26.5 10C26.22 10 26 9.78 26 9.5C26 9.22 26.22 9 26.5 9C26.78 9 27 9.22 27 9.5C27 9.78 26.78 10 26.5 10ZM30.5 11C30.22 11 30 10.78 30 10.5C30 10.22 30.22 10 30.5 10C30.78 10 31 10.22 31 10.5C31 10.78 30.78 11 30.5 11ZM24.5 11C24.22 11 24 10.78 24 10.5C24 10.22 24.22 10 24.5 10C24.78 10 25 10.22 25 10.5C25 10.78 24.78 11 24.5 11ZM29.5 11C29.22 11 29 10.78 29 10.5C29 10.22 29.22 10 29.5 10C29.78 10 30 10.22 30 10.5C30 10.78 29.78 11 29.5 11ZM25.5 11C25.22 11 25 10.78 25 10.5C25 10.22 25.22 10 25.5 10C25.78 10 26 10.22 26 10.5C26 10.78 25.78 11 25.5 11ZM26.5 11C26.22 11 26 10.78 26 10.5C26 10.22 26.22 10 26.5 10C26.78 10 27 10.22 27 10.5C27 10.78 26.78 11 26.5 11ZM28.5 11C28.22 11 28 10.78 28 10.5C28 10.22 28.22 10 28.5 10C28.78 10 29 10.22 29 10.5C29 10.78 28.78 11 28.5 11ZM30.5 12C30.22 12 30 11.78 30 11.5C30 11.22 30.22 11 30.5 11C30.78 11 31 11.22 31 11.5C31 11.78 30.78 12 30.5 12ZM24.5 12C24.22 12 24 11.78 24 11.5C24 11.22 24.22 11 24.5 11C24.78 11 25 11.22 25 11.5C25 11.78 24.78 12 24.5 12ZM29.5 12C29.22 12 29 11.78 29 11.5C29 11.22 29.22 11 29.5 11C29.78 11 30 11.22 30 11.5C30 11.78 29.78 12 29.5 12ZM25.5 12C25.22 12 25 11.78 25 11.5C25 11.22 25.22 11 25.5 11C25.78 11 26 11.22 26 11.5C26 11.78 25.78 12 25.5 12ZM31.5 13C31.22 13 31 12.78 31 12.5C31 12.22 31.22 12 31.5 12C31.78 12 32 12.22 32 12.5C32 12.78 31.78 13 31.5 13ZM23.5 13C23.22 13 23 12.78 23 12.5C23 12.22 23.22 12 23.5 12C23.78 12 24 12.22 24 12.5C24 12.78 23.78 13 23.5 13ZM30.5 13C30.22 13 30 12.78 30 12.5C30 12.22 30.22 12 30.5 12C30.78 12 31 12.22 31 12.5C31 12.78 30.78 13 30.5 13ZM25.5 13C25.22 13 25 12.78 25 12.5C25 12.22 25.22 12 25.5 12C25.78 12 26 12.22 26 12.5C26 12.78 25.78 13 25.5 13ZM29.5 13C29.22 13 29 12.78 29 12.5C29 12.22 29.22 12 29.5 12C29.78 12 30 12.22 30 12.5C30 12.78 29.78 13 29.5 13ZM24.5 13C24.22 13 24 12.78 24 12.5C24 12.22 24.22 12 24.5 12C24.78 12 25 12.22 25 12.5C25 12.78 24.78 13 24.5 13ZM31.5 14C31.22 14 31 13.78 31 13.5C31 13.22 31.22 13 31.5 13C31.78 13 32 13.22 32 13.5C32 13.78 31.78 14 31.5 14ZM23.5 14C23.22 14 23 13.78 23 13.5C23 13.22 23.22 13 23.5 13C23.78 13 24 13.22 24 13.5C24 13.78 23.78 14 23.5 14ZM30.5 14C30.22 14 30 13.78 30 13.5C30 13.22 30.22 13 30.5 13C30.78 13 31 13.22 31 13.5C31 13.78 30.78 14 30.5 14ZM24.5 14C24.22 14 24 13.78 24 13.5C24 13.22 24.22 13 24.5 13C24.78 13 25 13.22 25 13.5C25 13.78 24.78 14 24.5 14Z" fill="#FF7878"/>
<path d="M35.5 5C35.22 5 35 4.78 35 4.5C35 4.22 35.22 4 35.5 4C35.78 4 36 4.22 36 4.5C36 4.78 35.78 5 35.5 5ZM36.5 5C36.22 5 36 4.78 36 4.5C36 4.22 36.22 4 36.5 4C36.78 4 37 4.22 37 4.5C37 4.78 36.78 5 36.5 5ZM34.5 5C34.22 5 34 4.78 34 4.5C34 4.22 34.22 4 34.5 4C34.78 4 35 4.22 35 4.5C35 4.78 34.78 5 34.5 5ZM33.5 5C33.22 5 33 4.78 33 4.5C33 4.22 33.22 4 33.5 4C33.78 4 34 4.22 34 4.5C34 4.78 33.78 5 33.5 5ZM37.5 5C37.22 5 37 4.78 37 4.5C37 4.22 37.22 4 37.5 4C37.78 4 38 4.22 38 4.5C38 4.78 37.78 5 37.5 5ZM36.5 6C36.22 6 36 5.78 36 5.5C36 5.22 36.22 5 36.5 5C36.78 5 37 5.22 37 5.5C37 5.78 36.78 6 36.5 6ZM39.5 6C39.22 6 39 5.78 39 5.5C39 5.22 39.22 5 39.5 5C39.78 5 40 5.22 40 5.5C40 5.78 39.78 6 39.5 6ZM34.5 6C34.22 6 34 5.78 34 5.5C34 5.22 34.22 5 34.5 5C34.78 5 35 5.22 35 5.5C35 5.78 34.78 6 34.5 6ZM37.5 6C37.22 6 37 5.78 37 5.5C37 5.22 37.22 5 37.5 5C37.78 5 38 5.22 38 5.5C38 5.78 37.78 6 37.5 6ZM38.5 6C38.22 6 38 5.78 38 5.5C38 5.22 38.22 5 38.5 5C38.78 5 39 5.22 39 5.5C39 5.78 38.78 6 38.5 6ZM33.5 6C33.22 6 33 5.78 33 5.5C33 5.22 33.22 5 33.5 5C33.78 5 34 5.22 34 5.5C34 5.78 33.78 6 33.5 6ZM35.5 6C35.22 6 35 5.78 35 5.5C35 5.22 35.22 5 35.5 5C35.78 5 36 5.22 36 5.5C36 5.78 35.78 6 35.5 6ZM34.5 7C34.22 7 34 6.78 34 6.5C34 6.22 34.22 6 34.5 6C34.78 6 35 6.22 35 6.5C35 6.78 34.78 7 34.5 7ZM39.5 7C39.22 7 39 6.78 39 6.5C39 6.22 39.22 6 39.5 6C39.78 6 40 6.22 40 6.5C40 6.78 39.78 7 39.5 7ZM33.5 7C33.22 7 33 6.78 33 6.5C33 6.22 33.22 6 33.5 6C33.78 6 34 6.22 34 6.5C34 6.78 33.78 7 33.5 7ZM38.5 7C38.22 7 38 6.78 38 6.5C38 6.22 38.22 6 38.5 6C38.78 6 39 6.22 39 6.5C39 6.78 38.78 7 38.5 7ZM40.5 7C40.22 7 40 6.78 40 6.5C40 6.22 40.22 6 40.5 6C40.78 6 41 6.22 41 6.5C41 6.78 40.78 7 40.5 7ZM39.5 8C39.22 8 39 7.78 39 7.5C39 7.22 39.22 7 39.5 7C39.78 7 40 7.22 40 7.5C40 7.78 39.78 8 39.5 8ZM40.5 8C40.22 8 40 7.78 40 7.5C40 7.22 40.22 7 40.5 7C40.78 7 41 7.22 41 7.5C41 7.78 40.78 8 40.5 8ZM34.5 8C34.22 8 34 7.78 34 7.5C34 7.22 34.22 7 34.5 7C34.78 7 35 7.22 35 7.5C35 7.78 34.78 8 34.5 8ZM33.5 8C33.22 8 33 7.78 33 7.5C33 7.22 33.22 7 33.5 7C33.78 7 34 7.22 34 7.5C34 7.78 33.78 8 33.5 8ZM33.5 9C33.22 9 33 8.78 33 8.5C33 8.22 33.22 8 33.5 8C33.78 8 34 8.22 34 8.5C34 8.78 33.78 9 33.5 9ZM34.5 9C34.22 9 34 8.78 34 8.5C34 8.22 34.22 8 34.5 8C34.78 8 35 8.22 35 8.5C35 8.78 34.78 9 34.5 9ZM39.5 9C39.22 9 39 8.78 39 8.5C39 8.22 39.22 8 39.5 8C39.78 8 40 8.22 40 8.5C40 8.78 39.78 9 39.5 9ZM40.5 9C40.22 9 40 8.78 40 8.5C40 8.22 40.22 8 40.5 8C40.78 8 41 8.22 41 8.5C41 8.78 40.78 9 40.5 9ZM33.5 10C33.22 10 33 9.78 33 9.5C33 9.22 33.22 9 33.5 9C33.78 9 34 9.22 34 9.5C34 9.78 33.78 10 33.5 10ZM39.5 10C39.22 10 39 9.78 39 9.5C39 9.22 39.22 9 39.5 9C39.78 9 40 9.22 40 9.5C40 9.78 39.78 10 39.5 10ZM34.5 10C34.22 10 34 9.78 34 9.5C34 9.22 34.22 9 34.5 9C34.78 9 35 9.22 35 9.5C35 9.78 34.78 10 34.5 10ZM40.5 10C40.22 10 40 9.78 40 9.5C40 9.22 40.22 9 40.5 9C40.78 9 41 9.22 41 9.5C41 9.78 40.78 10 40.5 10ZM40.5 11C40.22 11 40 10.78 40 10.5C40 10.22 40.22 10 40.5 10C40.78 10 41 10.22 41 10.5C41 10.78 40.78 11 40.5 11ZM39.5 11C39.22 11 39 10.78 39 10.5C39 10.22 39.22 10 39.5 10C39.78 10 40 10.22 40 10.5C40 10.78 39.78 11 39.5 11ZM34.5 11C34.22 11 34 10.78 34 10.5C34 10.22 34.22 10 34.5 10C34.78 10 35 10.22 35 10.5C35 10.78 34.78 11 34.5 11ZM33.5 11C33.22 11 33 10.78 33 10.5C33 10.22 33.22 10 33.5 10C33.78 10 34 10.22 34 10.5C34 10.78 33.78 11 33.5 11ZM38.5 12C38.22 12 38 11.78 38 11.5C38 11.22 38.22 11 38.5 11C38.78 11 39 11.22 39 11.5C39 11.78 38.78 12 38.5 12ZM34.5 12C34.22 12 34 11.78 34 11.5C34 11.22 34.22 11 34.5 11C34.78 11 35 11.22 35 11.5C35 11.78 34.78 12 34.5 12ZM39.5 12C39.22 12 39 11.78 39 11.5C39 11.22 39.22 11 39.5 11C39.78 11 40 11.22 40 11.5C40 11.78 39.78 12 39.5 12ZM33.5 12C33.22 12 33 11.78 33 11.5C33 11.22 33.22 11 33.5 11C33.78 11 34 11.22 34 11.5C34 11.78 33.78 12 33.5 12ZM40.5 12C40.22 12 40 11.78 40 11.5C40 11.22 40.22 11 40.5 11C40.78 11 41 11.22 41 11.5C41 11.78 40.78 12 40.5 12ZM33.5 13C33.22 13 33 12.78 33 12.5C33 12.22 33.22 12 33.5 12C33.78 12 34 12.22 34 12.5C34 12.78 33.78 13 33.5 13ZM34.5 13C34.22 13 34 12.78 34 12.5C34 12.22 34.22 12 34.5 12C34.78 12 35 12.22 35 12.5C35 12.78 34.78 13 34.5 13ZM35.5 13C35.22 13 35 12.78 35 12.5C35 12.22 35.22 12 35.5 12C35.78 12 36 12.22 36 12.5C36 12.78 35.78 13 35.5 13ZM39.5 13C39.22 13 39 12.78 39 12.5C39 12.22 39.22 12 39.5 12C39.78 12 40 12.22 40 12.5C40 12.78 39.78 13 39.5 13ZM38.5 13C38.22 13 38 12.78 38 12.5C38 12.22 38.22 12 38.5 12C38.78 12 39 12.22 39 12.5C39 12.78 38.78 13 38.5 13ZM37.5 13C37.22 13 37 12.78 37 12.5C37 12.22 37.22 12 37.5 12C37.78 12 38 12.22 38 12.5C38 12.78 37.78 13 37.5 13ZM36.5 13C36.22 13 36 12.78 36 12.5C36 12.22 36.22 12 36.5 12C36.78 12 37 12.22 37 12.5C37 12.78 36.78 13 36.5 13ZM33.5 14C33.22 14 33 13.78 33 13.5C33 13.22 33.22 13 33.5 13C33.78 13 34 13.22 34 13.5C34 13.78 33.78 14 33.5 14ZM34.5 14C34.22 14 34 13.78 34 13.5C34 13.22 34.22 13 34.5 13C34.78 13 35 13.22 35 13.5C35 13.78 34.78 14 34.5 14ZM37.5 14C37.22 14 37 13.78 37 13.5C37 13.22 37.22 13 37.5 13C37.78 13 38 13.22 38 13.5C38 13.78 37.78 14 37.5 14ZM35.5 14C35.22 14 35 13.78 35 13.5C35 13.22 35.22 13 35.5 13C35.78 13 36 13.22 36 13.5C36 13.78 35.78 14 35.5 14ZM36.5 14C36.22 14 36 13.78 36 13.5C36 13.22 36.22 13 36.5 13C36.78 13 37 13.22 37 13.5C37 13.78 36.78 14 36.5 14Z" fill="#FF7878"/>
<path d="M45.5 5C45.22 5 45 4.78 45 4.5C45 4.22 45.22 4 45.5 4C45.78 4 46 4.22 46 4.5C46 4.78 45.78 5 45.5 5ZM46.5 5C46.22 5 46 4.78 46 4.5C46 4.22 46.22 4 46.5 4C46.78 4 47 4.22 47 4.5C47 4.78 46.78 5 46.5 5ZM45.5 6C45.22 6 45 5.78 45 5.5C45 5.22 45.22 5 45.5 5C45.78 5 46 5.22 46 5.5C46 5.78 45.78 6 45.5 6ZM46.5 6C46.22 6 46 5.78 46 5.5C46 5.22 46.22 5 46.5 5C46.78 5 47 5.22 47 5.5C47 5.78 46.78 6 46.5 6ZM45.5 7C45.22 7 45 6.78 45 6.5C45 6.22 45.22 6 45.5 6C45.78 6 46 6.22 46 6.5C46 6.78 45.78 7 45.5 7ZM47.5 7C47.22 7 47 6.78 47 6.5C47 6.22 47.22 6 47.5 6C47.78 6 48 6.22 48 6.5C48 6.78 47.78 7 47.5 7ZM44.5 7C44.22 7 44 6.78 44 6.5C44 6.22 44.22 6 44.5 6C44.78 6 45 6.22 45 6.5C45 6.78 44.78 7 44.5 7ZM46.5 7C46.22 7 46 6.78 46 6.5C46 6.22 46.22 6 46.5 6C46.78 6 47 6.22 47 6.5C47 6.78 46.78 7 46.5 7ZM47.5 8C47.22 8 47 7.78 47 7.5C47 7.22 47.22 7 47.5 7C47.78 7 48 7.22 48 7.5C48 7.78 47.78 8 47.5 8ZM44.5 8C44.22 8 44 7.78 44 7.5C44 7.22 44.22 7 44.5 7C44.78 7 45 7.22 45 7.5C45 7.78 44.78 8 44.5 8ZM45.5 8C45.22 8 45 7.78 45 7.5C45 7.22 45.22 7 45.5 7C45.78 7 46 7.22 46 7.5C46 7.78 45.78 8 45.5 8ZM46.5 8C46.22 8 46 7.78 46 7.5C46 7.22 46.22 7 46.5 7C46.78 7 47 7.22 47 7.5C47 7.78 46.78 8 46.5 8ZM47.5 9C47.22 9 47 8.78 47 8.5C47 8.22 47.22 8 47.5 8C47.78 8 48 8.22 48 8.5C48 8.78 47.78 9 47.5 9ZM44.5 9C44.22 9 44 8.78 44 8.5C44 8.22 44.22 8 44.5 8C44.78 8 45 8.22 45 8.5C45 8.78 44.78 9 44.5 9ZM48.5 9C48.22 9 48 8.78 48 8.5C48 8.22 48.22 8 48.5 8C48.78 8 49 8.22 49 8.5C49 8.78 48.78 9 48.5 9ZM43.5 9C43.22 9 43 8.78 43 8.5C43 8.22 43.22 8 43.5 8C43.78 8 44 8.22 44 8.5C44 8.78 43.78 9 43.5 9ZM48.5 10C48.22 10 48 9.78 48 9.5C48 9.22 48.22 9 48.5 9C48.78 9 49 9.22 49 9.5C49 9.78 48.78 10 48.5 10ZM43.5 10C43.22 10 43 9.78 43 9.5C43 9.22 43.22 9 43.5 9C43.78 9 44 9.22 44 9.5C44 9.78 43.78 10 43.5 10ZM47.5 10C47.22 10 47 9.78 47 9.5C47 9.22 47.22 9 47.5 9C47.78 9 48 9.22 48 9.5C48 9.78 47.78 10 47.5 10ZM44.5 10C44.22 10 44 9.78 44 9.5C44 9.22 44.22 9 44.5 9C44.78 9 45 9.22 45 9.5C45 9.78 44.78 10 44.5 10ZM48.5 11C48.22 11 48 10.78 48 10.5C48 10.22 48.22 10 48.5 10C48.78 10 49 10.22 49 10.5C49 10.78 48.78 11 48.5 11ZM43.5 11C43.22 11 43 10.78 43 10.5C43 10.22 43.22 10 43.5 10C43.78 10 44 10.22 44 10.5C44 10.78 43.78 11 43.5 11ZM47.5 11C47.22 11 47 10.78 47 10.5C47 10.22 47.22 10 47.5 10C47.78 10 48 10.22 48 10.5C48 10.78 47.78 11 47.5 11ZM46.5 11C46.22 11 46 10.78 46 10.5C46 10.22 46.22 10 46.5 10C46.78 10 47 10.22 47 10.5C47 10.78 46.78 11 46.5 11ZM45.5 11C45.22 11 45 10.78 45 10.5C45 10.22 45.22 10 45.5 10C45.78 10 46 10.22 46 10.5C46 10.78 45.78 11 45.5 11ZM44.5 11C44.22 11 44 10.78 44 10.5C44 10.22 44.22 10 44.5 10C44.78 10 45 10.22 45 10.5C45 10.78 44.78 11 44.5 11ZM47.5 12C47.22 12 47 11.78 47 11.5C47 11.22 47.22 11 47.5 11C47.78 11 48 11.22 48 11.5C48 11.78 47.78 12 47.5 12ZM46.5 12C46.22 12 46 11.78 46 11.5C46 11.22 46.22 11 46.5 11C46.78 11 47 11.22 47 11.5C47 11.78 46.78 12 46.5 12ZM45.5 12C45.22 12 45 11.78 45 11.5C45 11.22 45.22 11 45.5 11C45.78 11 46 11.22 46 11.5C46 11.78 45.78 12 45.5 12ZM44.5 12C44.22 12 44 11.78 44 11.5C44 11.22 44.22 11 44.5 11C44.78 11 45 11.22 45 11.5C45 11.78 44.78 12 44.5 12ZM48.5 12C48.22 12 48 11.78 48 11.5C48 11.22 48.22 11 48.5 11C48.78 11 49 11.22 49 11.5C49 11.78 48.78 12 48.5 12ZM43.5 12C43.22 12 43 11.78 43 11.5C43 11.22 43.22 11 43.5 11C43.78 11 44 11.22 44 11.5C44 11.78 43.78 12 43.5 12ZM42.5 12C42.22 12 42 11.78 42 11.5C42 11.22 42.22 11 42.5 11C42.78 11 43 11.22 43 11.5C43 11.78 42.78 12 42.5 12ZM49.5 12C49.22 12 49 11.78 49 11.5C49 11.22 49.22 11 49.5 11C49.78 11 50 11.22 50 11.5C50 11.78 49.78 12 49.5 12ZM43.5 13C43.22 13 43 12.78 43 12.5C43 12.22 43.22 12 43.5 12C43.78 12 44 12.22 44 12.5C44 12.78 43.78 13 43.5 13ZM48.5 13C48.22 13 48 12.78 48 12.5C48 12.22 48.22 12 48.5 12C48.78 12 49 12.22 49 12.5C49 12.78 48.78 13 48.5 13ZM49.5 13C49.22 13 49 12.78 49 12.5C49 12.22 49.22 12 49.5 12C49.78 12 50 12.22 50 12.5C50 12.78 49.78 13 49.5 13ZM42.5 13C42.22 13 42 12.78 42 12.5C42 12.22 42.22 12 42.5 12C42.78 12 43 12.22 43 12.5C43 12.78 42.78 13 42.5 13ZM43.5 14C43.22 14 43 13.78 43 13.5C43 13.22 43.22 13 43.5 13C43.78 13 44 13.22 44 13.5C44 13.78 43.78 14 43.5 14ZM48.5 14C48.22 14 48 13.78 48 13.5C48 13.22 48.22 13 48.5 13C48.78 13 49 13.22 49 13.5C49 13.78 48.78 14 48.5 14ZM42.5 14C42.22 14 42 13.78 42 13.5C42 13.22 42.22 13 42.5 13C42.78 13 43 13.22 43 13.5C43 13.78 42.78 14 42.5 14ZM49.5 14C49.22 14 49 13.78 49 13.5C49 13.22 49.22 13 49.5 13C49.78 13 50 13.22 50 13.5C50 13.78 49.78 14 49.5 14Z" fill="#FF7878"/>
<path d="M56.5 5C56.22 5 56 4.78 56 4.5C56 4.22 56.22 4 56.5 4C56.78 4 57 4.22 57 4.5C57 4.78 56.78 5 56.5 5ZM57.5 5C57.22 5 57 4.78 57 4.5C57 4.22 57.22 4 57.5 4C57.78 4 58 4.22 58 4.5C58 4.78 57.78 5 57.5 5ZM50.5 5C50.22 5 50 4.78 50 4.5C50 4.22 50.22 4 50.5 4C50.78 4 51 4.22 51 4.5C51 4.78 50.78 5 50.5 5ZM51.5 5C51.22 5 51 4.78 51 4.5C51 4.22 51.22 4 51.5 4C51.78 4 52 4.22 52 4.5C52 4.78 51.78 5 51.5 5ZM56.5 6C56.22 6 56 5.78 56 5.5C56 5.22 56.22 5 56.5 5C56.78 5 57 5.22 57 5.5C57 5.78 56.78 6 56.5 6ZM57.5 6C57.22 6 57 5.78 57 5.5C57 5.22 57.22 5 57.5 5C57.78 5 58 5.22 58 5.5C58 5.78 57.78 6 57.5 6ZM51.5 6C51.22 6 51 5.78 51 5.5C51 5.22 51.22 5 51.5 5C51.78 5 52 5.22 52 5.5C52 5.78 51.78 6 51.5 6ZM50.5 6C50.22 6 50 5.78 50 5.5C50 5.22 50.22 5 50.5 5C50.78 5 51 5.22 51 5.5C51 5.78 50.78 6 50.5 6ZM55.5 7C55.22 7 55 6.78 55 6.5C55 6.22 55.22 6 55.5 6C55.78 6 56 6.22 56 6.5C56 6.78 55.78 7 55.5 7ZM56.5 7C56.22 7 56 6.78 56 6.5C56 6.22 56.22 6 56.5 6C56.78 6 57 6.22 57 6.5C57 6.78 56.78 7 56.5 7ZM52.5 7C52.22 7 52 6.78 52 6.5C52 6.22 52.22 6 52.5 6C52.78 6 53 6.22 53 6.5C53 6.78 52.78 7 52.5 7ZM51.5 7C51.22 7 51 6.78 51 6.5C51 6.22 51.22 6 51.5 6C51.78 6 52 6.22 52 6.5C52 6.78 51.78 7 51.5 7ZM55.5 8C55.22 8 55 7.78 55 7.5C55 7.22 55.22 7 55.5 7C55.78 7 56 7.22 56 7.5C56 7.78 55.78 8 55.5 8ZM56.5 8C56.22 8 56 7.78 56 7.5C56 7.22 56.22 7 56.5 7C56.78 7 57 7.22 57 7.5C57 7.78 56.78 8 56.5 8ZM52.5 8C52.22 8 52 7.78 52 7.5C52 7.22 52.22 7 52.5 7C52.78 7 53 7.22 53 7.5C53 7.78 52.78 8 52.5 8ZM51.5 8C51.22 8 51 7.78 51 7.5C51 7.22 51.22 7 51.5 7C51.78 7 52 7.22 52 7.5C52 7.78 51.78 8 51.5 8ZM52.5 9C52.22 9 52 8.78 52 8.5C52 8.22 52.22 8 52.5 8C52.78 8 53 8.22 53 8.5C53 8.78 52.78 9 52.5 9ZM55.5 9C55.22 9 55 8.78 55 8.5C55 8.22 55.22 8 55.5 8C55.78 8 56 8.22 56 8.5C56 8.78 55.78 9 55.5 9ZM54.5 9C54.22 9 54 8.78 54 8.5C54 8.22 54.22 8 54.5 8C54.78 8 55 8.22 55 8.5C55 8.78 54.78 9 54.5 9ZM53.5 9C53.22 9 53 8.78 53 8.5C53 8.22 53.22 8 53.5 8C53.78 8 54 8.22 54 8.5C54 8.78 53.78 9 53.5 9ZM52.5 10C52.22 10 52 9.78 52 9.5C52 9.22 52.22 9 52.5 9C52.78 9 53 9.22 53 9.5C53 9.78 52.78 10 52.5 10ZM55.5 10C55.22 10 55 9.78 55 9.5C55 9.22 55.22 9 55.5 9C55.78 9 56 9.22 56 9.5C56 9.78 55.78 10 55.5 10ZM54.5 10C54.22 10 54 9.78 54 9.5C54 9.22 54.22 9 54.5 9C54.78 9 55 9.22 55 9.5C55 9.78 54.78 10 54.5 10ZM53.5 10C53.22 10 53 9.78 53 9.5C53 9.22 53.22 9 53.5 9C53.78 9 54 9.22 54 9.5C54 9.78 53.78 10 53.5 10ZM53.5 11C53.22 11 53 10.78 53 10.5C53 10.22 53.22 10 53.5 10C53.78 10 54 10.22 54 10.5C54 10.78 53.78 11 53.5 11ZM54.5 11C54.22 11 54 10.78 54 10.5C54 10.22 54.22 10 54.5 10C54.78 10 55 10.22 55 10.5C55 10.78 54.78 11 54.5 11ZM54.5 12C54.22 12 54 11.78 54 11.5C54 11.22 54.22 11 54.5 11C54.78 11 55 11.22 55 11.5C55 11.78 54.78 12 54.5 12ZM53.5 12C53.22 12 53 11.78 53 11.5C53 11.22 53.22 11 53.5 11C53.78 11 54 11.22 54 11.5C54 11.78 53.78 12 53.5 12ZM54.5 13C54.22 13 54 12.78 54 12.5C54 12.22 54.22 12 54.5 12C54.78 12 55 12.22 55 12.5C55 12.78 54.78 13 54.5 13ZM53.5 13C53.22 13 53 12.78 53 12.5C53 12.22 53.22 12 53.5 12C53.78 12 54 12.22 54 12.5C54 12.78 53.78 13 53.5 13ZM53.5 14C53.22 14 53 13.78 53 13.5C53 13.22 53.22 13 53.5 13C53.78 13 54 13.22 54 13.5C54 13.78 53.78 14 53.5 14ZM54.5 14C54.22 14 54 13.78 54 13.5C54 13.22 54.22 13 54.5 13C54.78 13 55 13.22 55 13.5C55 13.78 54.78 14 54.5 14Z" fill="#FF7878"/>
<path d="M59.5 5C59.22 5 59 4.78 59 4.5C59 4.22 59.22 4 59.5 4C59.78 4 60 4.22 60 4.5C60 4.78 59.78 5 59.5 5ZM60.5 5C60.22 5 60 4.78 60 4.5C60 4.22 60.22 4 60.5 4C60.78 4 61 4.22 61 4.5C61 4.78 60.78 5 60.5 5ZM60.5 6C60.22 6 60 5.78 60 5.5C60 5.22 60.22 5 60.5 5C60.78 5 61 5.22 61 5.5C61 5.78 60.78 6 60.5 6ZM59.5 6C59.22 6 59 5.78 59 5.5C59 5.22 59.22 5 59.5 5C59.78 5 60 5.22 60 5.5C60 5.78 59.78 6 59.5 6ZM60.5 7C60.22 7 60 6.78 60 6.5C60 6.22 60.22 6 60.5 6C60.78 6 61 6.22 61 6.5C61 6.78 60.78 7 60.5 7ZM59.5 7C59.22 7 59 6.78 59 6.5C59 6.22 59.22 6 59.5 6C59.78 6 60 6.22 60 6.5C60 6.78 59.78 7 59.5 7ZM59.5 8C59.22 8 59 7.78 59 7.5C59 7.22 59.22 7 59.5 7C59.78 7 60 7.22 60 7.5C60 7.78 59.78 8 59.5 8ZM60.5 8C60.22 8 60 7.78 60 7.5C60 7.22 60.22 7 60.5 7C60.78 7 61 7.22 61 7.5C61 7.78 60.78 8 60.5 8ZM60.5 9C60.22 9 60 8.78 60 8.5C60 8.22 60.22 8 60.5 8C60.78 8 61 8.22 61 8.5C61 8.78 60.78 9 60.5 9ZM59.5 9C59.22 9 59 8.78 59 8.5C59 8.22 59.22 8 59.5 8C59.78 8 60 8.22 60 8.5C60 8.78 59.78 9 59.5 9ZM60.5 10C60.22 10 60 9.78 60 9.5C60 9.22 60.22 9 60.5 9C60.78 9 61 9.22 61 9.5C61 9.78 60.78 10 60.5 10ZM59.5 10C59.22 10 59 9.78 59 9.5C59 9.22 59.22 9 59.5 9C59.78 9 60 9.22 60 9.5C60 9.78 59.78 10 59.5 10ZM59.5 11C59.22 11 59 10.78 59 10.5C59 10.22 59.22 10 59.5 10C59.78 10 60 10.22 60 10.5C60 10.78 59.78 11 59.5 11ZM60.5 11C60.22 11 60 10.78 60 10.5C60 10.22 60.22 10 60.5 10C60.78 10 61 10.22 61 10.5C61 10.78 60.78 11 60.5 11ZM60.5 12C60.22 12 60 11.78 60 11.5C60 11.22 60.22 11 60.5 11C60.78 11 61 11.22 61 11.5C61 11.78 60.78 12 60.5 12ZM59.5 12C59.22 12 59 11.78 59 11.5C59 11.22 59.22 11 59.5 11C59.78 11 60 11.22 60 11.5C60 11.78 59.78 12 59.5 12ZM60.5 13C60.22 13 60 12.78 60 12.5C60 12.22 60.22 12 60.5 12C60.78 12 61 12.22 61 12.5C61 12.78 60.78 13 60.5 13ZM59.5 13C59.22 13 59 12.78 59 12.5C59 12.22 59.22 12 59.5 12C59.78 12 60 12.22 60 12.5C60 12.78 59.78 13 59.5 13ZM60.5 14C60.22 14 60 13.78 60 13.5C60 13.22 60.22 13 60.5 13C60.78 13 61 13.22 61 13.5C61 13.78 60.78 14 60.5 14ZM59.5 14C59.22 14 59 13.78 59 13.5C59 13.22 59.22 13 59.5 13C59.78 13 60 13.22 60 13.5C60 13.78 59.78 14 59.5 14Z" fill="#FF7878"/>
<path d="M63.5 5C63.22 5 63 4.78 63 4.5C63 4.22 63.22 4 63.5 4C63.78 4 64 4.22 64 4.5C64 4.78 63.78 5 63.5 5ZM62.5 5C62.22 5 62 4.78 62 4.5C62 4.22 62.22 4 62.5 4C62.78 4 63 4.22 63 4.5C63 4.78 62.78 5 62.5 5ZM69.5 5C69.22 5 69 4.78 69 4.5C69 4.22 69.22 4 69.5 4C69.78 4 70 4.22 70 4.5C70 4.78 69.78 5 69.5 5ZM68.5 5C68.22 5 68 4.78 68 4.5C68 4.22 68.22 4 68.5 4C68.78 4 69 4.22 69 4.5C69 4.78 68.78 5 68.5 5ZM63.5 6C63.22 6 63 5.78 63 5.5C63 5.22 63.22 5 63.5 5C63.78 5 64 5.22 64 5.5C64 5.78 63.78 6 63.5 6ZM64.5 6C64.22 6 64 5.78 64 5.5C64 5.22 64.22 5 64.5 5C64.78 5 65 5.22 65 5.5C65 5.78 64.78 6 64.5 6ZM62.5 6C62.22 6 62 5.78 62 5.5C62 5.22 62.22 5 62.5 5C62.78 5 63 5.22 63 5.5C63 5.78 62.78 6 62.5 6ZM68.5 6C68.22 6 68 5.78 68 5.5C68 5.22 68.22 5 68.5 5C68.78 5 69 5.22 69 5.5C69 5.78 68.78 6 68.5 6ZM69.5 6C69.22 6 69 5.78 69 5.5C69 5.22 69.22 5 69.5 5C69.78 5 70 5.22 70 5.5C70 5.78 69.78 6 69.5 6ZM69.5 7C69.22 7 69 6.78 69 6.5C69 6.22 69.22 6 69.5 6C69.78 6 70 6.22 70 6.5C70 6.78 69.78 7 69.5 7ZM63.5 7C63.22 7 63 6.78 63 6.5C63 6.22 63.22 6 63.5 6C63.78 6 64 6.22 64 6.5C64 6.78 63.78 7 63.5 7ZM65.5 7C65.22 7 65 6.78 65 6.5C65 6.22 65.22 6 65.5 6C65.78 6 66 6.22 66 6.5C66 6.78 65.78 7 65.5 7ZM64.5 7C64.22 7 64 6.78 64 6.5C64 6.22 64.22 6 64.5 6C64.78 6 65 6.22 65 6.5C65 6.78 64.78 7 64.5 7ZM62.5 7C62.22 7 62 6.78 62 6.5C62 6.22 62.22 6 62.5 6C62.78 6 63 6.22 63 6.5C63 6.78 62.78 7 62.5 7ZM68.5 7C68.22 7 68 6.78 68 6.5C68 6.22 68.22 6 68.5 6C68.78 6 69 6.22 69 6.5C69 6.78 68.78 7 68.5 7ZM63.5 8C63.22 8 63 7.78 63 7.5C63 7.22 63.22 7 63.5 7C63.78 7 64 7.22 64 7.5C64 7.78 63.78 8 63.5 8ZM64.5 8C64.22 8 64 7.78 64 7.5C64 7.22 64.22 7 64.5 7C64.78 7 65 7.22 65 7.5C65 7.78 64.78 8 64.5 8ZM69.5 8C69.22 8 69 7.78 69 7.5C69 7.22 69.22 7 69.5 7C69.78 7 70 7.22 70 7.5C70 7.78 69.78 8 69.5 8ZM68.5 8C68.22 8 68 7.78 68 7.5C68 7.22 68.22 7 68.5 7C68.78 7 69 7.22 69 7.5C69 7.78 68.78 8 68.5 8ZM65.5 8C65.22 8 65 7.78 65 7.5C65 7.22 65.22 7 65.5 7C65.78 7 66 7.22 66 7.5C66 7.78 65.78 8 65.5 8ZM62.5 8C62.22 8 62 7.78 62 7.5C62 7.22 62.22 7 62.5 7C62.78 7 63 7.22 63 7.5C63 7.78 62.78 8 62.5 8ZM66.5 8C66.22 8 66 7.78 66 7.5C66 7.22 66.22 7 66.5 7C66.78 7 67 7.22 67 7.5C67 7.78 66.78 8 66.5 8ZM65.5 9C65.22 9 65 8.78 65 8.5C65 8.22 65.22 8 65.5 8C65.78 8 66 8.22 66 8.5C66 8.78 65.78 9 65.5 9ZM67.5 9C67.22 9 67 8.78 67 8.5C67 8.22 67.22 8 67.5 8C67.78 8 68 8.22 68 8.5C68 8.78 67.78 9 67.5 9ZM66.5 9C66.22 9 66 8.78 66 8.5C66 8.22 66.22 8 66.5 8C66.78 8 67 8.22 67 8.5C67 8.78 66.78 9 66.5 9ZM69.5 9C69.22 9 69 8.78 69 8.5C69 8.22 69.22 8 69.5 8C69.78 8 70 8.22 70 8.5C70 8.78 69.78 9 69.5 9ZM68.5 9C68.22 9 68 8.78 68 8.5C68 8.22 68.22 8 68.5 8C68.78 8 69 8.22 69 8.5C69 8.78 68.78 9 68.5 9ZM63.5 9C63.22 9 63 8.78 63 8.5C63 8.22 63.22 8 63.5 8C63.78 8 64 8.22 64 8.5C64 8.78 63.78 9 63.5 9ZM62.5 9C62.22 9 62 8.78 62 8.5C62 8.22 62.22 8 62.5 8C62.78 8 63 8.22 63 8.5C63 8.78 62.78 9 62.5 9ZM68.5 10C68.22 10 68 9.78 68 9.5C68 9.22 68.22 9 68.5 9C68.78 9 69 9.22 69 9.5C69 9.78 68.78 10 68.5 10ZM67.5 10C67.22 10 67 9.78 67 9.5C67 9.22 67.22 9 67.5 9C67.78 9 68 9.22 68 9.5C68 9.78 67.78 10 67.5 10ZM66.5 10C66.22 10 66 9.78 66 9.5C66 9.22 66.22 9 66.5 9C66.78 9 67 9.22 67 9.5C67 9.78 66.78 10 66.5 10ZM69.5 10C69.22 10 69 9.78 69 9.5C69 9.22 69.22 9 69.5 9C69.78 9 70 9.22 70 9.5C70 9.78 69.78 10 69.5 10ZM63.5 10C63.22 10 63 9.78 63 9.5C63 9.22 63.22 9 63.5 9C63.78 9 64 9.22 64 9.5C64 9.78 63.78 10 63.5 10ZM62.5 10C62.22 10 62 9.78 62 9.5C62 9.22 62.22 9 62.5 9C62.78 9 63 9.22 63 9.5C63 9.78 62.78 10 62.5 10ZM62.5 11C62.22 11 62 10.78 62 10.5C62 10.22 62.22 10 62.5 10C62.78 10 63 10.22 63 10.5C63 10.78 62.78 11 62.5 11ZM69.5 11C69.22 11 69 10.78 69 10.5C69 10.22 69.22 10 69.5 10C69.78 10 70 10.22 70 10.5C70 10.78 69.78 11 69.5 11ZM68.5 11C68.22 11 68 10.78 68 10.5C68 10.22 68.22 10 68.5 10C68.78 10 69 10.22 69 10.5C69 10.78 68.78 11 68.5 11ZM67.5 11C67.22 11 67 10.78 67 10.5C67 10.22 67.22 10 67.5 10C67.78 10 68 10.22 68 10.5C68 10.78 67.78 11 67.5 11ZM63.5 11C63.22 11 63 10.78 63 10.5C63 10.22 63.22 10 63.5 10C63.78 10 64 10.22 64 10.5C64 10.78 63.78 11 63.5 11ZM62.5 12C62.22 12 62 11.78 62 11.5C62 11.22 62.22 11 62.5 11C62.78 11 63 11.22 63 11.5C63 11.78 62.78 12 62.5 12ZM69.5 12C69.22 12 69 11.78 69 11.5C69 11.22 69.22 11 69.5 11C69.78 11 70 11.22 70 11.5C70 11.78 69.78 12 69.5 12ZM68.5 12C68.22 12 68 11.78 68 11.5C68 11.22 68.22 11 68.5 11C68.78 11 69 11.22 69 11.5C69 11.78 68.78 12 68.5 12ZM63.5 12C63.22 12 63 11.78 63 11.5C63 11.22 63.22 11 63.5 11C63.78 11 64 11.22 64 11.5C64 11.78 63.78 12 63.5 12ZM62.5 13C62.22 13 62 12.78 62 12.5C62 12.22 62.22 12 62.5 12C62.78 12 63 12.22 63 12.5C63 12.78 62.78 13 62.5 13ZM69.5 13C69.22 13 69 12.78 69 12.5C69 12.22 69.22 12 69.5 12C69.78 12 70 12.22 70 12.5C70 12.78 69.78 13 69.5 13ZM68.5 13C68.22 13 68 12.78 68 12.5C68 12.22 68.22 12 68.5 12C68.78 12 69 12.22 69 12.5C69 12.78 68.78 13 68.5 13ZM63.5 13C63.22 13 63 12.78 63 12.5C63 12.22 63.22 12 63.5 12C63.78 12 64 12.22 64 12.5C64 12.78 63.78 13 63.5 13ZM62.5 14C62.22 14 62 13.78 62 13.5C62 13.22 62.22 13 62.5 13C62.78 13 63 13.22 63 13.5C63 13.78 62.78 14 62.5 14ZM63.5 14C63.22 14 63 13.78 63 13.5C63 13.22 63.22 13 63.5 13C63.78 13 64 13.22 64 13.5C64 13.78 63.78 14 63.5 14ZM68.5 14C68.22 14 68 13.78 68 13.5C68 13.22 68.22 13 68.5 13C68.78 13 69 13.22 69 13.5C69 13.78 68.78 14 68.5 14ZM69.5 14C69.22 14 69 13.78 69 13.5C69 13.22 69.22 13 69.5 13C69.78 13 70 13.22 70 13.5C70 13.78 69.78 14 69.5 14Z" fill="#FF7878"/>
<path d="M79.5 8C79.22 8 79 7.78 79 7.5C79 7.22 79.22 7 79.5 7C79.78 7 80 7.22 80 7.5C80 7.78 79.78 8 79.5 8ZM78.5 8C78.22 8 78 7.78 78 7.5C78 7.22 78.22 7 78.5 7C78.78 7 79 7.22 79 7.5C79 7.78 78.78 8 78.5 8ZM77.5 8C77.22 8 77 7.78 77 7.5C77 7.22 77.22 7 77.5 7C77.78 7 78 7.22 78 7.5C78 7.78 77.78 8 77.5 8ZM76.5 9C76.22 9 76 8.78 76 8.5C76 8.22 76.22 8 76.5 8C76.78 8 77 8.22 77 8.5C77 8.78 76.78 9 76.5 9ZM80.5 9C80.22 9 80 8.78 80 8.5C80 8.22 80.22 8 80.5 8C80.78 8 81 8.22 81 8.5C81 8.78 80.78 9 80.5 9ZM77.5 9C77.22 9 77 8.78 77 8.5C77 8.22 77.22 8 77.5 8C77.78 8 78 8.22 78 8.5C78 8.78 77.78 9 77.5 9ZM79.5 9C79.22 9 79 8.78 79 8.5C79 8.22 79.22 8 79.5 8C79.78 8 80 8.22 80 8.5C80 8.78 79.78 9 79.5 9ZM78.5 9C78.22 9 78 8.78 78 8.5C78 8.22 78.22 8 78.5 8C78.78 8 79 8.22 79 8.5C79 8.78 78.78 9 78.5 9ZM76.5 10C76.22 10 76 9.78 76 9.5C76 9.22 76.22 9 76.5 9C76.78 9 77 9.22 77 9.5C77 9.78 76.78 10 76.5 10ZM80.5 10C80.22 10 80 9.78 80 9.5C80 9.22 80.22 9 80.5 9C80.78 9 81 9.22 81 9.5C81 9.78 80.78 10 80.5 10ZM77.5 10C77.22 10 77 9.78 77 9.5C77 9.22 77.22 9 77.5 9C77.78 9 78 9.22 78 9.5C78 9.78 77.78 10 77.5 10ZM79.5 10C79.22 10 79 9.78 79 9.5C79 9.22 79.22 9 79.5 9C79.78 9 80 9.22 80 9.5C80 9.78 79.78 10 79.5 10ZM78.5 10C78.22 10 78 9.78 78 9.5C78 9.22 78.22 9 78.5 9C78.78 9 79 9.22 79 9.5C79 9.78 78.78 10 78.5 10ZM76.5 11C76.22 11 76 10.78 76 10.5C76 10.22 76.22 10 76.5 10C76.78 10 77 10.22 77 10.5C77 10.78 76.78 11 76.5 11ZM80.5 11C80.22 11 80 10.78 80 10.5C80 10.22 80.22 10 80.5 10C80.78 10 81 10.22 81 10.5C81 10.78 80.78 11 80.5 11ZM77.5 11C77.22 11 77 10.78 77 10.5C77 10.22 77.22 10 77.5 10C77.78 10 78 10.22 78 10.5C78 10.78 77.78 11 77.5 11ZM79.5 11C79.22 11 79 10.78 79 10.5C79 10.22 79.22 10 79.5 10C79.78 10 80 10.22 80 10.5C80 10.78 79.78 11 79.5 11ZM78.5 11C78.22 11 78 10.78 78 10.5C78 10.22 78.22 10 78.5 10C78.78 10 79 10.22 79 10.5C79 10.78 78.78 11 78.5 11ZM77.5 12C77.22 12 77 11.78 77 11.5C77 11.22 77.22 11 77.5 11C77.78 11 78 11.22 78 11.5C78 11.78 77.78 12 77.5 12ZM78.5 12C78.22 12 78 11.78 78 11.5C78 11.22 78.22 11 78.5 11C78.78 11 79 11.22 79 11.5C79 11.78 78.78 12 78.5 12ZM79.5 12C79.22 12 79 11.78 79 11.5C79 11.22 79.22 11 79.5 11C79.78 11 80 11.22 80 11.5C80 11.78 79.78 12 79.5 12Z" fill="#FF7878"/>
<path d="M91.5 5C91.22 5 91 4.78 91 4.5C91 4.22 91.22 4 91.5 4C91.78 4 92 4.22 92 4.5C92 4.78 91.78 5 91.5 5ZM90.5 5C90.22 5 90 4.78 90 4.5C90 4.22 90.22 4 90.5 4C90.78 4 91 4.22 91 4.5C91 4.78 90.78 5 90.5 5ZM89.5 5C89.22 5 89 4.78 89 4.5C89 4.22 89.22 4 89.5 4C89.78 4 90 4.22 90 4.5C90 4.78 89.78 5 89.5 5ZM88.5 5C88.22 5 88 4.78 88 4.5C88 4.22 88.22 4 88.5 4C88.78 4 89 4.22 89 4.5C89 4.78 88.78 5 88.5 5ZM87.5 5C87.22 5 87 4.78 87 4.5C87 4.22 87.22 4 87.5 4C87.78 4 88 4.22 88 4.5C88 4.78 87.78 5 87.5 5ZM92.5 6C92.22 6 92 5.78 92 5.5C92 5.22 92.22 5 92.5 5C92.78 5 93 5.22 93 5.5C93 5.78 92.78 6 92.5 6ZM88.5 6C88.22 6 88 5.78 88 5.5C88 5.22 88.22 5 88.5 5C88.78 5 89 5.22 89 5.5C89 5.78 88.78 6 88.5 6ZM87.5 6C87.22 6 87 5.78 87 5.5C87 5.22 87.22 5 87.5 5C87.78 5 88 5.22 88 5.5C88 5.78 87.78 6 87.5 6ZM89.5 6C89.22 6 89 5.78 89 5.5C89 5.22 89.22 5 89.5 5C89.78 5 90 5.22 90 5.5C90 5.78 89.78 6 89.5 6ZM91.5 6C91.22 6 91 5.78 91 5.5C91 5.22 91.22 5 91.5 5C91.78 5 92 5.22 92 5.5C92 5.78 91.78 6 91.5 6ZM90.5 6C90.22 6 90 5.78 90 5.5C90 5.22 90.22 5 90.5 5C90.78 5 91 5.22 91 5.5C91 5.78 90.78 6 90.5 6ZM88.5 7C88.22 7 88 6.78 88 6.5C88 6.22 88.22 6 88.5 6C88.78 6 89 6.22 89 6.5C89 6.78 88.78 7 88.5 7ZM87.5 7C87.22 7 87 6.78 87 6.5C87 6.22 87.22 6 87.5 6C87.78 6 88 6.22 88 6.5C88 6.78 87.78 7 87.5 7ZM92.5 7C92.22 7 92 6.78 92 6.5C92 6.22 92.22 6 92.5 6C92.78 6 93 6.22 93 6.5C93 6.78 92.78 7 92.5 7ZM93.5 7C93.22 7 93 6.78 93 6.5C93 6.22 93.22 6 93.5 6C93.78 6 94 6.22 94 6.5C94 6.78 93.78 7 93.5 7ZM87.5 8C87.22 8 87 7.78 87 7.5C87 7.22 87.22 7 87.5 7C87.78 7 88 7.22 88 7.5C88 7.78 87.78 8 87.5 8ZM88.5 8C88.22 8 88 7.78 88 7.5C88 7.22 88.22 7 88.5 7C88.78 7 89 7.22 89 7.5C89 7.78 88.78 8 88.5 8ZM92.5 8C92.22 8 92 7.78 92 7.5C92 7.22 92.22 7 92.5 7C92.78 7 93 7.22 93 7.5C93 7.78 92.78 8 92.5 8ZM93.5 8C93.22 8 93 7.78 93 7.5C93 7.22 93.22 7 93.5 7C93.78 7 94 7.22 94 7.5C94 7.78 93.78 8 93.5 8ZM88.5 9C88.22 9 88 8.78 88 8.5C88 8.22 88.22 8 88.5 8C88.78 8 89 8.22 89 8.5C89 8.78 88.78 9 88.5 9ZM87.5 9C87.22 9 87 8.78 87 8.5C87 8.22 87.22 8 87.5 8C87.78 8 88 8.22 88 8.5C88 8.78 87.78 9 87.5 9ZM92.5 9C92.22 9 92 8.78 92 8.5C92 8.22 92.22 8 92.5 8C92.78 8 93 8.22 93 8.5C93 8.78 92.78 9 92.5 9ZM93.5 9C93.22 9 93 8.78 93 8.5C93 8.22 93.22 8 93.5 8C93.78 8 94 8.22 94 8.5C94 8.78 93.78 9 93.5 9ZM88.5 10C88.22 10 88 9.78 88 9.5C88 9.22 88.22 9 88.5 9C88.78 9 89 9.22 89 9.5C89 9.78 88.78 10 88.5 10ZM87.5 10C87.22 10 87 9.78 87 9.5C87 9.22 87.22 9 87.5 9C87.78 9 88 9.22 88 9.5C88 9.78 87.78 10 87.5 10ZM89.5 10C89.22 10 89 9.78 89 9.5C89 9.22 89.22 9 89.5 9C89.78 9 90 9.22 90 9.5C90 9.78 89.78 10 89.5 10ZM90.5 10C90.22 10 90 9.78 90 9.5C90 9.22 90.22 9 90.5 9C90.78 9 91 9.22 91 9.5C91 9.78 90.78 10 90.5 10ZM92.5 10C92.22 10 92 9.78 92 9.5C92 9.22 92.22 9 92.5 9C92.78 9 93 9.22 93 9.5C93 9.78 92.78 10 92.5 10ZM91.5 10C91.22 10 91 9.78 91 9.5C91 9.22 91.22 9 91.5 9C91.78 9 92 9.22 92 9.5C92 9.78 91.78 10 91.5 10ZM89.5 11C89.22 11 89 10.78 89 10.5C89 10.22 89.22 10 89.5 10C89.78 10 90 10.22 90 10.5C90 10.78 89.78 11 89.5 11ZM90.5 11C90.22 11 90 10.78 90 10.5C90 10.22 90.22 10 90.5 10C90.78 10 91 10.22 91 10.5C91 10.78 90.78 11 90.5 11ZM91.5 11C91.22 11 91 10.78 91 10.5C91 10.22 91.22 10 91.5 10C91.78 10 92 10.22 92 10.5C92 10.78 91.78 11 91.5 11ZM88.5 11C88.22 11 88 10.78 88 10.5C88 10.22 88.22 10 88.5 10C88.78 10 89 10.22 89 10.5C89 10.78 88.78 11 88.5 11ZM87.5 11C87.22 11 87 10.78 87 10.5C87 10.22 87.22 10 87.5 10C87.78 10 88 10.22 88 10.5C88 10.78 87.78 11 87.5 11ZM90.5 12C90.22 12 90 11.78 90 11.5C90 11.22 90.22 11 90.5 11C90.78 11 91 11.22 91 11.5C91 11.78 90.78 12 90.5 12ZM91.5 12C91.22 12 91 11.78 91 11.5C91 11.22 91.22 11 91.5 11C91.78 11 92 11.22 92 11.5C92 11.78 91.78 12 91.5 12ZM92.5 12C92.22 12 92 11.78 92 11.5C92 11.22 92.22 11 92.5 11C92.78 11 93 11.22 93 11.5C93 11.78 92.78 12 92.5 12ZM87.5 12C87.22 12 87 11.78 87 11.5C87 11.22 87.22 11 87.5 11C87.78 11 88 11.22 88 11.5C88 11.78 87.78 12 87.5 12ZM88.5 12C88.22 12 88 11.78 88 11.5C88 11.22 88.22 11 88.5 11C88.78 11 89 11.22 89 11.5C89 11.78 88.78 12 88.5 12ZM91.5 13C91.22 13 91 12.78 91 12.5C91 12.22 91.22 12 91.5 12C91.78 12 92 12.22 92 12.5C92 12.78 91.78 13 91.5 13ZM92.5 13C92.22 13 92 12.78 92 12.5C92 12.22 92.22 12 92.5 12C92.78 12 93 12.22 93 12.5C93 12.78 92.78 13 92.5 13ZM93.5 13C93.22 13 93 12.78 93 12.5C93 12.22 93.22 12 93.5 12C93.78 12 94 12.22 94 12.5C94 12.78 93.78 13 93.5 13ZM87.5 13C87.22 13 87 12.78 87 12.5C87 12.22 87.22 12 87.5 12C87.78 12 88 12.22 88 12.5C88 12.78 87.78 13 87.5 13ZM88.5 13C88.22 13 88 12.78 88 12.5C88 12.22 88.22 12 88.5 12C88.78 12 89 12.22 89 12.5C89 12.78 88.78 13 88.5 13ZM92.5 14C92.22 14 92 13.78 92 13.5C92 13.22 92.22 13 92.5 13C92.78 13 93 13.22 93 13.5C93 13.78 92.78 14 92.5 14ZM93.5 14C93.22 14 93 13.78 93 13.5C93 13.22 93.22 13 93.5 13C93.78 13 94 13.22 94 13.5C94 13.78 93.78 14 93.5 14ZM87.5 14C87.22 14 87 13.78 87 13.5C87 13.22 87.22 13 87.5 13C87.78 13 88 13.22 88 13.5C88 13.78 87.78 14 87.5 14ZM88.5 14C88.22 14 88 13.78 88 13.5C88 13.22 88.22 13 88.5 13C88.78 13 89 13.22 89 13.5C89 13.78 88.78 14 88.5 14ZM94.5 14C94.22 14 94 13.78 94 13.5C94 13.22 94.22 13 94.5 13C94.78 13 95 13.22 95 13.5C95 13.78 94.78 14 94.5 14Z" fill="#FF7878"/>
<path d="M97.5 5C97.22 5 97 4.78 97 4.5C97 4.22 97.22 4 97.5 4C97.78 4 98 4.22 98 4.5C98 4.78 97.78 5 97.5 5ZM98.5 5C98.22 5 98 4.78 98 4.5C98 4.22 98.22 4 98.5 4C98.78 4 99 4.22 99 4.5C99 4.78 98.78 5 98.5 5ZM99.5 5C99.22 5 99 4.78 99 4.5C99 4.22 99.22 4 99.5 4C99.78 4 100 4.22 100 4.5C100 4.78 99.78 5 99.5 5ZM100.5 5C100.22 5 100 4.78 100 4.5C100 4.22 100.22 4 100.5 4C100.78 4 101 4.22 101 4.5C101 4.78 100.78 5 100.5 5ZM96.5 5C96.22 5 96 4.78 96 4.5C96 4.22 96.22 4 96.5 4C96.78 4 97 4.22 97 4.5C97 4.78 96.78 5 96.5 5ZM95.5 5C95.22 5 95 4.78 95 4.5C95 4.22 95.22 4 95.5 4C95.78 4 96 4.22 96 4.5C96 4.78 95.78 5 95.5 5ZM99.5 6C99.22 6 99 5.78 99 5.5C99 5.22 99.22 5 99.5 5C99.78 5 100 5.22 100 5.5C100 5.78 99.78 6 99.5 6ZM95.5 6C95.22 6 95 5.78 95 5.5C95 5.22 95.22 5 95.5 5C95.78 5 96 5.22 96 5.5C96 5.78 95.78 6 95.5 6ZM100.5 6C100.22 6 100 5.78 100 5.5C100 5.22 100.22 5 100.5 5C100.78 5 101 5.22 101 5.5C101 5.78 100.78 6 100.5 6ZM96.5 6C96.22 6 96 5.78 96 5.5C96 5.22 96.22 5 96.5 5C96.78 5 97 5.22 97 5.5C97 5.78 96.78 6 96.5 6ZM97.5 6C97.22 6 97 5.78 97 5.5C97 5.22 97.22 5 97.5 5C97.78 5 98 5.22 98 5.5C98 5.78 97.78 6 97.5 6ZM98.5 6C98.22 6 98 5.78 98 5.5C98 5.22 98.22 5 98.5 5C98.78 5 99 5.22 99 5.5C99 5.78 98.78 6 98.5 6ZM96.5 7C96.22 7 96 6.78 96 6.5C96 6.22 96.22 6 96.5 6C96.78 6 97 6.22 97 6.5C97 6.78 96.78 7 96.5 7ZM95.5 7C95.22 7 95 6.78 95 6.5C95 6.22 95.22 6 95.5 6C95.78 6 96 6.22 96 6.5C96 6.78 95.78 7 95.5 7ZM95.5 8C95.22 8 95 7.78 95 7.5C95 7.22 95.22 7 95.5 7C95.78 7 96 7.22 96 7.5C96 7.78 95.78 8 95.5 8ZM96.5 8C96.22 8 96 7.78 96 7.5C96 7.22 96.22 7 96.5 7C96.78 7 97 7.22 97 7.5C97 7.78 96.78 8 96.5 8ZM100.5 9C100.22 9 100 8.78 100 8.5C100 8.22 100.22 8 100.5 8C100.78 8 101 8.22 101 8.5C101 8.78 100.78 9 100.5 9ZM96.5 9C96.22 9 96 8.78 96 8.5C96 8.22 96.22 8 96.5 8C96.78 8 97 8.22 97 8.5C97 8.78 96.78 9 96.5 9ZM97.5 9C97.22 9 97 8.78 97 8.5C97 8.22 97.22 8 97.5 8C97.78 8 98 8.22 98 8.5C98 8.78 97.78 9 97.5 9ZM98.5 9C98.22 9 98 8.78 98 8.5C98 8.22 98.22 8 98.5 8C98.78 8 99 8.22 99 8.5C99 8.78 98.78 9 98.5 9ZM99.5 9C99.22 9 99 8.78 99 8.5C99 8.22 99.22 8 99.5 8C99.78 8 100 8.22 100 8.5C100 8.78 99.78 9 99.5 9ZM95.5 9C95.22 9 95 8.78 95 8.5C95 8.22 95.22 8 95.5 8C95.78 8 96 8.22 96 8.5C96 8.78 95.78 9 95.5 9ZM100.5 10C100.22 10 100 9.78 100 9.5C100 9.22 100.22 9 100.5 9C100.78 9 101 9.22 101 9.5C101 9.78 100.78 10 100.5 10ZM95.5 10C95.22 10 95 9.78 95 9.5C95 9.22 95.22 9 95.5 9C95.78 9 96 9.22 96 9.5C96 9.78 95.78 10 95.5 10ZM99.5 10C99.22 10 99 9.78 99 9.5C99 9.22 99.22 9 99.5 9C99.78 9 100 9.22 100 9.5C100 9.78 99.78 10 99.5 10ZM98.5 10C98.22 10 98 9.78 98 9.5C98 9.22 98.22 9 98.5 9C98.78 9 99 9.22 99 9.5C99 9.78 98.78 10 98.5 10ZM97.5 10C97.22 10 97 9.78 97 9.5C97 9.22 97.22 9 97.5 9C97.78 9 98 9.22 98 9.5C98 9.78 97.78 10 97.5 10ZM96.5 10C96.22 10 96 9.78 96 9.5C96 9.22 96.22 9 96.5 9C96.78 9 97 9.22 97 9.5C97 9.78 96.78 10 96.5 10ZM95.5 11C95.22 11 95 10.78 95 10.5C95 10.22 95.22 10 95.5 10C95.78 10 96 10.22 96 10.5C96 10.78 95.78 11 95.5 11ZM96.5 11C96.22 11 96 10.78 96 10.5C96 10.22 96.22 10 96.5 10C96.78 10 97 10.22 97 10.5C97 10.78 96.78 11 96.5 11ZM95.5 12C95.22 12 95 11.78 95 11.5C95 11.22 95.22 11 95.5 11C95.78 11 96 11.22 96 11.5C96 11.78 95.78 12 95.5 12ZM96.5 12C96.22 12 96 11.78 96 11.5C96 11.22 96.22 11 96.5 11C96.78 11 97 11.22 97 11.5C97 11.78 96.78 12 96.5 12ZM96.5 13C96.22 13 96 12.78 96 12.5C96 12.22 96.22 12 96.5 12C96.78 12 97 12.22 97 12.5C97 12.78 96.78 13 96.5 13ZM100.5 13C100.22 13 100 12.78 100 12.5C100 12.22 100.22 12 100.5 12C100.78 12 101 12.22 101 12.5C101 12.78 100.78 13 100.5 13ZM99.5 13C99.22 13 99 12.78 99 12.5C99 12.22 99.22 12 99.5 12C99.78 12 100 12.22 100 12.5C100 12.78 99.78 13 99.5 13ZM98.5 13C98.22 13 98 12.78 98 12.5C98 12.22 98.22 12 98.5 12C98.78 12 99 12.22 99 12.5C99 12.78 98.78 13 98.5 13ZM97.5 13C97.22 13 97 12.78 97 12.5C97 12.22 97.22 12 97.5 12C97.78 12 98 12.22 98 12.5C98 12.78 97.78 13 97.5 13ZM95.5 13C95.22 13 95 12.78 95 12.5C95 12.22 95.22 12 95.5 12C95.78 12 96 12.22 96 12.5C96 12.78 95.78 13 95.5 13ZM96.5 14C96.22 14 96 13.78 96 13.5C96 13.22 96.22 13 96.5 13C96.78 13 97 13.22 97 13.5C97 13.78 96.78 14 96.5 14ZM97.5 14C97.22 14 97 13.78 97 13.5C97 13.22 97.22 13 97.5 13C97.78 13 98 13.22 98 13.5C98 13.78 97.78 14 97.5 14ZM98.5 14C98.22 14 98 13.78 98 13.5C98 13.22 98.22 13 98.5 13C98.78 13 99 13.22 99 13.5C99 13.78 98.78 14 98.5 14ZM99.5 14C99.22 14 99 13.78 99 13.5C99 13.22 99.22 13 99.5 13C99.78 13 100 13.22 100 13.5C100 13.78 99.78 14 99.5 14ZM100.5 14C100.22 14 100 13.78 100 13.5C100 13.22 100.22 13 100.5 13C100.78 13 101 13.22 101 13.5C101 13.78 100.78 14 100.5 14ZM95.5 14C95.22 14 95 13.78 95 13.5C95 13.22 95.22 13 95.5 13C95.78 13 96 13.22 96 13.5C96 13.78 95.78 14 95.5 14Z" fill="#FF7878"/>
<path d="M106.5 5C106.22 5 106 4.78 106 4.5C106 4.22 106.22 4 106.5 4C106.78 4 107 4.22 107 4.5C107 4.78 106.78 5 106.5 5ZM105.5 5C105.22 5 105 4.78 105 4.5C105 4.22 105.22 4 105.5 4C105.78 4 106 4.22 106 4.5C106 4.78 105.78 5 105.5 5ZM107.5 5C107.22 5 107 4.78 107 4.5C107 4.22 107.22 4 107.5 4C107.78 4 108 4.22 108 4.5C108 4.78 107.78 5 107.5 5ZM108.5 5C108.22 5 108 4.78 108 4.5C108 4.22 108.22 4 108.5 4C108.78 4 109 4.22 109 4.5C109 4.78 108.78 5 108.5 5ZM104.5 5C104.22 5 104 4.78 104 4.5C104 4.22 104.22 4 104.5 4C104.78 4 105 4.22 105 4.5C105 4.78 104.78 5 104.5 5ZM106.5 6C106.22 6 106 5.78 106 5.5C106 5.22 106.22 5 106.5 5C106.78 5 107 5.22 107 5.5C107 5.78 106.78 6 106.5 6ZM103.5 6C103.22 6 103 5.78 103 5.5C103 5.22 103.22 5 103.5 5C103.78 5 104 5.22 104 5.5C104 5.78 103.78 6 103.5 6ZM105.5 6C105.22 6 105 5.78 105 5.5C105 5.22 105.22 5 105.5 5C105.78 5 106 5.22 106 5.5C106 5.78 105.78 6 105.5 6ZM109.5 6C109.22 6 109 5.78 109 5.5C109 5.22 109.22 5 109.5 5C109.78 5 110 5.22 110 5.5C110 5.78 109.78 6 109.5 6ZM108.5 6C108.22 6 108 5.78 108 5.5C108 5.22 108.22 5 108.5 5C108.78 5 109 5.22 109 5.5C109 5.78 108.78 6 108.5 6ZM107.5 6C107.22 6 107 5.78 107 5.5C107 5.22 107.22 5 107.5 5C107.78 5 108 5.22 108 5.5C108 5.78 107.78 6 107.5 6ZM104.5 6C104.22 6 104 5.78 104 5.5C104 5.22 104.22 5 104.5 5C104.78 5 105 5.22 105 5.5C105 5.78 104.78 6 104.5 6ZM104.5 7C104.22 7 104 6.78 104 6.5C104 6.22 104.22 6 104.5 6C104.78 6 105 6.22 105 6.5C105 6.78 104.78 7 104.5 7ZM110.5 7C110.22 7 110 6.78 110 6.5C110 6.22 110.22 6 110.5 6C110.78 6 111 6.22 111 6.5C111 6.78 110.78 7 110.5 7ZM102.5 7C102.22 7 102 6.78 102 6.5C102 6.22 102.22 6 102.5 6C102.78 6 103 6.22 103 6.5C103 6.78 102.78 7 102.5 7ZM103.5 7C103.22 7 103 6.78 103 6.5C103 6.22 103.22 6 103.5 6C103.78 6 104 6.22 104 6.5C104 6.78 103.78 7 103.5 7ZM109.5 7C109.22 7 109 6.78 109 6.5C109 6.22 109.22 6 109.5 6C109.78 6 110 6.22 110 6.5C110 6.78 109.78 7 109.5 7ZM103.5 8C103.22 8 103 7.78 103 7.5C103 7.22 103.22 7 103.5 7C103.78 7 104 7.22 104 7.5C104 7.78 103.78 8 103.5 8ZM102.5 8C102.22 8 102 7.78 102 7.5C102 7.22 102.22 7 102.5 7C102.78 7 103 7.22 103 7.5C103 7.78 102.78 8 102.5 8ZM106.5 9C106.22 9 106 8.78 106 8.5C106 8.22 106.22 8 106.5 8C106.78 8 107 8.22 107 8.5C107 8.78 106.78 9 106.5 9ZM107.5 9C107.22 9 107 8.78 107 8.5C107 8.22 107.22 8 107.5 8C107.78 8 108 8.22 108 8.5C108 8.78 107.78 9 107.5 9ZM108.5 9C108.22 9 108 8.78 108 8.5C108 8.22 108.22 8 108.5 8C108.78 8 109 8.22 109 8.5C109 8.78 108.78 9 108.5 9ZM109.5 9C109.22 9 109 8.78 109 8.5C109 8.22 109.22 8 109.5 8C109.78 8 110 8.22 110 8.5C110 8.78 109.78 9 109.5 9ZM110.5 9C110.22 9 110 8.78 110 8.5C110 8.22 110.22 8 110.5 8C110.78 8 111 8.22 111 8.5C111 8.78 110.78 9 110.5 9ZM103.5 9C103.22 9 103 8.78 103 8.5C103 8.22 103.22 8 103.5 8C103.78 8 104 8.22 104 8.5C104 8.78 103.78 9 103.5 9ZM102.5 9C102.22 9 102 8.78 102 8.5C102 8.22 102.22 8 102.5 8C102.78 8 103 8.22 103 8.5C103 8.78 102.78 9 102.5 9ZM102.5 10C102.22 10 102 9.78 102 9.5C102 9.22 102.22 9 102.5 9C102.78 9 103 9.22 103 9.5C103 9.78 102.78 10 102.5 10ZM103.5 10C103.22 10 103 9.78 103 9.5C103 9.22 103.22 9 103.5 9C103.78 9 104 9.22 104 9.5C104 9.78 103.78 10 103.5 10ZM108.5 10C108.22 10 108 9.78 108 9.5C108 9.22 108.22 9 108.5 9C108.78 9 109 9.22 109 9.5C109 9.78 108.78 10 108.5 10ZM109.5 10C109.22 10 109 9.78 109 9.5C109 9.22 109.22 9 109.5 9C109.78 9 110 9.22 110 9.5C110 9.78 109.78 10 109.5 10ZM107.5 10C107.22 10 107 9.78 107 9.5C107 9.22 107.22 9 107.5 9C107.78 9 108 9.22 108 9.5C108 9.78 107.78 10 107.5 10ZM110.5 10C110.22 10 110 9.78 110 9.5C110 9.22 110.22 9 110.5 9C110.78 9 111 9.22 111 9.5C111 9.78 110.78 10 110.5 10ZM106.5 10C106.22 10 106 9.78 106 9.5C106 9.22 106.22 9 106.5 9C106.78 9 107 9.22 107 9.5C107 9.78 106.78 10 106.5 10ZM103.5 11C103.22 11 103 10.78 103 10.5C103 10.22 103.22 10 103.5 10C103.78 10 104 10.22 104 10.5C104 10.78 103.78 11 103.5 11ZM110.5 11C110.22 11 110 10.78 110 10.5C110 10.22 110.22 10 110.5 10C110.78 10 111 10.22 111 10.5C111 10.78 110.78 11 110.5 11ZM109.5 11C109.22 11 109 10.78 109 10.5C109 10.22 109.22 10 109.5 10C109.78 10 110 10.22 110 10.5C110 10.78 109.78 11 109.5 11ZM102.5 11C102.22 11 102 10.78 102 10.5C102 10.22 102.22 10 102.5 10C102.78 10 103 10.22 103 10.5C103 10.78 102.78 11 102.5 11ZM104.5 12C104.22 12 104 11.78 104 11.5C104 11.22 104.22 11 104.5 11C104.78 11 105 11.22 105 11.5C105 11.78 104.78 12 104.5 12ZM110.5 12C110.22 12 110 11.78 110 11.5C110 11.22 110.22 11 110.5 11C110.78 11 111 11.22 111 11.5C111 11.78 110.78 12 110.5 12ZM102.5 12C102.22 12 102 11.78 102 11.5C102 11.22 102.22 11 102.5 11C102.78 11 103 11.22 103 11.5C103 11.78 102.78 12 102.5 12ZM109.5 12C109.22 12 109 11.78 109 11.5C109 11.22 109.22 11 109.5 11C109.78 11 110 11.22 110 11.5C110 11.78 109.78 12 109.5 12ZM103.5 12C103.22 12 103 11.78 103 11.5C103 11.22 103.22 11 103.5 11C103.78 11 104 11.22 104 11.5C104 11.78 103.78 12 103.5 12ZM108.5 12C108.22 12 108 11.78 108 11.5C108 11.22 108.22 11 108.5 11C108.78 11 109 11.22 109 11.5C109 11.78 108.78 12 108.5 12ZM104.5 13C104.22 13 104 12.78 104 12.5C104 12.22 104.22 12 104.5 12C104.78 12 105 12.22 105 12.5C105 12.78 104.78 13 104.5 13ZM107.5 13C107.22 13 107 12.78 107 12.5C107 12.22 107.22 12 107.5 12C107.78 12 108 12.22 108 12.5C108 12.78 107.78 13 107.5 13ZM108.5 13C108.22 13 108 12.78 108 12.5C108 12.22 108.22 12 108.5 12C108.78 12 109 12.22 109 12.5C109 12.78 108.78 13 108.5 13ZM110.5 13C110.22 13 110 12.78 110 12.5C110 12.22 110.22 12 110.5 12C110.78 12 111 12.22 111 12.5C111 12.78 110.78 13 110.5 13ZM105.5 13C105.22 13 105 12.78 105 12.5C105 12.22 105.22 12 105.5 12C105.78 12 106 12.22 106 12.5C106 12.78 105.78 13 105.5 13ZM109.5 13C109.22 13 109 12.78 109 12.5C109 12.22 109.22 12 109.5 12C109.78 12 110 12.22 110 12.5C110 12.78 109.78 13 109.5 13ZM106.5 13C106.22 13 106 12.78 106 12.5C106 12.22 106.22 12 106.5 12C106.78 12 107 12.22 107 12.5C107 12.78 106.78 13 106.5 13ZM103.5 13C103.22 13 103 12.78 103 12.5C103 12.22 103.22 12 103.5 12C103.78 12 104 12.22 104 12.5C104 12.78 103.78 13 103.5 13ZM110.5 14C110.22 14 110 13.78 110 13.5C110 13.22 110.22 13 110.5 13C110.78 13 111 13.22 111 13.5C111 13.78 110.78 14 110.5 14ZM104.5 14C104.22 14 104 13.78 104 13.5C104 13.22 104.22 13 104.5 13C104.78 13 105 13.22 105 13.5C105 13.78 104.78 14 104.5 14ZM105.5 14C105.22 14 105 13.78 105 13.5C105 13.22 105.22 13 105.5 13C105.78 13 106 13.22 106 13.5C106 13.78 105.78 14 105.5 14ZM107.5 14C107.22 14 107 13.78 107 13.5C107 13.22 107.22 13 107.5 13C107.78 13 108 13.22 108 13.5C108 13.78 107.78 14 107.5 14ZM108.5 14C108.22 14 108 13.78 108 13.5C108 13.22 108.22 13 108.5 13C108.78 13 109 13.22 109 13.5C109 13.78 108.78 14 108.5 14ZM106.5 14C106.22 14 106 13.78 106 13.5C106 13.22 106.22 13 106.5 13C106.78 13 107 13.22 107 13.5C107 13.78 106.78 14 106.5 14Z" fill="#FF7878"/>
<path d="M112.5 5C112.22 5 112 4.78 112 4.5C112 4.22 112.22 4 112.5 4C112.78 4 113 4.22 113 4.5C113 4.78 112.78 5 112.5 5ZM113.5 5C113.22 5 113 4.78 113 4.5C113 4.22 113.22 4 113.5 4C113.78 4 114 4.22 114 4.5C114 4.78 113.78 5 113.5 5ZM113.5 6C113.22 6 113 5.78 113 5.5C113 5.22 113.22 5 113.5 5C113.78 5 114 5.22 114 5.5C114 5.78 113.78 6 113.5 6ZM112.5 6C112.22 6 112 5.78 112 5.5C112 5.22 112.22 5 112.5 5C112.78 5 113 5.22 113 5.5C113 5.78 112.78 6 112.5 6ZM113.5 7C113.22 7 113 6.78 113 6.5C113 6.22 113.22 6 113.5 6C113.78 6 114 6.22 114 6.5C114 6.78 113.78 7 113.5 7ZM112.5 7C112.22 7 112 6.78 112 6.5C112 6.22 112.22 6 112.5 6C112.78 6 113 6.22 113 6.5C113 6.78 112.78 7 112.5 7ZM112.5 8C112.22 8 112 7.78 112 7.5C112 7.22 112.22 7 112.5 7C112.78 7 113 7.22 113 7.5C113 7.78 112.78 8 112.5 8ZM113.5 8C113.22 8 113 7.78 113 7.5C113 7.22 113.22 7 113.5 7C113.78 7 114 7.22 114 7.5C114 7.78 113.78 8 113.5 8ZM113.5 9C113.22 9 113 8.78 113 8.5C113 8.22 113.22 8 113.5 8C113.78 8 114 8.22 114 8.5C114 8.78 113.78 9 113.5 9ZM112.5 9C112.22 9 112 8.78 112 8.5C112 8.22 112.22 8 112.5 8C112.78 8 113 8.22 113 8.5C113 8.78 112.78 9 112.5 9ZM113.5 10C113.22 10 113 9.78 113 9.5C113 9.22 113.22 9 113.5 9C113.78 9 114 9.22 114 9.5C114 9.78 113.78 10 113.5 10ZM112.5 10C112.22 10 112 9.78 112 9.5C112 9.22 112.22 9 112.5 9C112.78 9 113 9.22 113 9.5C113 9.78 112.78 10 112.5 10ZM112.5 11C112.22 11 112 10.78 112 10.5C112 10.22 112.22 10 112.5 10C112.78 10 113 10.22 113 10.5C113 10.78 112.78 11 112.5 11ZM113.5 11C113.22 11 113 10.78 113 10.5C113 10.22 113.22 10 113.5 10C113.78 10 114 10.22 114 10.5C114 10.78 113.78 11 113.5 11ZM113.5 12C113.22 12 113 11.78 113 11.5C113 11.22 113.22 11 113.5 11C113.78 11 114 11.22 114 11.5C114 11.78 113.78 12 113.5 12ZM112.5 12C112.22 12 112 11.78 112 11.5C112 11.22 112.22 11 112.5 11C112.78 11 113 11.22 113 11.5C113 11.78 112.78 12 112.5 12ZM113.5 13C113.22 13 113 12.78 113 12.5C113 12.22 113.22 12 113.5 12C113.78 12 114 12.22 114 12.5C114 12.78 113.78 13 113.5 13ZM112.5 13C112.22 13 112 12.78 112 12.5C112 12.22 112.22 12 112.5 12C112.78 12 113 12.22 113 12.5C113 12.78 112.78 13 112.5 13ZM113.5 14C113.22 14 113 13.78 113 13.5C113 13.22 113.22 13 113.5 13C113.78 13 114 13.22 114 13.5C114 13.78 113.78 14 113.5 14ZM112.5 14C112.22 14 112 13.78 112 13.5C112 13.22 112.22 13 112.5 13C112.78 13 113 13.22 113 13.5C113 13.78 112.78 14 112.5 14Z" fill="#FF7878"/>
<path d="M120.5 5C120.22 5 120 4.78 120 4.5C120 4.22 120.22 4 120.5 4C120.78 4 121 4.22 121 4.5C121 4.78 120.78 5 120.5 5ZM117.5 5C117.22 5 117 4.78 117 4.5C117 4.22 117.22 4 117.5 4C117.78 4 118 4.22 118 4.5C118 4.78 117.78 5 117.5 5ZM118.5 5C118.22 5 118 4.78 118 4.5C118 4.22 118.22 4 118.5 4C118.78 4 119 4.22 119 4.5C119 4.78 118.78 5 118.5 5ZM119.5 5C119.22 5 119 4.78 119 4.5C119 4.22 119.22 4 119.5 4C119.78 4 120 4.22 120 4.5C120 4.78 119.78 5 119.5 5ZM116.5 5C116.22 5 116 4.78 116 4.5C116 4.22 116.22 4 116.5 4C116.78 4 117 4.22 117 4.5C117 4.78 116.78 5 116.5 5ZM121.5 6C121.22 6 121 5.78 121 5.5C121 5.22 121.22 5 121.5 5C121.78 5 122 5.22 122 5.5C122 5.78 121.78 6 121.5 6ZM118.5 6C118.22 6 118 5.78 118 5.5C118 5.22 118.22 5 118.5 5C118.78 5 119 5.22 119 5.5C119 5.78 118.78 6 118.5 6ZM117.5 6C117.22 6 117 5.78 117 5.5C117 5.22 117.22 5 117.5 5C117.78 5 118 5.22 118 5.5C118 5.78 117.78 6 117.5 6ZM116.5 6C116.22 6 116 5.78 116 5.5C116 5.22 116.22 5 116.5 5C116.78 5 117 5.22 117 5.5C117 5.78 116.78 6 116.5 6ZM115.5 6C115.22 6 115 5.78 115 5.5C115 5.22 115.22 5 115.5 5C115.78 5 116 5.22 116 5.5C116 5.78 115.78 6 115.5 6ZM119.5 6C119.22 6 119 5.78 119 5.5C119 5.22 119.22 5 119.5 5C119.78 5 120 5.22 120 5.5C120 5.78 119.78 6 119.5 6ZM120.5 6C120.22 6 120 5.78 120 5.5C120 5.22 120.22 5 120.5 5C120.78 5 121 5.22 121 5.5C121 5.78 120.78 6 120.5 6ZM120.5 7C120.22 7 120 6.78 120 6.5C120 6.22 120.22 6 120.5 6C120.78 6 121 6.22 121 6.5C121 6.78 120.78 7 120.5 7ZM116.5 7C116.22 7 116 6.78 116 6.5C116 6.22 116.22 6 116.5 6C116.78 6 117 6.22 117 6.5C117 6.78 116.78 7 116.5 7ZM121.5 7C121.22 7 121 6.78 121 6.5C121 6.22 121.22 6 121.5 6C121.78 6 122 6.22 122 6.5C122 6.78 121.78 7 121.5 7ZM115.5 7C115.22 7 115 6.78 115 6.5C115 6.22 115.22 6 115.5 6C115.78 6 116 6.22 116 6.5C116 6.78 115.78 7 115.5 7ZM117.5 8C117.22 8 117 7.78 117 7.5C117 7.22 117.22 7 117.5 7C117.78 7 118 7.22 118 7.5C118 7.78 117.78 8 117.5 8ZM116.5 8C116.22 8 116 7.78 116 7.5C116 7.22 116.22 7 116.5 7C116.78 7 117 7.22 117 7.5C117 7.78 116.78 8 116.5 8ZM115.5 8C115.22 8 115 7.78 115 7.5C115 7.22 115.22 7 115.5 7C115.78 7 116 7.22 116 7.5C116 7.78 115.78 8 115.5 8ZM119.5 9C119.22 9 119 8.78 119 8.5C119 8.22 119.22 8 119.5 8C119.78 8 120 8.22 120 8.5C120 8.78 119.78 9 119.5 9ZM116.5 9C116.22 9 116 8.78 116 8.5C116 8.22 116.22 8 116.5 8C116.78 8 117 8.22 117 8.5C117 8.78 116.78 9 116.5 9ZM117.5 9C117.22 9 117 8.78 117 8.5C117 8.22 117.22 8 117.5 8C117.78 8 118 8.22 118 8.5C118 8.78 117.78 9 117.5 9ZM118.5 9C118.22 9 118 8.78 118 8.5C118 8.22 118.22 8 118.5 8C118.78 8 119 8.22 119 8.5C119 8.78 118.78 9 118.5 9ZM120.5 10C120.22 10 120 9.78 120 9.5C120 9.22 120.22 9 120.5 9C120.78 9 121 9.22 121 9.5C121 9.78 120.78 10 120.5 10ZM117.5 10C117.22 10 117 9.78 117 9.5C117 9.22 117.22 9 117.5 9C117.78 9 118 9.22 118 9.5C118 9.78 117.78 10 117.5 10ZM119.5 10C119.22 10 119 9.78 119 9.5C119 9.22 119.22 9 119.5 9C119.78 9 120 9.22 120 9.5C120 9.78 119.78 10 119.5 10ZM118.5 10C118.22 10 118 9.78 118 9.5C118 9.22 118.22 9 118.5 9C118.78 9 119 9.22 119 9.5C119 9.78 118.78 10 118.5 10ZM120.5 11C120.22 11 120 10.78 120 10.5C120 10.22 120.22 10 120.5 10C120.78 10 121 10.22 121 10.5C121 10.78 120.78 11 120.5 11ZM119.5 11C119.22 11 119 10.78 119 10.5C119 10.22 119.22 10 119.5 10C119.78 10 120 10.22 120 10.5C120 10.78 119.78 11 119.5 11ZM121.5 11C121.22 11 121 10.78 121 10.5C121 10.22 121.22 10 121.5 10C121.78 10 122 10.22 122 10.5C122 10.78 121.78 11 121.5 11ZM120.5 12C120.22 12 120 11.78 120 11.5C120 11.22 120.22 11 120.5 11C120.78 11 121 11.22 121 11.5C121 11.78 120.78 12 120.5 12ZM121.5 12C121.22 12 121 11.78 121 11.5C121 11.22 121.22 11 121.5 11C121.78 11 122 11.22 122 11.5C122 11.78 121.78 12 121.5 12ZM115.5 12C115.22 12 115 11.78 115 11.5C115 11.22 115.22 11 115.5 11C115.78 11 116 11.22 116 11.5C116 11.78 115.78 12 115.5 12ZM116.5 12C116.22 12 116 11.78 116 11.5C116 11.22 116.22 11 116.5 11C116.78 11 117 11.22 117 11.5C117 11.78 116.78 12 116.5 12ZM117.5 13C117.22 13 117 12.78 117 12.5C117 12.22 117.22 12 117.5 12C117.78 12 118 12.22 118 12.5C118 12.78 117.78 13 117.5 13ZM121.5 13C121.22 13 121 12.78 121 12.5C121 12.22 121.22 12 121.5 12C121.78 12 122 12.22 122 12.5C122 12.78 121.78 13 121.5 13ZM120.5 13C120.22 13 120 12.78 120 12.5C120 12.22 120.22 12 120.5 12C120.78 12 121 12.22 121 12.5C121 12.78 120.78 13 120.5 13ZM119.5 13C119.22 13 119 12.78 119 12.5C119 12.22 119.22 12 119.5 12C119.78 12 120 12.22 120 12.5C120 12.78 119.78 13 119.5 13ZM116.5 13C116.22 13 116 12.78 116 12.5C116 12.22 116.22 12 116.5 12C116.78 12 117 12.22 117 12.5C117 12.78 116.78 13 116.5 13ZM115.5 13C115.22 13 115 12.78 115 12.5C115 12.22 115.22 12 115.5 12C115.78 12 116 12.22 116 12.5C116 12.78 115.78 13 115.5 13ZM118.5 13C118.22 13 118 12.78 118 12.5C118 12.22 118.22 12 118.5 12C118.78 12 119 12.22 119 12.5C119 12.78 118.78 13 118.5 13ZM117.5 14C117.22 14 117 13.78 117 13.5C117 13.22 117.22 13 117.5 13C117.78 13 118 13.22 118 13.5C118 13.78 117.78 14 117.5 14ZM119.5 14C119.22 14 119 13.78 119 13.5C119 13.22 119.22 13 119.5 13C119.78 13 120 13.22 120 13.5C120 13.78 119.78 14 119.5 14ZM116.5 14C116.22 14 116 13.78 116 13.5C116 13.22 116.22 13 116.5 13C116.78 13 117 13.22 117 13.5C117 13.78 116.78 14 116.5 14ZM118.5 14C118.22 14 118 13.78 118 13.5C118 13.22 118.22 13 118.5 13C118.78 13 119 13.22 119 13.5C119 13.78 118.78 14 118.5 14ZM120.5 14C120.22 14 120 13.78 120 13.5C120 13.22 120.22 13 120.5 13C120.78 13 121 13.22 121 13.5C121 13.78 120.78 14 120.5 14Z" fill="#FF7878"/>
<path d="M124.5 5C124.22 5 124 4.78 124 4.5C124 4.22 124.22 4 124.5 4C124.78 4 125 4.22 125 4.5C125 4.78 124.78 5 124.5 5ZM123.5 5C123.22 5 123 4.78 123 4.5C123 4.22 123.22 4 123.5 4C123.78 4 124 4.22 124 4.5C124 4.78 123.78 5 123.5 5ZM125.5 5C125.22 5 125 4.78 125 4.5C125 4.22 125.22 4 125.5 4C125.78 4 126 4.22 126 4.5C126 4.78 125.78 5 125.5 5ZM129.5 5C129.22 5 129 4.78 129 4.5C129 4.22 129.22 4 129.5 4C129.78 4 130 4.22 130 4.5C130 4.78 129.78 5 129.5 5ZM130.5 5C130.22 5 130 4.78 130 4.5C130 4.22 130.22 4 130.5 4C130.78 4 131 4.22 131 4.5C131 4.78 130.78 5 130.5 5ZM126.5 5C126.22 5 126 4.78 126 4.5C126 4.22 126.22 4 126.5 4C126.78 4 127 4.22 127 4.5C127 4.78 126.78 5 126.5 5ZM127.5 5C127.22 5 127 4.78 127 4.5C127 4.22 127.22 4 127.5 4C127.78 4 128 4.22 128 4.5C128 4.78 127.78 5 127.5 5ZM128.5 5C128.22 5 128 4.78 128 4.5C128 4.22 128.22 4 128.5 4C128.78 4 129 4.22 129 4.5C129 4.78 128.78 5 128.5 5ZM123.5 6C123.22 6 123 5.78 123 5.5C123 5.22 123.22 5 123.5 5C123.78 5 124 5.22 124 5.5C124 5.78 123.78 6 123.5 6ZM124.5 6C124.22 6 124 5.78 124 5.5C124 5.22 124.22 5 124.5 5C124.78 5 125 5.22 125 5.5C125 5.78 124.78 6 124.5 6ZM125.5 6C125.22 6 125 5.78 125 5.5C125 5.22 125.22 5 125.5 5C125.78 5 126 5.22 126 5.5C126 5.78 125.78 6 125.5 6ZM130.5 6C130.22 6 130 5.78 130 5.5C130 5.22 130.22 5 130.5 5C130.78 5 131 5.22 131 5.5C131 5.78 130.78 6 130.5 6ZM129.5 6C129.22 6 129 5.78 129 5.5C129 5.22 129.22 5 129.5 5C129.78 5 130 5.22 130 5.5C130 5.78 129.78 6 129.5 6ZM127.5 6C127.22 6 127 5.78 127 5.5C127 5.22 127.22 5 127.5 5C127.78 5 128 5.22 128 5.5C128 5.78 127.78 6 127.5 6ZM126.5 6C126.22 6 126 5.78 126 5.5C126 5.22 126.22 5 126.5 5C126.78 5 127 5.22 127 5.5C127 5.78 126.78 6 126.5 6ZM128.5 6C128.22 6 128 5.78 128 5.5C128 5.22 128.22 5 128.5 5C128.78 5 129 5.22 129 5.5C129 5.78 128.78 6 128.5 6ZM126.5 7C126.22 7 126 6.78 126 6.5C126 6.22 126.22 6 126.5 6C126.78 6 127 6.22 127 6.5C127 6.78 126.78 7 126.5 7ZM127.5 7C127.22 7 127 6.78 127 6.5C127 6.22 127.22 6 127.5 6C127.78 6 128 6.22 128 6.5C128 6.78 127.78 7 127.5 7ZM127.5 8C127.22 8 127 7.78 127 7.5C127 7.22 127.22 7 127.5 7C127.78 7 128 7.22 128 7.5C128 7.78 127.78 8 127.5 8ZM126.5 8C126.22 8 126 7.78 126 7.5C126 7.22 126.22 7 126.5 7C126.78 7 127 7.22 127 7.5C127 7.78 126.78 8 126.5 8ZM126.5 9C126.22 9 126 8.78 126 8.5C126 8.22 126.22 8 126.5 8C126.78 8 127 8.22 127 8.5C127 8.78 126.78 9 126.5 9ZM127.5 9C127.22 9 127 8.78 127 8.5C127 8.22 127.22 8 127.5 8C127.78 8 128 8.22 128 8.5C128 8.78 127.78 9 127.5 9ZM127.5 10C127.22 10 127 9.78 127 9.5C127 9.22 127.22 9 127.5 9C127.78 9 128 9.22 128 9.5C128 9.78 127.78 10 127.5 10ZM126.5 10C126.22 10 126 9.78 126 9.5C126 9.22 126.22 9 126.5 9C126.78 9 127 9.22 127 9.5C127 9.78 126.78 10 126.5 10ZM127.5 11C127.22 11 127 10.78 127 10.5C127 10.22 127.22 10 127.5 10C127.78 10 128 10.22 128 10.5C128 10.78 127.78 11 127.5 11ZM126.5 11C126.22 11 126 10.78 126 10.5C126 10.22 126.22 10 126.5 10C126.78 10 127 10.22 127 10.5C127 10.78 126.78 11 126.5 11ZM127.5 12C127.22 12 127 11.78 127 11.5C127 11.22 127.22 11 127.5 11C127.78 11 128 11.22 128 11.5C128 11.78 127.78 12 127.5 12ZM126.5 12C126.22 12 126 11.78 126 11.5C126 11.22 126.22 11 126.5 11C126.78 11 127 11.22 127 11.5C127 11.78 126.78 12 126.5 12ZM127.5 13C127.22 13 127 12.78 127 12.5C127 12.22 127.22 12 127.5 12C127.78 12 128 12.22 128 12.5C128 12.78 127.78 13 127.5 13ZM126.5 13C126.22 13 126 12.78 126 12.5C126 12.22 126.22 12 126.5 12C126.78 12 127 12.22 127 12.5C127 12.78 126.78 13 126.5 13ZM126.5 14C126.22 14 126 13.78 126 13.5C126 13.22 126.22 13 126.5 13C126.78 13 127 13.22 127 13.5C127 13.78 126.78 14 126.5 14ZM127.5 14C127.22 14 127 13.78 127 13.5C127 13.22 127.22 13 127.5 13C127.78 13 128 13.22 128 13.5C128 13.78 127.78 14 127.5 14Z" fill="#FF7878"/>
<path d="M134.5 5C134.22 5 134 4.78 134 4.5C134 4.22 134.22 4 134.5 4C134.78 4 135 4.22 135 4.5C135 4.78 134.78 5 134.5 5ZM135.5 5C135.22 5 135 4.78 135 4.5C135 4.22 135.22 4 135.5 4C135.78 4 136 4.22 136 4.5C136 4.78 135.78 5 135.5 5ZM136.5 5C136.22 5 136 4.78 136 4.5C136 4.22 136.22 4 136.5 4C136.78 4 137 4.22 137 4.5C137 4.78 136.78 5 136.5 5ZM137.5 5C137.22 5 137 4.78 137 4.5C137 4.22 137.22 4 137.5 4C137.78 4 138 4.22 138 4.5C138 4.78 137.78 5 137.5 5ZM133.5 5C133.22 5 133 4.78 133 4.5C133 4.22 133.22 4 133.5 4C133.78 4 134 4.22 134 4.5C134 4.78 133.78 5 133.5 5ZM132.5 5C132.22 5 132 4.78 132 4.5C132 4.22 132.22 4 132.5 4C132.78 4 133 4.22 133 4.5C133 4.78 132.78 5 132.5 5ZM136.5 6C136.22 6 136 5.78 136 5.5C136 5.22 136.22 5 136.5 5C136.78 5 137 5.22 137 5.5C137 5.78 136.78 6 136.5 6ZM132.5 6C132.22 6 132 5.78 132 5.5C132 5.22 132.22 5 132.5 5C132.78 5 133 5.22 133 5.5C133 5.78 132.78 6 132.5 6ZM137.5 6C137.22 6 137 5.78 137 5.5C137 5.22 137.22 5 137.5 5C137.78 5 138 5.22 138 5.5C138 5.78 137.78 6 137.5 6ZM133.5 6C133.22 6 133 5.78 133 5.5C133 5.22 133.22 5 133.5 5C133.78 5 134 5.22 134 5.5C134 5.78 133.78 6 133.5 6ZM134.5 6C134.22 6 134 5.78 134 5.5C134 5.22 134.22 5 134.5 5C134.78 5 135 5.22 135 5.5C135 5.78 134.78 6 134.5 6ZM135.5 6C135.22 6 135 5.78 135 5.5C135 5.22 135.22 5 135.5 5C135.78 5 136 5.22 136 5.5C136 5.78 135.78 6 135.5 6ZM133.5 7C133.22 7 133 6.78 133 6.5C133 6.22 133.22 6 133.5 6C133.78 6 134 6.22 134 6.5C134 6.78 133.78 7 133.5 7ZM132.5 7C132.22 7 132 6.78 132 6.5C132 6.22 132.22 6 132.5 6C132.78 6 133 6.22 133 6.5C133 6.78 132.78 7 132.5 7ZM132.5 8C132.22 8 132 7.78 132 7.5C132 7.22 132.22 7 132.5 7C132.78 7 133 7.22 133 7.5C133 7.78 132.78 8 132.5 8ZM133.5 8C133.22 8 133 7.78 133 7.5C133 7.22 133.22 7 133.5 7C133.78 7 134 7.22 134 7.5C134 7.78 133.78 8 133.5 8ZM137.5 9C137.22 9 137 8.78 137 8.5C137 8.22 137.22 8 137.5 8C137.78 8 138 8.22 138 8.5C138 8.78 137.78 9 137.5 9ZM133.5 9C133.22 9 133 8.78 133 8.5C133 8.22 133.22 8 133.5 8C133.78 8 134 8.22 134 8.5C134 8.78 133.78 9 133.5 9ZM134.5 9C134.22 9 134 8.78 134 8.5C134 8.22 134.22 8 134.5 8C134.78 8 135 8.22 135 8.5C135 8.78 134.78 9 134.5 9ZM135.5 9C135.22 9 135 8.78 135 8.5C135 8.22 135.22 8 135.5 8C135.78 8 136 8.22 136 8.5C136 8.78 135.78 9 135.5 9ZM136.5 9C136.22 9 136 8.78 136 8.5C136 8.22 136.22 8 136.5 8C136.78 8 137 8.22 137 8.5C137 8.78 136.78 9 136.5 9ZM132.5 9C132.22 9 132 8.78 132 8.5C132 8.22 132.22 8 132.5 8C132.78 8 133 8.22 133 8.5C133 8.78 132.78 9 132.5 9ZM137.5 10C137.22 10 137 9.78 137 9.5C137 9.22 137.22 9 137.5 9C137.78 9 138 9.22 138 9.5C138 9.78 137.78 10 137.5 10ZM132.5 10C132.22 10 132 9.78 132 9.5C132 9.22 132.22 9 132.5 9C132.78 9 133 9.22 133 9.5C133 9.78 132.78 10 132.5 10ZM136.5 10C136.22 10 136 9.78 136 9.5C136 9.22 136.22 9 136.5 9C136.78 9 137 9.22 137 9.5C137 9.78 136.78 10 136.5 10ZM135.5 10C135.22 10 135 9.78 135 9.5C135 9.22 135.22 9 135.5 9C135.78 9 136 9.22 136 9.5C136 9.78 135.78 10 135.5 10ZM134.5 10C134.22 10 134 9.78 134 9.5C134 9.22 134.22 9 134.5 9C134.78 9 135 9.22 135 9.5C135 9.78 134.78 10 134.5 10ZM133.5 10C133.22 10 133 9.78 133 9.5C133 9.22 133.22 9 133.5 9C133.78 9 134 9.22 134 9.5C134 9.78 133.78 10 133.5 10ZM132.5 11C132.22 11 132 10.78 132 10.5C132 10.22 132.22 10 132.5 10C132.78 10 133 10.22 133 10.5C133 10.78 132.78 11 132.5 11ZM133.5 11C133.22 11 133 10.78 133 10.5C133 10.22 133.22 10 133.5 10C133.78 10 134 10.22 134 10.5C134 10.78 133.78 11 133.5 11ZM132.5 12C132.22 12 132 11.78 132 11.5C132 11.22 132.22 11 132.5 11C132.78 11 133 11.22 133 11.5C133 11.78 132.78 12 132.5 12ZM133.5 12C133.22 12 133 11.78 133 11.5C133 11.22 133.22 11 133.5 11C133.78 11 134 11.22 134 11.5C134 11.78 133.78 12 133.5 12ZM133.5 13C133.22 13 133 12.78 133 12.5C133 12.22 133.22 12 133.5 12C133.78 12 134 12.22 134 12.5C134 12.78 133.78 13 133.5 13ZM137.5 13C137.22 13 137 12.78 137 12.5C137 12.22 137.22 12 137.5 12C137.78 12 138 12.22 138 12.5C138 12.78 137.78 13 137.5 13ZM136.5 13C136.22 13 136 12.78 136 12.5C136 12.22 136.22 12 136.5 12C136.78 12 137 12.22 137 12.5C137 12.78 136.78 13 136.5 13ZM135.5 13C135.22 13 135 12.78 135 12.5C135 12.22 135.22 12 135.5 12C135.78 12 136 12.22 136 12.5C136 12.78 135.78 13 135.5 13ZM134.5 13C134.22 13 134 12.78 134 12.5C134 12.22 134.22 12 134.5 12C134.78 12 135 12.22 135 12.5C135 12.78 134.78 13 134.5 13ZM132.5 13C132.22 13 132 12.78 132 12.5C132 12.22 132.22 12 132.5 12C132.78 12 133 12.22 133 12.5C133 12.78 132.78 13 132.5 13ZM133.5 14C133.22 14 133 13.78 133 13.5C133 13.22 133.22 13 133.5 13C133.78 13 134 13.22 134 13.5C134 13.78 133.78 14 133.5 14ZM134.5 14C134.22 14 134 13.78 134 13.5C134 13.22 134.22 13 134.5 13C134.78 13 135 13.22 135 13.5C135 13.78 134.78 14 134.5 14ZM135.5 14C135.22 14 135 13.78 135 13.5C135 13.22 135.22 13 135.5 13C135.78 13 136 13.22 136 13.5C136 13.78 135.78 14 135.5 14ZM136.5 14C136.22 14 136 13.78 136 13.5C136 13.22 136.22 13 136.5 13C136.78 13 137 13.22 137 13.5C137 13.78 136.78 14 136.5 14ZM137.5 14C137.22 14 137 13.78 137 13.5C137 13.22 137.22 13 137.5 13C137.78 13 138 13.22 138 13.5C138 13.78 137.78 14 137.5 14ZM132.5 14C132.22 14 132 13.78 132 13.5C132 13.22 132.22 13 132.5 13C132.78 13 133 13.22 133 13.5C133 13.78 132.78 14 132.5 14Z" fill="#FF7878"/>
<path d="M143.5 5C143.22 5 143 4.78 143 4.5C143 4.22 143.22 4 143.5 4C143.78 4 144 4.22 144 4.5C144 4.78 143.78 5 143.5 5ZM142.5 5C142.22 5 142 4.78 142 4.5C142 4.22 142.22 4 142.5 4C142.78 4 143 4.22 143 4.5C143 4.78 142.78 5 142.5 5ZM141.5 5C141.22 5 141 4.78 141 4.5C141 4.22 141.22 4 141.5 4C141.78 4 142 4.22 142 4.5C142 4.78 141.78 5 141.5 5ZM140.5 5C140.22 5 140 4.78 140 4.5C140 4.22 140.22 4 140.5 4C140.78 4 141 4.22 141 4.5C141 4.78 140.78 5 140.5 5ZM139.5 5C139.22 5 139 4.78 139 4.5C139 4.22 139.22 4 139.5 4C139.78 4 140 4.22 140 4.5C140 4.78 139.78 5 139.5 5ZM144.5 6C144.22 6 144 5.78 144 5.5C144 5.22 144.22 5 144.5 5C144.78 5 145 5.22 145 5.5C145 5.78 144.78 6 144.5 6ZM140.5 6C140.22 6 140 5.78 140 5.5C140 5.22 140.22 5 140.5 5C140.78 5 141 5.22 141 5.5C141 5.78 140.78 6 140.5 6ZM139.5 6C139.22 6 139 5.78 139 5.5C139 5.22 139.22 5 139.5 5C139.78 5 140 5.22 140 5.5C140 5.78 139.78 6 139.5 6ZM141.5 6C141.22 6 141 5.78 141 5.5C141 5.22 141.22 5 141.5 5C141.78 5 142 5.22 142 5.5C142 5.78 141.78 6 141.5 6ZM143.5 6C143.22 6 143 5.78 143 5.5C143 5.22 143.22 5 143.5 5C143.78 5 144 5.22 144 5.5C144 5.78 143.78 6 143.5 6ZM142.5 6C142.22 6 142 5.78 142 5.5C142 5.22 142.22 5 142.5 5C142.78 5 143 5.22 143 5.5C143 5.78 142.78 6 142.5 6ZM140.5 7C140.22 7 140 6.78 140 6.5C140 6.22 140.22 6 140.5 6C140.78 6 141 6.22 141 6.5C141 6.78 140.78 7 140.5 7ZM139.5 7C139.22 7 139 6.78 139 6.5C139 6.22 139.22 6 139.5 6C139.78 6 140 6.22 140 6.5C140 6.78 139.78 7 139.5 7ZM144.5 7C144.22 7 144 6.78 144 6.5C144 6.22 144.22 6 144.5 6C144.78 6 145 6.22 145 6.5C145 6.78 144.78 7 144.5 7ZM145.5 7C145.22 7 145 6.78 145 6.5C145 6.22 145.22 6 145.5 6C145.78 6 146 6.22 146 6.5C146 6.78 145.78 7 145.5 7ZM139.5 8C139.22 8 139 7.78 139 7.5C139 7.22 139.22 7 139.5 7C139.78 7 140 7.22 140 7.5C140 7.78 139.78 8 139.5 8ZM140.5 8C140.22 8 140 7.78 140 7.5C140 7.22 140.22 7 140.5 7C140.78 7 141 7.22 141 7.5C141 7.78 140.78 8 140.5 8ZM144.5 8C144.22 8 144 7.78 144 7.5C144 7.22 144.22 7 144.5 7C144.78 7 145 7.22 145 7.5C145 7.78 144.78 8 144.5 8ZM145.5 8C145.22 8 145 7.78 145 7.5C145 7.22 145.22 7 145.5 7C145.78 7 146 7.22 146 7.5C146 7.78 145.78 8 145.5 8ZM140.5 9C140.22 9 140 8.78 140 8.5C140 8.22 140.22 8 140.5 8C140.78 8 141 8.22 141 8.5C141 8.78 140.78 9 140.5 9ZM139.5 9C139.22 9 139 8.78 139 8.5C139 8.22 139.22 8 139.5 8C139.78 8 140 8.22 140 8.5C140 8.78 139.78 9 139.5 9ZM144.5 9C144.22 9 144 8.78 144 8.5C144 8.22 144.22 8 144.5 8C144.78 8 145 8.22 145 8.5C145 8.78 144.78 9 144.5 9ZM145.5 9C145.22 9 145 8.78 145 8.5C145 8.22 145.22 8 145.5 8C145.78 8 146 8.22 146 8.5C146 8.78 145.78 9 145.5 9ZM140.5 10C140.22 10 140 9.78 140 9.5C140 9.22 140.22 9 140.5 9C140.78 9 141 9.22 141 9.5C141 9.78 140.78 10 140.5 10ZM139.5 10C139.22 10 139 9.78 139 9.5C139 9.22 139.22 9 139.5 9C139.78 9 140 9.22 140 9.5C140 9.78 139.78 10 139.5 10ZM141.5 10C141.22 10 141 9.78 141 9.5C141 9.22 141.22 9 141.5 9C141.78 9 142 9.22 142 9.5C142 9.78 141.78 10 141.5 10ZM142.5 10C142.22 10 142 9.78 142 9.5C142 9.22 142.22 9 142.5 9C142.78 9 143 9.22 143 9.5C143 9.78 142.78 10 142.5 10ZM144.5 10C144.22 10 144 9.78 144 9.5C144 9.22 144.22 9 144.5 9C144.78 9 145 9.22 145 9.5C145 9.78 144.78 10 144.5 10ZM143.5 10C143.22 10 143 9.78 143 9.5C143 9.22 143.22 9 143.5 9C143.78 9 144 9.22 144 9.5C144 9.78 143.78 10 143.5 10ZM141.5 11C141.22 11 141 10.78 141 10.5C141 10.22 141.22 10 141.5 10C141.78 10 142 10.22 142 10.5C142 10.78 141.78 11 141.5 11ZM142.5 11C142.22 11 142 10.78 142 10.5C142 10.22 142.22 10 142.5 10C142.78 10 143 10.22 143 10.5C143 10.78 142.78 11 142.5 11ZM143.5 11C143.22 11 143 10.78 143 10.5C143 10.22 143.22 10 143.5 10C143.78 10 144 10.22 144 10.5C144 10.78 143.78 11 143.5 11ZM140.5 11C140.22 11 140 10.78 140 10.5C140 10.22 140.22 10 140.5 10C140.78 10 141 10.22 141 10.5C141 10.78 140.78 11 140.5 11ZM139.5 11C139.22 11 139 10.78 139 10.5C139 10.22 139.22 10 139.5 10C139.78 10 140 10.22 140 10.5C140 10.78 139.78 11 139.5 11ZM142.5 12C142.22 12 142 11.78 142 11.5C142 11.22 142.22 11 142.5 11C142.78 11 143 11.22 143 11.5C143 11.78 142.78 12 142.5 12ZM143.5 12C143.22 12 143 11.78 143 11.5C143 11.22 143.22 11 143.5 11C143.78 11 144 11.22 144 11.5C144 11.78 143.78 12 143.5 12ZM144.5 12C144.22 12 144 11.78 144 11.5C144 11.22 144.22 11 144.5 11C144.78 11 145 11.22 145 11.5C145 11.78 144.78 12 144.5 12ZM139.5 12C139.22 12 139 11.78 139 11.5C139 11.22 139.22 11 139.5 11C139.78 11 140 11.22 140 11.5C140 11.78 139.78 12 139.5 12ZM140.5 12C140.22 12 140 11.78 140 11.5C140 11.22 140.22 11 140.5 11C140.78 11 141 11.22 141 11.5C141 11.78 140.78 12 140.5 12ZM143.5 13C143.22 13 143 12.78 143 12.5C143 12.22 143.22 12 143.5 12C143.78 12 144 12.22 144 12.5C144 12.78 143.78 13 143.5 13ZM144.5 13C144.22 13 144 12.78 144 12.5C144 12.22 144.22 12 144.5 12C144.78 12 145 12.22 145 12.5C145 12.78 144.78 13 144.5 13ZM145.5 13C145.22 13 145 12.78 145 12.5C145 12.22 145.22 12 145.5 12C145.78 12 146 12.22 146 12.5C146 12.78 145.78 13 145.5 13ZM139.5 13C139.22 13 139 12.78 139 12.5C139 12.22 139.22 12 139.5 12C139.78 12 140 12.22 140 12.5C140 12.78 139.78 13 139.5 13ZM140.5 13C140.22 13 140 12.78 140 12.5C140 12.22 140.22 12 140.5 12C140.78 12 141 12.22 141 12.5C141 12.78 140.78 13 140.5 13ZM144.5 14C144.22 14 144 13.78 144 13.5C144 13.22 144.22 13 144.5 13C144.78 13 145 13.22 145 13.5C145 13.78 144.78 14 144.5 14ZM145.5 14C145.22 14 145 13.78 145 13.5C145 13.22 145.22 13 145.5 13C145.78 13 146 13.22 146 13.5C146 13.78 145.78 14 145.5 14ZM139.5 14C139.22 14 139 13.78 139 13.5C139 13.22 139.22 13 139.5 13C139.78 13 140 13.22 140 13.5C140 13.78 139.78 14 139.5 14ZM140.5 14C140.22 14 140 13.78 140 13.5C140 13.22 140.22 13 140.5 13C140.78 13 141 13.22 141 13.5C141 13.78 140.78 14 140.5 14ZM146.5 14C146.22 14 146 13.78 146 13.5C146 13.22 146.22 13 146.5 13C146.78 13 147 13.22 147 13.5C147 13.78 146.78 14 146.5 14Z" fill="#FF7878"/>
<path d="M151.5 5C151.22 5 151 4.78 151 4.5C151 4.22 151.22 4 151.5 4C151.78 4 152 4.22 152 4.5C152 4.78 151.78 5 151.5 5ZM150.5 5C150.22 5 150 4.78 150 4.5C150 4.22 150.22 4 150.5 4C150.78 4 151 4.22 151 4.5C151 4.78 150.78 5 150.5 5ZM157.5 5C157.22 5 157 4.78 157 4.5C157 4.22 157.22 4 157.5 4C157.78 4 158 4.22 158 4.5C158 4.78 157.78 5 157.5 5ZM156.5 5C156.22 5 156 4.78 156 4.5C156 4.22 156.22 4 156.5 4C156.78 4 157 4.22 157 4.5C157 4.78 156.78 5 156.5 5ZM151.5 6C151.22 6 151 5.78 151 5.5C151 5.22 151.22 5 151.5 5C151.78 5 152 5.22 152 5.5C152 5.78 151.78 6 151.5 6ZM152.5 6C152.22 6 152 5.78 152 5.5C152 5.22 152.22 5 152.5 5C152.78 5 153 5.22 153 5.5C153 5.78 152.78 6 152.5 6ZM150.5 6C150.22 6 150 5.78 150 5.5C150 5.22 150.22 5 150.5 5C150.78 5 151 5.22 151 5.5C151 5.78 150.78 6 150.5 6ZM156.5 6C156.22 6 156 5.78 156 5.5C156 5.22 156.22 5 156.5 5C156.78 5 157 5.22 157 5.5C157 5.78 156.78 6 156.5 6ZM157.5 6C157.22 6 157 5.78 157 5.5C157 5.22 157.22 5 157.5 5C157.78 5 158 5.22 158 5.5C158 5.78 157.78 6 157.5 6ZM157.5 7C157.22 7 157 6.78 157 6.5C157 6.22 157.22 6 157.5 6C157.78 6 158 6.22 158 6.5C158 6.78 157.78 7 157.5 7ZM151.5 7C151.22 7 151 6.78 151 6.5C151 6.22 151.22 6 151.5 6C151.78 6 152 6.22 152 6.5C152 6.78 151.78 7 151.5 7ZM153.5 7C153.22 7 153 6.78 153 6.5C153 6.22 153.22 6 153.5 6C153.78 6 154 6.22 154 6.5C154 6.78 153.78 7 153.5 7ZM152.5 7C152.22 7 152 6.78 152 6.5C152 6.22 152.22 6 152.5 6C152.78 6 153 6.22 153 6.5C153 6.78 152.78 7 152.5 7ZM150.5 7C150.22 7 150 6.78 150 6.5C150 6.22 150.22 6 150.5 6C150.78 6 151 6.22 151 6.5C151 6.78 150.78 7 150.5 7ZM156.5 7C156.22 7 156 6.78 156 6.5C156 6.22 156.22 6 156.5 6C156.78 6 157 6.22 157 6.5C157 6.78 156.78 7 156.5 7ZM151.5 8C151.22 8 151 7.78 151 7.5C151 7.22 151.22 7 151.5 7C151.78 7 152 7.22 152 7.5C152 7.78 151.78 8 151.5 8ZM152.5 8C152.22 8 152 7.78 152 7.5C152 7.22 152.22 7 152.5 7C152.78 7 153 7.22 153 7.5C153 7.78 152.78 8 152.5 8ZM157.5 8C157.22 8 157 7.78 157 7.5C157 7.22 157.22 7 157.5 7C157.78 7 158 7.22 158 7.5C158 7.78 157.78 8 157.5 8ZM156.5 8C156.22 8 156 7.78 156 7.5C156 7.22 156.22 7 156.5 7C156.78 7 157 7.22 157 7.5C157 7.78 156.78 8 156.5 8ZM153.5 8C153.22 8 153 7.78 153 7.5C153 7.22 153.22 7 153.5 7C153.78 7 154 7.22 154 7.5C154 7.78 153.78 8 153.5 8ZM150.5 8C150.22 8 150 7.78 150 7.5C150 7.22 150.22 7 150.5 7C150.78 7 151 7.22 151 7.5C151 7.78 150.78 8 150.5 8ZM154.5 8C154.22 8 154 7.78 154 7.5C154 7.22 154.22 7 154.5 7C154.78 7 155 7.22 155 7.5C155 7.78 154.78 8 154.5 8ZM153.5 9C153.22 9 153 8.78 153 8.5C153 8.22 153.22 8 153.5 8C153.78 8 154 8.22 154 8.5C154 8.78 153.78 9 153.5 9ZM155.5 9C155.22 9 155 8.78 155 8.5C155 8.22 155.22 8 155.5 8C155.78 8 156 8.22 156 8.5C156 8.78 155.78 9 155.5 9ZM154.5 9C154.22 9 154 8.78 154 8.5C154 8.22 154.22 8 154.5 8C154.78 8 155 8.22 155 8.5C155 8.78 154.78 9 154.5 9ZM157.5 9C157.22 9 157 8.78 157 8.5C157 8.22 157.22 8 157.5 8C157.78 8 158 8.22 158 8.5C158 8.78 157.78 9 157.5 9ZM156.5 9C156.22 9 156 8.78 156 8.5C156 8.22 156.22 8 156.5 8C156.78 8 157 8.22 157 8.5C157 8.78 156.78 9 156.5 9ZM151.5 9C151.22 9 151 8.78 151 8.5C151 8.22 151.22 8 151.5 8C151.78 8 152 8.22 152 8.5C152 8.78 151.78 9 151.5 9ZM150.5 9C150.22 9 150 8.78 150 8.5C150 8.22 150.22 8 150.5 8C150.78 8 151 8.22 151 8.5C151 8.78 150.78 9 150.5 9ZM156.5 10C156.22 10 156 9.78 156 9.5C156 9.22 156.22 9 156.5 9C156.78 9 157 9.22 157 9.5C157 9.78 156.78 10 156.5 10ZM155.5 10C155.22 10 155 9.78 155 9.5C155 9.22 155.22 9 155.5 9C155.78 9 156 9.22 156 9.5C156 9.78 155.78 10 155.5 10ZM154.5 10C154.22 10 154 9.78 154 9.5C154 9.22 154.22 9 154.5 9C154.78 9 155 9.22 155 9.5C155 9.78 154.78 10 154.5 10ZM157.5 10C157.22 10 157 9.78 157 9.5C157 9.22 157.22 9 157.5 9C157.78 9 158 9.22 158 9.5C158 9.78 157.78 10 157.5 10ZM151.5 10C151.22 10 151 9.78 151 9.5C151 9.22 151.22 9 151.5 9C151.78 9 152 9.22 152 9.5C152 9.78 151.78 10 151.5 10ZM150.5 10C150.22 10 150 9.78 150 9.5C150 9.22 150.22 9 150.5 9C150.78 9 151 9.22 151 9.5C151 9.78 150.78 10 150.5 10ZM150.5 11C150.22 11 150 10.78 150 10.5C150 10.22 150.22 10 150.5 10C150.78 10 151 10.22 151 10.5C151 10.78 150.78 11 150.5 11ZM157.5 11C157.22 11 157 10.78 157 10.5C157 10.22 157.22 10 157.5 10C157.78 10 158 10.22 158 10.5C158 10.78 157.78 11 157.5 11ZM156.5 11C156.22 11 156 10.78 156 10.5C156 10.22 156.22 10 156.5 10C156.78 10 157 10.22 157 10.5C157 10.78 156.78 11 156.5 11ZM155.5 11C155.22 11 155 10.78 155 10.5C155 10.22 155.22 10 155.5 10C155.78 10 156 10.22 156 10.5C156 10.78 155.78 11 155.5 11ZM151.5 11C151.22 11 151 10.78 151 10.5C151 10.22 151.22 10 151.5 10C151.78 10 152 10.22 152 10.5C152 10.78 151.78 11 151.5 11ZM150.5 12C150.22 12 150 11.78 150 11.5C150 11.22 150.22 11 150.5 11C150.78 11 151 11.22 151 11.5C151 11.78 150.78 12 150.5 12ZM157.5 12C157.22 12 157 11.78 157 11.5C157 11.22 157.22 11 157.5 11C157.78 11 158 11.22 158 11.5C158 11.78 157.78 12 157.5 12ZM156.5 12C156.22 12 156 11.78 156 11.5C156 11.22 156.22 11 156.5 11C156.78 11 157 11.22 157 11.5C157 11.78 156.78 12 156.5 12ZM151.5 12C151.22 12 151 11.78 151 11.5C151 11.22 151.22 11 151.5 11C151.78 11 152 11.22 152 11.5C152 11.78 151.78 12 151.5 12ZM150.5 13C150.22 13 150 12.78 150 12.5C150 12.22 150.22 12 150.5 12C150.78 12 151 12.22 151 12.5C151 12.78 150.78 13 150.5 13ZM157.5 13C157.22 13 157 12.78 157 12.5C157 12.22 157.22 12 157.5 12C157.78 12 158 12.22 158 12.5C158 12.78 157.78 13 157.5 13ZM156.5 13C156.22 13 156 12.78 156 12.5C156 12.22 156.22 12 156.5 12C156.78 12 157 12.22 157 12.5C157 12.78 156.78 13 156.5 13ZM151.5 13C151.22 13 151 12.78 151 12.5C151 12.22 151.22 12 151.5 12C151.78 12 152 12.22 152 12.5C152 12.78 151.78 13 151.5 13ZM150.5 14C150.22 14 150 13.78 150 13.5C150 13.22 150.22 13 150.5 13C150.78 13 151 13.22 151 13.5C151 13.78 150.78 14 150.5 14ZM151.5 14C151.22 14 151 13.78 151 13.5C151 13.22 151.22 13 151.5 13C151.78 13 152 13.22 152 13.5C152 13.78 151.78 14 151.5 14ZM156.5 14C156.22 14 156 13.78 156 13.5C156 13.22 156.22 13 156.5 13C156.78 13 157 13.22 157 13.5C157 13.78 156.78 14 156.5 14ZM157.5 14C157.22 14 157 13.78 157 13.5C157 13.22 157.22 13 157.5 13C157.78 13 158 13.22 158 13.5C158 13.78 157.78 14 157.5 14Z" fill="#FF7878"/>
<path d="M162.5 5C162.22 5 162 4.78 162 4.5C162 4.22 162.22 4 162.5 4C162.78 4 163 4.22 163 4.5C163 4.78 162.78 5 162.5 5ZM164.5 5C164.22 5 164 4.78 164 4.5C164 4.22 164.22 4 164.5 4C164.78 4 165 4.22 165 4.5C165 4.78 164.78 5 164.5 5ZM163.5 5C163.22 5 163 4.78 163 4.5C163 4.22 163.22 4 163.5 4C163.78 4 164 4.22 164 4.5C164 4.78 163.78 5 163.5 5ZM165.5 5C165.22 5 165 4.78 165 4.5C165 4.22 165.22 4 165.5 4C165.78 4 166 4.22 166 4.5C166 4.78 165.78 5 165.5 5ZM161.5 5C161.22 5 161 4.78 161 4.5C161 4.22 161.22 4 161.5 4C161.78 4 162 4.22 162 4.5C162 4.78 161.78 5 161.5 5ZM162.5 6C162.22 6 162 5.78 162 5.5C162 5.22 162.22 5 162.5 5C162.78 5 163 5.22 163 5.5C163 5.78 162.78 6 162.5 6ZM160.5 6C160.22 6 160 5.78 160 5.5C160 5.22 160.22 5 160.5 5C160.78 5 161 5.22 161 5.5C161 5.78 160.78 6 160.5 6ZM163.5 6C163.22 6 163 5.78 163 5.5C163 5.22 163.22 5 163.5 5C163.78 5 164 5.22 164 5.5C164 5.78 163.78 6 163.5 6ZM165.5 6C165.22 6 165 5.78 165 5.5C165 5.22 165.22 5 165.5 5C165.78 5 166 5.22 166 5.5C166 5.78 165.78 6 165.5 6ZM164.5 6C164.22 6 164 5.78 164 5.5C164 5.22 164.22 5 164.5 5C164.78 5 165 5.22 165 5.5C165 5.78 164.78 6 164.5 6ZM161.5 6C161.22 6 161 5.78 161 5.5C161 5.22 161.22 5 161.5 5C161.78 5 162 5.22 162 5.5C162 5.78 161.78 6 161.5 6ZM166.5 6C166.22 6 166 5.78 166 5.5C166 5.22 166.22 5 166.5 5C166.78 5 167 5.22 167 5.5C167 5.78 166.78 6 166.5 6ZM161.5 7C161.22 7 161 6.78 161 6.5C161 6.22 161.22 6 161.5 6C161.78 6 162 6.22 162 6.5C162 6.78 161.78 7 161.5 7ZM165.5 7C165.22 7 165 6.78 165 6.5C165 6.22 165.22 6 165.5 6C165.78 6 166 6.22 166 6.5C166 6.78 165.78 7 165.5 7ZM160.5 7C160.22 7 160 6.78 160 6.5C160 6.22 160.22 6 160.5 6C160.78 6 161 6.22 161 6.5C161 6.78 160.78 7 160.5 7ZM166.5 7C166.22 7 166 6.78 166 6.5C166 6.22 166.22 6 166.5 6C166.78 6 167 6.22 167 6.5C167 6.78 166.78 7 166.5 7ZM167.5 7C167.22 7 167 6.78 167 6.5C167 6.22 167.22 6 167.5 6C167.78 6 168 6.22 168 6.5C168 6.78 167.78 7 167.5 7ZM159.5 7C159.22 7 159 6.78 159 6.5C159 6.22 159.22 6 159.5 6C159.78 6 160 6.22 160 6.5C160 6.78 159.78 7 159.5 7ZM160.5 8C160.22 8 160 7.78 160 7.5C160 7.22 160.22 7 160.5 7C160.78 7 161 7.22 161 7.5C161 7.78 160.78 8 160.5 8ZM159.5 8C159.22 8 159 7.78 159 7.5C159 7.22 159.22 7 159.5 7C159.78 7 160 7.22 160 7.5C160 7.78 159.78 8 159.5 8ZM166.5 8C166.22 8 166 7.78 166 7.5C166 7.22 166.22 7 166.5 7C166.78 7 167 7.22 167 7.5C167 7.78 166.78 8 166.5 8ZM167.5 8C167.22 8 167 7.78 167 7.5C167 7.22 167.22 7 167.5 7C167.78 7 168 7.22 168 7.5C168 7.78 167.78 8 167.5 8ZM159.5 9C159.22 9 159 8.78 159 8.5C159 8.22 159.22 8 159.5 8C159.78 8 160 8.22 160 8.5C160 8.78 159.78 9 159.5 9ZM160.5 9C160.22 9 160 8.78 160 8.5C160 8.22 160.22 8 160.5 8C160.78 8 161 8.22 161 8.5C161 8.78 160.78 9 160.5 9ZM167.5 9C167.22 9 167 8.78 167 8.5C167 8.22 167.22 8 167.5 8C167.78 8 168 8.22 168 8.5C168 8.78 167.78 9 167.5 9ZM166.5 9C166.22 9 166 8.78 166 8.5C166 8.22 166.22 8 166.5 8C166.78 8 167 8.22 167 8.5C167 8.78 166.78 9 166.5 9ZM166.5 10C166.22 10 166 9.78 166 9.5C166 9.22 166.22 9 166.5 9C166.78 9 167 9.22 167 9.5C167 9.78 166.78 10 166.5 10ZM159.5 10C159.22 10 159 9.78 159 9.5C159 9.22 159.22 9 159.5 9C159.78 9 160 9.22 160 9.5C160 9.78 159.78 10 159.5 10ZM167.5 10C167.22 10 167 9.78 167 9.5C167 9.22 167.22 9 167.5 9C167.78 9 168 9.22 168 9.5C168 9.78 167.78 10 167.5 10ZM160.5 10C160.22 10 160 9.78 160 9.5C160 9.22 160.22 9 160.5 9C160.78 9 161 9.22 161 9.5C161 9.78 160.78 10 160.5 10ZM166.5 11C166.22 11 166 10.78 166 10.5C166 10.22 166.22 10 166.5 10C166.78 10 167 10.22 167 10.5C167 10.78 166.78 11 166.5 11ZM160.5 11C160.22 11 160 10.78 160 10.5C160 10.22 160.22 10 160.5 10C160.78 10 161 10.22 161 10.5C161 10.78 160.78 11 160.5 11ZM159.5 11C159.22 11 159 10.78 159 10.5C159 10.22 159.22 10 159.5 10C159.78 10 160 10.22 160 10.5C160 10.78 159.78 11 159.5 11ZM167.5 11C167.22 11 167 10.78 167 10.5C167 10.22 167.22 10 167.5 10C167.78 10 168 10.22 168 10.5C168 10.78 167.78 11 167.5 11ZM161.5 12C161.22 12 161 11.78 161 11.5C161 11.22 161.22 11 161.5 11C161.78 11 162 11.22 162 11.5C162 11.78 161.78 12 161.5 12ZM165.5 12C165.22 12 165 11.78 165 11.5C165 11.22 165.22 11 165.5 11C165.78 11 166 11.22 166 11.5C166 11.78 165.78 12 165.5 12ZM166.5 12C166.22 12 166 11.78 166 11.5C166 11.22 166.22 11 166.5 11C166.78 11 167 11.22 167 11.5C167 11.78 166.78 12 166.5 12ZM167.5 12C167.22 12 167 11.78 167 11.5C167 11.22 167.22 11 167.5 11C167.78 11 168 11.22 168 11.5C168 11.78 167.78 12 167.5 12ZM159.5 12C159.22 12 159 11.78 159 11.5C159 11.22 159.22 11 159.5 11C159.78 11 160 11.22 160 11.5C160 11.78 159.78 12 159.5 12ZM160.5 12C160.22 12 160 11.78 160 11.5C160 11.22 160.22 11 160.5 11C160.78 11 161 11.22 161 11.5C161 11.78 160.78 12 160.5 12ZM160.5 13C160.22 13 160 12.78 160 12.5C160 12.22 160.22 12 160.5 12C160.78 12 161 12.22 161 12.5C161 12.78 160.78 13 160.5 13ZM166.5 13C166.22 13 166 12.78 166 12.5C166 12.22 166.22 12 166.5 12C166.78 12 167 12.22 167 12.5C167 12.78 166.78 13 166.5 13ZM165.5 13C165.22 13 165 12.78 165 12.5C165 12.22 165.22 12 165.5 12C165.78 12 166 12.22 166 12.5C166 12.78 165.78 13 165.5 13ZM164.5 13C164.22 13 164 12.78 164 12.5C164 12.22 164.22 12 164.5 12C164.78 12 165 12.22 165 12.5C165 12.78 164.78 13 164.5 13ZM162.5 13C162.22 13 162 12.78 162 12.5C162 12.22 162.22 12 162.5 12C162.78 12 163 12.22 163 12.5C163 12.78 162.78 13 162.5 13ZM161.5 13C161.22 13 161 12.78 161 12.5C161 12.22 161.22 12 161.5 12C161.78 12 162 12.22 162 12.5C162 12.78 161.78 13 161.5 13ZM163.5 13C163.22 13 163 12.78 163 12.5C163 12.22 163.22 12 163.5 12C163.78 12 164 12.22 164 12.5C164 12.78 163.78 13 163.5 13ZM165.5 14C165.22 14 165 13.78 165 13.5C165 13.22 165.22 13 165.5 13C165.78 13 166 13.22 166 13.5C166 13.78 165.78 14 165.5 14ZM164.5 14C164.22 14 164 13.78 164 13.5C164 13.22 164.22 13 164.5 13C164.78 13 165 13.22 165 13.5C165 13.78 164.78 14 164.5 14ZM162.5 14C162.22 14 162 13.78 162 13.5C162 13.22 162.22 13 162.5 13C162.78 13 163 13.22 163 13.5C163 13.78 162.78 14 162.5 14ZM161.5 14C161.22 14 161 13.78 161 13.5C161 13.22 161.22 13 161.5 13C161.78 13 162 13.22 162 13.5C162 13.78 161.78 14 161.5 14ZM163.5 14C163.22 14 163 13.78 163 13.5C163 13.22 163.22 13 163.5 13C163.78 13 164 13.22 164 13.5C164 13.78 163.78 14 163.5 14Z" fill="#FF7878"/>
<path d="M176.5 5C176.22 5 176 4.78 176 4.5C176 4.22 176.22 4 176.5 4C176.78 4 177 4.22 177 4.5C177 4.78 176.78 5 176.5 5ZM181.5 5C181.22 5 181 4.78 181 4.5C181 4.22 181.22 4 181.5 4C181.78 4 182 4.22 182 4.5C182 4.78 181.78 5 181.5 5ZM182.5 5C182.22 5 182 4.78 182 4.5C182 4.22 182.22 4 182.5 4C182.78 4 183 4.22 183 4.5C183 4.78 182.78 5 182.5 5ZM175.5 5C175.22 5 175 4.78 175 4.5C175 4.22 175.22 4 175.5 4C175.78 4 176 4.22 176 4.5C176 4.78 175.78 5 175.5 5ZM170.5 5C170.22 5 170 4.78 170 4.5C170 4.22 170.22 4 170.5 4C170.78 4 171 4.22 171 4.5C171 4.78 170.78 5 170.5 5ZM169.5 5C169.22 5 169 4.78 169 4.5C169 4.22 169.22 4 169.5 4C169.78 4 170 4.22 170 4.5C170 4.78 169.78 5 169.5 5ZM176.5 6C176.22 6 176 5.78 176 5.5C176 5.22 176.22 5 176.5 5C176.78 5 177 5.22 177 5.5C177 5.78 176.78 6 176.5 6ZM181.5 6C181.22 6 181 5.78 181 5.5C181 5.22 181.22 5 181.5 5C181.78 5 182 5.22 182 5.5C182 5.78 181.78 6 181.5 6ZM182.5 6C182.22 6 182 5.78 182 5.5C182 5.22 182.22 5 182.5 5C182.78 5 183 5.22 183 5.5C183 5.78 182.78 6 182.5 6ZM175.5 6C175.22 6 175 5.78 175 5.5C175 5.22 175.22 5 175.5 5C175.78 5 176 5.22 176 5.5C176 5.78 175.78 6 175.5 6ZM170.5 6C170.22 6 170 5.78 170 5.5C170 5.22 170.22 5 170.5 5C170.78 5 171 5.22 171 5.5C171 5.78 170.78 6 170.5 6ZM169.5 6C169.22 6 169 5.78 169 5.5C169 5.22 169.22 5 169.5 5C169.78 5 170 5.22 170 5.5C170 5.78 169.78 6 169.5 6ZM176.5 7C176.22 7 176 6.78 176 6.5C176 6.22 176.22 6 176.5 6C176.78 6 177 6.22 177 6.5C177 6.78 176.78 7 176.5 7ZM181.5 7C181.22 7 181 6.78 181 6.5C181 6.22 181.22 6 181.5 6C181.78 6 182 6.22 182 6.5C182 6.78 181.78 7 181.5 7ZM182.5 7C182.22 7 182 6.78 182 6.5C182 6.22 182.22 6 182.5 6C182.78 6 183 6.22 183 6.5C183 6.78 182.78 7 182.5 7ZM175.5 7C175.22 7 175 6.78 175 6.5C175 6.22 175.22 6 175.5 6C175.78 6 176 6.22 176 6.5C176 6.78 175.78 7 175.5 7ZM170.5 7C170.22 7 170 6.78 170 6.5C170 6.22 170.22 6 170.5 6C170.78 6 171 6.22 171 6.5C171 6.78 170.78 7 170.5 7ZM169.5 7C169.22 7 169 6.78 169 6.5C169 6.22 169.22 6 169.5 6C169.78 6 170 6.22 170 6.5C170 6.78 169.78 7 169.5 7ZM176.5 8C176.22 8 176 7.78 176 7.5C176 7.22 176.22 7 176.5 7C176.78 7 177 7.22 177 7.5C177 7.78 176.78 8 176.5 8ZM180.5 8C180.22 8 180 7.78 180 7.5C180 7.22 180.22 7 180.5 7C180.78 7 181 7.22 181 7.5C181 7.78 180.78 8 180.5 8ZM177.5 8C177.22 8 177 7.78 177 7.5C177 7.22 177.22 7 177.5 7C177.78 7 178 7.22 178 7.5C178 7.78 177.78 8 177.5 8ZM181.5 8C181.22 8 181 7.78 181 7.5C181 7.22 181.22 7 181.5 7C181.78 7 182 7.22 182 7.5C182 7.78 181.78 8 181.5 8ZM174.5 8C174.22 8 174 7.78 174 7.5C174 7.22 174.22 7 174.5 7C174.78 7 175 7.22 175 7.5C175 7.78 174.78 8 174.5 8ZM171.5 8C171.22 8 171 7.78 171 7.5C171 7.22 171.22 7 171.5 7C171.78 7 172 7.22 172 7.5C172 7.78 171.78 8 171.5 8ZM170.5 8C170.22 8 170 7.78 170 7.5C170 7.22 170.22 7 170.5 7C170.78 7 171 7.22 171 7.5C171 7.78 170.78 8 170.5 8ZM175.5 8C175.22 8 175 7.78 175 7.5C175 7.22 175.22 7 175.5 7C175.78 7 176 7.22 176 7.5C176 7.78 175.78 8 175.5 8ZM177.5 9C177.22 9 177 8.78 177 8.5C177 8.22 177.22 8 177.5 8C177.78 8 178 8.22 178 8.5C178 8.78 177.78 9 177.5 9ZM170.5 9C170.22 9 170 8.78 170 8.5C170 8.22 170.22 8 170.5 8C170.78 8 171 8.22 171 8.5C171 8.78 170.78 9 170.5 9ZM174.5 9C174.22 9 174 8.78 174 8.5C174 8.22 174.22 8 174.5 8C174.78 8 175 8.22 175 8.5C175 8.78 174.78 9 174.5 9ZM171.5 9C171.22 9 171 8.78 171 8.5C171 8.22 171.22 8 171.5 8C171.78 8 172 8.22 172 8.5C172 8.78 171.78 9 171.5 9ZM181.5 9C181.22 9 181 8.78 181 8.5C181 8.22 181.22 8 181.5 8C181.78 8 182 8.22 182 8.5C182 8.78 181.78 9 181.5 9ZM176.5 9C176.22 9 176 8.78 176 8.5C176 8.22 176.22 8 176.5 8C176.78 8 177 8.22 177 8.5C177 8.78 176.78 9 176.5 9ZM175.5 9C175.22 9 175 8.78 175 8.5C175 8.22 175.22 8 175.5 8C175.78 8 176 8.22 176 8.5C176 8.78 175.78 9 175.5 9ZM180.5 9C180.22 9 180 8.78 180 8.5C180 8.22 180.22 8 180.5 8C180.78 8 181 8.22 181 8.5C181 8.78 180.78 9 180.5 9ZM175.5 10C175.22 10 175 9.78 175 9.5C175 9.22 175.22 9 175.5 9C175.78 9 176 9.22 176 9.5C176 9.78 175.78 10 175.5 10ZM170.5 10C170.22 10 170 9.78 170 9.5C170 9.22 170.22 9 170.5 9C170.78 9 171 9.22 171 9.5C171 9.78 170.78 10 170.5 10ZM174.5 10C174.22 10 174 9.78 174 9.5C174 9.22 174.22 9 174.5 9C174.78 9 175 9.22 175 9.5C175 9.78 174.78 10 174.5 10ZM171.5 10C171.22 10 171 9.78 171 9.5C171 9.22 171.22 9 171.5 9C171.78 9 172 9.22 172 9.5C172 9.78 171.78 10 171.5 10ZM181.5 10C181.22 10 181 9.78 181 9.5C181 9.22 181.22 9 181.5 9C181.78 9 182 9.22 182 9.5C182 9.78 181.78 10 181.5 10ZM180.5 10C180.22 10 180 9.78 180 9.5C180 9.22 180.22 9 180.5 9C180.78 9 181 9.22 181 9.5C181 9.78 180.78 10 180.5 10ZM177.5 10C177.22 10 177 9.78 177 9.5C177 9.22 177.22 9 177.5 9C177.78 9 178 9.22 178 9.5C178 9.78 177.78 10 177.5 10ZM176.5 10C176.22 10 176 9.78 176 9.5C176 9.22 176.22 9 176.5 9C176.78 9 177 9.22 177 9.5C177 9.78 176.78 10 176.5 10ZM172.5 11C172.22 11 172 10.78 172 10.5C172 10.22 172.22 10 172.5 10C172.78 10 173 10.22 173 10.5C173 10.78 172.78 11 172.5 11ZM180.5 11C180.22 11 180 10.78 180 10.5C180 10.22 180.22 10 180.5 10C180.78 10 181 10.22 181 10.5C181 10.78 180.78 11 180.5 11ZM177.5 11C177.22 11 177 10.78 177 10.5C177 10.22 177.22 10 177.5 10C177.78 10 178 10.22 178 10.5C178 10.78 177.78 11 177.5 11ZM179.5 11C179.22 11 179 10.78 179 10.5C179 10.22 179.22 10 179.5 10C179.78 10 180 10.22 180 10.5C180 10.78 179.78 11 179.5 11ZM178.5 11C178.22 11 178 10.78 178 10.5C178 10.22 178.22 10 178.5 10C178.78 10 179 10.22 179 10.5C179 10.78 178.78 11 178.5 11ZM174.5 11C174.22 11 174 10.78 174 10.5C174 10.22 174.22 10 174.5 10C174.78 10 175 10.22 175 10.5C175 10.78 174.78 11 174.5 11ZM171.5 11C171.22 11 171 10.78 171 10.5C171 10.22 171.22 10 171.5 10C171.78 10 172 10.22 172 10.5C172 10.78 171.78 11 171.5 11ZM173.5 11C173.22 11 173 10.78 173 10.5C173 10.22 173.22 10 173.5 10C173.78 10 174 10.22 174 10.5C174 10.78 173.78 11 173.5 11ZM177.5 12C177.22 12 177 11.78 177 11.5C177 11.22 177.22 11 177.5 11C177.78 11 178 11.22 178 11.5C178 11.78 177.78 12 177.5 12ZM179.5 12C179.22 12 179 11.78 179 11.5C179 11.22 179.22 11 179.5 11C179.78 11 180 11.22 180 11.5C180 11.78 179.78 12 179.5 12ZM180.5 12C180.22 12 180 11.78 180 11.5C180 11.22 180.22 11 180.5 11C180.78 11 181 11.22 181 11.5C181 11.78 180.78 12 180.5 12ZM178.5 12C178.22 12 178 11.78 178 11.5C178 11.22 178.22 11 178.5 11C178.78 11 179 11.22 179 11.5C179 11.78 178.78 12 178.5 12ZM174.5 12C174.22 12 174 11.78 174 11.5C174 11.22 174.22 11 174.5 11C174.78 11 175 11.22 175 11.5C175 11.78 174.78 12 174.5 12ZM171.5 12C171.22 12 171 11.78 171 11.5C171 11.22 171.22 11 171.5 11C171.78 11 172 11.22 172 11.5C172 11.78 171.78 12 171.5 12ZM173.5 12C173.22 12 173 11.78 173 11.5C173 11.22 173.22 11 173.5 11C173.78 11 174 11.22 174 11.5C174 11.78 173.78 12 173.5 12ZM172.5 12C172.22 12 172 11.78 172 11.5C172 11.22 172.22 11 172.5 11C172.78 11 173 11.22 173 11.5C173 11.78 172.78 12 172.5 12ZM179.5 13C179.22 13 179 12.78 179 12.5C179 12.22 179.22 12 179.5 12C179.78 12 180 12.22 180 12.5C180 12.78 179.78 13 179.5 13ZM178.5 13C178.22 13 178 12.78 178 12.5C178 12.22 178.22 12 178.5 12C178.78 12 179 12.22 179 12.5C179 12.78 178.78 13 178.5 13ZM173.5 13C173.22 13 173 12.78 173 12.5C173 12.22 173.22 12 173.5 12C173.78 12 174 12.22 174 12.5C174 12.78 173.78 13 173.5 13ZM172.5 13C172.22 13 172 12.78 172 12.5C172 12.22 172.22 12 172.5 12C172.78 12 173 12.22 173 12.5C173 12.78 172.78 13 172.5 13ZM179.5 14C179.22 14 179 13.78 179 13.5C179 13.22 179.22 13 179.5 13C179.78 13 180 13.22 180 13.5C180 13.78 179.78 14 179.5 14ZM173.5 14C173.22 14 173 13.78 173 13.5C173 13.22 173.22 13 173.5 13C173.78 13 174 13.22 174 13.5C174 13.78 173.78 14 173.5 14ZM172.5 14C172.22 14 172 13.78 172 13.5C172 13.22 172.22 13 172.5 13C172.78 13 173 13.22 173 13.5C173 13.78 172.78 14 172.5 14ZM178.5 14C178.22 14 178 13.78 178 13.5C178 13.22 178.22 13 178.5 13C178.78 13 179 13.22 179 13.5C179 13.78 178.78 14 178.5 14Z" fill="#FF7878"/>
<path d="M192.5 8C192.22 8 192 7.78 192 7.5C192 7.22 192.22 7 192.5 7C192.78 7 193 7.22 193 7.5C193 7.78 192.78 8 192.5 8ZM191.5 8C191.22 8 191 7.78 191 7.5C191 7.22 191.22 7 191.5 7C191.78 7 192 7.22 192 7.5C192 7.78 191.78 8 191.5 8ZM190.5 8C190.22 8 190 7.78 190 7.5C190 7.22 190.22 7 190.5 7C190.78 7 191 7.22 191 7.5C191 7.78 190.78 8 190.5 8ZM189.5 9C189.22 9 189 8.78 189 8.5C189 8.22 189.22 8 189.5 8C189.78 8 190 8.22 190 8.5C190 8.78 189.78 9 189.5 9ZM193.5 9C193.22 9 193 8.78 193 8.5C193 8.22 193.22 8 193.5 8C193.78 8 194 8.22 194 8.5C194 8.78 193.78 9 193.5 9ZM190.5 9C190.22 9 190 8.78 190 8.5C190 8.22 190.22 8 190.5 8C190.78 8 191 8.22 191 8.5C191 8.78 190.78 9 190.5 9ZM192.5 9C192.22 9 192 8.78 192 8.5C192 8.22 192.22 8 192.5 8C192.78 8 193 8.22 193 8.5C193 8.78 192.78 9 192.5 9ZM191.5 9C191.22 9 191 8.78 191 8.5C191 8.22 191.22 8 191.5 8C191.78 8 192 8.22 192 8.5C192 8.78 191.78 9 191.5 9ZM189.5 10C189.22 10 189 9.78 189 9.5C189 9.22 189.22 9 189.5 9C189.78 9 190 9.22 190 9.5C190 9.78 189.78 10 189.5 10ZM193.5 10C193.22 10 193 9.78 193 9.5C193 9.22 193.22 9 193.5 9C193.78 9 194 9.22 194 9.5C194 9.78 193.78 10 193.5 10ZM190.5 10C190.22 10 190 9.78 190 9.5C190 9.22 190.22 9 190.5 9C190.78 9 191 9.22 191 9.5C191 9.78 190.78 10 190.5 10ZM192.5 10C192.22 10 192 9.78 192 9.5C192 9.22 192.22 9 192.5 9C192.78 9 193 9.22 193 9.5C193 9.78 192.78 10 192.5 10ZM191.5 10C191.22 10 191 9.78 191 9.5C191 9.22 191.22 9 191.5 9C191.78 9 192 9.22 192 9.5C192 9.78 191.78 10 191.5 10ZM189.5 11C189.22 11 189 10.78 189 10.5C189 10.22 189.22 10 189.5 10C189.78 10 190 10.22 190 10.5C190 10.78 189.78 11 189.5 11ZM193.5 11C193.22 11 193 10.78 193 10.5C193 10.22 193.22 10 193.5 10C193.78 10 194 10.22 194 10.5C194 10.78 193.78 11 193.5 11ZM190.5 11C190.22 11 190 10.78 190 10.5C190 10.22 190.22 10 190.5 10C190.78 10 191 10.22 191 10.5C191 10.78 190.78 11 190.5 11ZM192.5 11C192.22 11 192 10.78 192 10.5C192 10.22 192.22 10 192.5 10C192.78 10 193 10.22 193 10.5C193 10.78 192.78 11 192.5 11ZM191.5 11C191.22 11 191 10.78 191 10.5C191 10.22 191.22 10 191.5 10C191.78 10 192 10.22 192 10.5C192 10.78 191.78 11 191.5 11ZM190.5 12C190.22 12 190 11.78 190 11.5C190 11.22 190.22 11 190.5 11C190.78 11 191 11.22 191 11.5C191 11.78 190.78 12 190.5 12ZM191.5 12C191.22 12 191 11.78 191 11.5C191 11.22 191.22 11 191.5 11C191.78 11 192 11.22 192 11.5C192 11.78 191.78 12 191.5 12ZM192.5 12C192.22 12 192 11.78 192 11.5C192 11.22 192.22 11 192.5 11C192.78 11 193 11.22 193 11.5C193 11.78 192.78 12 192.5 12Z" fill="#FF7878"/>
</svg>
