<svg width="320" height="360" viewBox="0 0 320 360" fill="none" xmlns="http://www.w3.org/2000/svg">
<path d="M39 20.1219C39 14.8413 43.2808 10.5605 48.5614 10.5605H115.491C120.772 10.5605 125.052 14.8413 125.052 20.1219V309.353C125.052 314.634 120.772 318.915 115.491 318.915H48.5614C43.2808 318.915 39 314.634 39 309.353V20.1219Z" fill="#FFC800"/>
<path fill-rule="evenodd" clip-rule="evenodd" d="M125.056 317.714C125.056 318.376 125.59 318.915 126.252 318.915V318.915C211.402 318.915 280.429 249.887 280.429 164.738C280.429 79.5879 211.402 10.5605 126.252 10.5605V10.5605C125.59 10.5605 125.056 11.0992 125.056 11.7613V317.714Z" fill="#FFE035"/>
</svg>
