<svg width="320" height="360" viewBox="0 0 320 360" fill="none" xmlns="http://www.w3.org/2000/svg">
<path d="M9 20.1219C9 14.8413 13.2808 10.5605 18.5614 10.5605H85.4909C90.7715 10.5605 95.0523 14.8413 95.0523 20.1219V309.353C95.0523 314.634 90.7715 318.915 85.4909 318.915H18.5614C13.2808 318.915 9 314.634 9 309.353V20.1219Z" fill="#FFC800"/>
<path fill-rule="evenodd" clip-rule="evenodd" d="M95.0559 317.714C95.0559 318.376 95.59 318.915 96.2521 318.915V318.915C181.402 318.915 250.429 249.887 250.429 164.738C250.429 79.5879 181.402 10.5605 96.2521 10.5605V10.5605C95.59 10.5605 95.0559 11.0992 95.0559 11.7613V317.714Z" fill="#FFE035"/>
</svg>
