<svg width="352" height="352" viewBox="0 0 352 352" fill="none" xmlns="http://www.w3.org/2000/svg">
<ellipse cx="42" cy="117.5" rx="42" ry="42.5" fill="black"/>
<path d="M325.505 289.425C329.281 289.425 332.536 289.263 335.758 289.515C336.817 289.598 338.345 290.528 338.722 291.453C343.211 302.431 347.522 313.48 351.867 324.516C351.981 324.807 351.945 325.156 352 325.694C339.34 325.694 326.769 325.779 314.198 325.628C311.517 325.595 310.228 326.319 309.258 328.909C306.599 335.991 303.621 342.958 300.624 349.908C300.236 350.808 298.988 351.939 298.131 351.944C283.733 352.046 269.332 351.985 254.932 351.944C254.749 351.944 254.566 351.749 254 351.423C272.21 306.884 290.435 262.296 308.95 217C312.199 224.993 315.18 232.267 318.113 239.56C322.369 250.146 326.661 260.718 330.745 271.37C331.305 272.833 331.181 274.852 330.662 276.372C329.22 280.601 327.404 284.703 325.505 289.428V289.425Z" fill="black"/>
</svg>
