<svg width="352" height="355" viewBox="0 0 352 355" fill="none" xmlns="http://www.w3.org/2000/svg">
<path d="M131.007 261C131.007 276.193 130.956 290.848 131.125 305.5C131.137 306.48 132.625 307.837 133.747 308.355C151.288 316.478 168.884 324.493 186.468 332.529C202.076 339.659 217.682 346.795 233.308 353.883C234.523 354.434 235.903 354.939 237.211 354.948C249.861 355.027 262.51 354.997 275.157 354.982C275.707 354.982 276.257 354.843 277 354.741V309.73C275.785 309.676 274.574 309.579 273.365 309.576C261.749 309.564 250.134 309.646 238.522 309.504C236.318 309.477 233.945 308.966 231.958 308.042C199.069 292.764 166.232 277.382 133.383 262.029C132.784 261.749 132.168 261.502 131.007 261Z" fill="black"/>
<path d="M76.3235 61C72.6663 53.1112 69.3387 45.9571 66.0382 38.794C62.1877 30.4395 57.6904 20.4039 54 11.9738C54.6045 11.0667 60.3108 0.0997819 60.3108 0.0997819C60.3108 0.0997819 89.7308 0 105 0C89.8185 32.5349 91.7407 27.9631 76.3265 60.997L76.3235 61Z" fill="black"/>
</svg>
