<svg width="352" height="353" viewBox="0 0 352 353" fill="none" xmlns="http://www.w3.org/2000/svg">
<g clip-path="url(#clip0_1076_38)">
<path d="M68.9976 29.9807V0.600446C64.4482 0.600446 59.9152 0.348386 55.4176 0.642848C34.7354 2.00444 18.0941 10.525 7.36094 28.7887C0.800483 39.9523 -0.923227 52.2891 0.428427 64.9557C3.03989 89.4455 16.3233 105.617 39.5816 113.537C49.0502 116.762 58.8909 116.701 68.9246 116.319V87.0521C65.8658 87.0521 62.8846 87.0686 59.9034 87.0498C47.5949 86.9744 39.7441 80.0981 37.9285 67.8885C36.598 58.9322 36.4921 50.0724 40.1891 41.5825C43.2668 34.513 48.8642 30.678 56.4584 30.0419C60.5204 29.7004 64.6342 29.9807 69 29.9807H68.9976Z" fill="black"/>
<path d="M352 222.506C338.423 222.506 325.327 222.461 312.234 222.611C311.358 222.622 310.145 223.947 309.683 224.946C302.424 240.565 295.262 256.232 288.081 271.889C281.709 285.787 275.332 299.682 268.998 313.596C268.506 314.678 268.054 315.907 268.046 317.071C267.976 328.335 268.003 339.598 268.016 350.859C268.016 351.349 268.14 351.839 268.232 352.5H308.454C308.503 351.418 308.589 350.339 308.591 349.263C308.602 338.921 308.53 328.578 308.656 318.239C308.68 316.276 309.137 314.164 309.963 312.394C323.615 283.11 337.361 253.871 351.081 224.622C351.331 224.089 351.551 223.54 352 222.506Z" fill="black"/>
</g>
<defs>
<clipPath id="clip0_1076_38">
<rect width="352" height="352" fill="white" transform="translate(0 0.5)"/>
</clipPath>
</defs>
</svg>
