<svg width="352" height="352" viewBox="0 0 352 352" fill="none" xmlns="http://www.w3.org/2000/svg">
<path d="M70.9976 30.2431V0.103043C66.3162 0.103043 61.6519 -0.155535 57.0239 0.146543C35.7422 1.54335 18.6186 10.2843 7.5743 29.0203C0.823692 40.4727 -0.949982 53.1285 0.440849 66.1227C3.12801 91.2458 16.7964 107.836 40.7289 115.961C50.4719 119.269 60.5979 119.206 70.9225 118.815V88.7905C67.7749 88.7905 64.7073 88.8075 61.6398 88.7881C48.9745 88.7108 40.8961 81.6567 39.0279 69.1313C37.6589 59.9434 37.5498 50.8545 41.354 42.145C44.5209 34.8927 50.2805 30.9584 58.0948 30.3059C62.2746 29.9555 66.5077 30.2431 71 30.2431H70.9976Z" fill="black"/>
<path d="M352 176.009C333.574 176.009 315.801 175.947 298.032 176.15C296.843 176.165 295.197 177.959 294.57 179.311C284.718 200.457 274.998 221.668 265.253 242.865C256.605 261.681 247.95 280.493 239.354 299.33C238.686 300.795 238.073 302.458 238.062 304.035C237.968 319.284 238.004 334.533 238.022 349.778C238.022 350.441 238.19 351.105 238.314 352H292.902C292.968 350.536 293.085 349.075 293.088 347.618C293.103 333.616 293.004 319.614 293.176 305.615C293.209 302.959 293.829 300.099 294.949 297.703C313.477 258.056 332.133 218.472 350.752 178.872C351.091 178.151 351.391 177.408 352 176.009Z" fill="black"/>
</svg>
