<svg width="352" height="352" viewBox="0 0 352 352" fill="none" xmlns="http://www.w3.org/2000/svg">
<g clip-path="url(#clip0_1121_16)">
<path d="M185.005 292C185.005 301.698 184.972 311.052 185.08 320.404C185.087 321.03 186.037 321.896 186.753 322.226C197.95 327.411 209.181 332.527 220.405 337.657C230.368 342.208 240.329 346.763 250.303 351.287C251.078 351.639 251.959 351.961 252.794 351.967C260.868 352.017 268.943 351.998 277.015 351.988C277.366 351.988 277.717 351.9 278.191 351.835V323.104C277.416 323.07 276.643 323.008 275.871 323.006C268.457 322.998 261.043 323.05 253.631 322.96C252.224 322.943 250.71 322.616 249.441 322.027C228.449 312.275 207.489 302.456 186.521 292.657C186.139 292.478 185.745 292.321 185.005 292Z" fill="black"/>
<path d="M75.9575 60C72.3603 52.2405 69.0872 45.2037 65.8409 38.158C62.0535 29.9405 57.6299 20.0694 54 11.7775C54.5946 10.8853 60.2073 0.0981461 60.2073 0.0981461C60.2073 0.0981461 89.1451 0 104.164 0C89.2313 32.0016 91.122 27.5047 75.9605 59.997L75.9575 60Z" fill="black"/>
</g>
<defs>
<clipPath id="clip0_1121_16">
<rect width="352" height="352" fill="white"/>
</clipPath>
</defs>
</svg>
