<svg width="352" height="352" viewBox="0 0 352 352" fill="none" xmlns="http://www.w3.org/2000/svg">
<path d="M68.9976 29.4807V0.100446C64.4482 0.100446 59.9152 -0.151614 55.4176 0.142848C34.7354 1.50444 18.0941 10.025 7.36094 28.2887C0.800484 39.4523 -0.923225 51.7891 0.428429 64.4557C3.03989 88.9455 16.3233 105.117 39.5816 113.037C49.0502 116.262 58.8909 116.201 68.9246 115.819V86.5521C65.8658 86.5521 62.8846 86.5686 59.9034 86.5498C47.5949 86.4744 39.7441 79.5981 37.9285 67.3885C36.598 58.4322 36.4921 49.5724 40.1891 41.0825C43.2668 34.013 48.8642 30.178 56.4584 29.5419C60.5204 29.2004 64.6342 29.4807 69 29.4807H68.9976Z" fill="black"/>
<path d="M352 222.006C338.423 222.006 325.327 221.961 312.234 222.111C311.358 222.122 310.145 223.447 309.683 224.446C302.424 240.065 295.262 255.732 288.081 271.389C281.709 285.287 275.332 299.182 268.998 313.096C268.506 314.178 268.054 315.407 268.046 316.571C267.976 327.835 268.003 339.098 268.016 350.359C268.016 350.849 268.14 351.339 268.232 352H308.454C308.503 350.918 308.589 349.839 308.591 348.763C308.602 338.421 308.53 328.078 308.656 317.739C308.68 315.776 309.137 313.664 309.963 311.894C323.615 282.61 337.361 253.371 351.081 224.122C351.331 223.589 351.551 223.04 352 222.006Z" fill="black"/>
</svg>
