<svg width="352" height="353" viewBox="0 0 352 353" fill="none" xmlns="http://www.w3.org/2000/svg">
<g clip-path="url(#clip0_1076_34)">
<path d="M194.811 351.942C193.942 351.987 193.334 352.042 192.727 352.044C182.022 352.051 171.318 352.012 160.613 352.087C159.042 352.097 158.186 351.548 157.344 350.282C135.63 317.677 113.875 285.1 92.1314 252.516C91.7862 252 91.4901 251.45 91 250.632C91.8395 250.592 92.4318 250.538 93.0242 250.538C103.808 250.534 114.593 250.564 125.377 250.5C126.822 250.492 127.68 250.935 128.477 252.134C150.236 284.805 172.029 317.453 193.809 350.107C194.146 350.61 194.393 351.173 194.809 351.942H194.811Z" fill="black"/>
<path d="M260.438 351.942C259.569 351.987 258.961 352.042 258.354 352.044C247.649 352.051 236.945 352.012 226.24 352.087C224.669 352.097 223.813 351.548 222.971 350.282C201.257 317.677 179.502 285.1 157.758 252.516C157.413 252 157.117 251.45 156.627 250.632C157.466 250.592 158.059 250.538 158.651 250.538C169.435 250.534 180.22 250.564 191.004 250.5C192.449 250.492 193.307 250.935 194.104 252.134C215.863 284.805 237.656 317.453 259.436 350.107C259.773 350.61 260.02 351.173 260.436 351.942H260.438Z" fill="black"/>
<path d="M266.323 61.5C262.666 53.6112 259.339 46.4571 256.038 39.294C252.188 30.9395 247.69 20.9039 244 12.4738C244.604 11.5667 250.311 0.599782 250.311 0.599782C250.311 0.599782 279.731 0.5 295 0.5C279.818 33.0349 281.741 28.4631 266.326 61.497L266.323 61.5Z" fill="black"/>
</g>
<defs>
<clipPath id="clip0_1076_34">
<rect width="352" height="352" fill="white" transform="translate(0 0.5)"/>
</clipPath>
</defs>
</svg>
