<svg width="352" height="356" viewBox="0 0 352 356" fill="none" xmlns="http://www.w3.org/2000/svg">
<g clip-path="url(#clip0_1076_18)">
<path d="M131.007 261.5C131.007 276.693 130.956 291.348 131.125 306C131.137 306.98 132.625 308.337 133.747 308.855C151.288 316.978 168.884 324.993 186.468 333.029C202.076 340.159 217.682 347.295 233.308 354.383C234.523 354.934 235.903 355.439 237.211 355.448C249.861 355.527 262.51 355.497 275.157 355.482C275.707 355.482 276.257 355.343 277 355.241V310.23C275.785 310.176 274.574 310.079 273.365 310.076C261.749 310.064 250.134 310.146 238.522 310.004C236.318 309.977 233.945 309.466 231.958 308.542C199.069 293.264 166.232 277.882 133.383 262.529C132.784 262.249 132.168 262.002 131.007 261.5Z" fill="black"/>
<path d="M76.3235 61.5C72.6663 53.6112 69.3387 46.4571 66.0382 39.294C62.1877 30.9395 57.6904 20.9039 54 12.4738C54.6045 11.5667 60.3108 0.599782 60.3108 0.599782C60.3108 0.599782 89.7308 0.5 105 0.5C89.8185 33.0349 91.7407 28.4631 76.3265 61.497L76.3235 61.5Z" fill="black"/>
</g>
<defs>
<clipPath id="clip0_1076_18">
<rect width="352" height="355" fill="white" transform="translate(0 0.5)"/>
</clipPath>
</defs>
</svg>
