<svg width="352" height="352" viewBox="0 0 352 352" fill="none" xmlns="http://www.w3.org/2000/svg">
<ellipse cx="29.6471" cy="309" rx="29.6471" ry="30" fill="black"/>
<path d="M308.221 38.3111C305.909 38.3111 303.916 38.4102 301.944 38.2556C301.296 38.2052 300.36 37.6358 300.129 37.0696C297.381 30.3482 294.741 23.5831 292.081 16.8265C292.012 16.6484 292.034 16.435 292 16.1058C299.751 16.1058 307.447 16.0537 315.144 16.1461C316.785 16.1662 317.575 15.7227 318.169 14.1369C319.797 9.80099 321.62 5.53566 323.455 1.28039C323.692 0.729375 324.456 0.0372443 324.981 0.0338798C333.796 -0.0282761 342.613 0.00868143 351.43 0.0338821C351.542 0.0338821 351.654 0.153168 352 0.353073C340.851 27.6217 329.693 54.9205 318.357 82.6528C316.368 77.7592 314.543 73.3057 312.747 68.8404C310.141 62.3593 307.514 55.8865 305.013 49.365C304.67 48.4696 304.747 47.2332 305.064 46.3025C305.947 43.7137 307.059 41.2022 308.221 38.3094L308.221 38.3111Z" fill="black"/>
</svg>
