<svg width="352" height="352" viewBox="0 0 352 352" fill="none" xmlns="http://www.w3.org/2000/svg">
<path d="M124.314 351.914C123.8 351.941 123.441 351.973 123.083 351.975C116.76 351.979 110.438 351.956 104.115 352C103.188 352.006 102.682 351.682 102.185 350.934C89.3598 331.677 76.5109 312.435 63.6682 293.191C63.4644 292.886 63.2894 292.561 63 292.078C63.4958 292.054 63.8457 292.023 64.1955 292.023C70.5646 292.02 76.935 292.038 83.304 292C84.1573 291.995 84.6644 292.257 85.1351 292.965C97.9865 312.262 110.858 331.544 123.722 350.831C123.921 351.128 124.067 351.46 124.312 351.914H124.314Z" fill="black"/>
<path d="M163.074 351.914C162.561 351.941 162.202 351.973 161.844 351.975C155.521 351.979 149.199 351.956 142.876 352C141.949 352.006 141.443 351.682 140.946 350.934C128.121 331.677 115.272 312.435 102.429 293.191C102.225 292.886 102.05 292.561 101.761 292.078C102.257 292.054 102.606 292.023 102.956 292.023C109.325 292.02 115.696 292.038 122.065 292C122.918 291.995 123.425 292.257 123.896 292.965C136.747 312.262 149.619 331.544 162.483 350.831C162.682 351.128 162.828 351.46 163.073 351.914H163.074Z" fill="black"/>
<path d="M266.323 61C262.666 53.1112 259.339 45.9571 256.038 38.794C252.188 30.4395 247.69 20.4039 244 11.9738C244.604 11.0667 250.311 0.0997819 250.311 0.0997819C250.311 0.0997819 279.731 0 295 0C279.818 32.5349 281.741 27.9631 266.326 60.997L266.323 61Z" fill="black"/>
</svg>
