<svg width="352" height="352" viewBox="0 0 352 352" fill="none" xmlns="http://www.w3.org/2000/svg">
<path d="M211.853 351.48C211.209 351.513 210.76 351.554 210.31 351.555C202.385 351.56 194.461 351.532 186.536 351.587C185.373 351.595 184.739 351.188 184.116 350.251C168.04 326.113 151.935 301.995 135.838 277.873C135.582 277.491 135.363 277.084 135 276.478C135.621 276.448 136.06 276.409 136.499 276.409C144.482 276.406 152.467 276.428 160.45 276.38C161.519 276.374 162.155 276.702 162.745 277.59C178.854 301.777 194.987 325.947 211.112 350.121C211.361 350.494 211.544 350.91 211.851 351.48H211.853Z" fill="black"/>
<path d="M260.438 351.48C259.794 351.513 259.345 351.554 258.895 351.555C250.97 351.56 243.045 351.532 235.121 351.587C233.958 351.595 233.324 351.188 232.701 350.251C216.625 326.113 200.52 301.995 184.423 277.873C184.167 277.491 183.948 277.084 183.585 276.478C184.206 276.448 184.645 276.409 185.084 276.409C193.067 276.406 201.052 276.428 209.035 276.38C210.104 276.374 210.74 276.702 211.33 277.59C227.439 301.777 243.572 325.947 259.697 350.121C259.946 350.494 260.129 350.91 260.436 351.48H260.438Z" fill="black"/>
<path d="M266.323 61C262.666 53.1112 259.339 45.9571 256.038 38.794C252.188 30.4395 247.69 20.4039 244 11.9738C244.604 11.0667 250.311 0.0997819 250.311 0.0997819C250.311 0.0997819 279.731 0 295 0C279.818 32.5349 281.741 27.9631 266.326 60.997L266.323 61Z" fill="black"/>
</svg>
