<svg width="352" height="352" viewBox="0 0 352 352" fill="none" xmlns="http://www.w3.org/2000/svg">
<ellipse cx="39" cy="39.5" rx="39" ry="39.5" fill="black"/>
<path d="M327.398 293.597C330.904 293.597 333.927 293.445 336.918 293.681C337.902 293.758 339.32 294.626 339.67 295.489C343.839 305.735 347.842 316.048 351.876 326.349C351.982 326.62 351.949 326.945 352 327.447C340.245 327.447 328.572 327.527 316.899 327.386C314.409 327.355 313.212 328.031 312.311 330.449C309.842 337.059 307.077 343.561 304.294 350.048C303.933 350.888 302.775 351.943 301.979 351.948C288.609 352.043 275.237 351.986 261.865 351.948C261.695 351.948 261.525 351.766 261 351.461C277.91 309.892 294.832 268.276 312.025 226C315.042 233.46 317.81 240.249 320.534 247.056C324.486 256.936 328.471 266.804 332.263 276.745C332.784 278.11 332.668 279.995 332.186 281.414C330.848 285.36 329.161 289.189 327.398 293.599V293.597Z" fill="black"/>
</svg>
