<svg width="352" height="352" viewBox="0 0 352 352" fill="none" xmlns="http://www.w3.org/2000/svg">
<path d="M60.998 26.2477V1.08602C57.0419 1.08602 53.1002 0.870156 49.1892 1.12234C31.2047 2.28843 16.734 9.58556 7.40081 25.2269C1.69607 34.7876 0.197197 45.353 1.37255 56.2009C3.64339 77.1744 15.1942 91.0242 35.4188 97.8069C43.6523 100.569 52.2095 100.516 60.9345 100.189V75.1246C58.2746 75.1246 55.6823 75.1388 53.0899 75.1226C42.3869 75.0581 35.56 69.1691 33.9813 58.7126C32.8244 51.0423 32.7322 43.4546 35.9471 36.1837C38.6233 30.1293 43.4906 26.8449 50.0942 26.3002C53.6264 26.0077 57.2037 26.2477 61 26.2477H60.998Z" fill="black"/>
<path d="M351 259.005C341.302 259.005 331.948 258.972 322.596 259.079C321.97 259.087 321.104 260.031 320.774 260.743C315.589 271.876 310.473 283.043 305.343 294.202C300.792 304.108 296.237 314.012 291.713 323.929C291.361 324.7 291.039 325.576 291.033 326.406C290.983 334.434 291.002 342.462 291.012 350.488C291.012 350.838 291.1 351.187 291.165 351.658H319.896C319.93 350.887 319.992 350.118 319.994 349.351C320.002 341.98 319.95 334.608 320.04 327.238C320.057 325.839 320.384 324.334 320.973 323.073C330.725 302.2 340.544 281.36 350.343 260.512C350.522 260.132 350.679 259.741 351 259.005Z" fill="black"/>
</svg>
