<svg width="352" height="352" viewBox="0 0 352 352" fill="none" xmlns="http://www.w3.org/2000/svg">
<path d="M61.3136 135.295C60.8001 135.321 60.4415 135.354 60.0828 135.355C53.7603 135.359 47.4378 135.336 41.1152 135.38C40.1878 135.387 39.6819 135.062 39.1848 134.314C26.3598 115.057 13.5109 95.8158 0.668245 76.5709C0.464374 76.2664 0.289446 75.9417 0 75.4585C0.495834 75.4346 0.845687 75.4031 1.19554 75.4031C7.56462 75.4006 13.935 75.4182 20.304 75.3804C21.1573 75.3754 21.6644 75.6372 22.1351 76.3456C34.9865 95.6421 47.8581 114.925 60.7221 134.211C60.9209 134.508 61.0669 134.84 61.3123 135.295H61.3136Z" fill="black"/>
<path d="M100.075 135.295C99.5613 135.321 99.2027 135.354 98.844 135.355C92.5215 135.359 86.199 135.336 79.8765 135.38C78.949 135.387 78.4431 135.062 77.946 134.314C65.121 115.057 52.2721 95.8158 39.4295 76.5709C39.2256 76.2664 39.0507 75.9417 38.7612 75.4585C39.2571 75.4346 39.6069 75.4031 39.9568 75.4031C46.3259 75.4006 52.6962 75.4182 59.0653 75.3804C59.9185 75.3754 60.4257 75.6372 60.8963 76.3456C73.7478 95.6421 86.6193 114.925 99.4833 134.211C99.6822 134.508 99.8281 134.84 100.074 135.295H100.075Z" fill="black"/>
<path d="M351.998 236.546V211.087C348.042 211.087 344.1 210.869 340.189 211.124C322.205 212.304 307.734 219.687 298.401 235.513C292.696 245.187 291.197 255.878 292.373 266.854C294.643 288.075 306.194 302.089 326.419 308.952C334.652 311.747 343.209 311.694 351.934 311.363V286.002C349.275 286.002 346.682 286.016 344.09 285.999C333.387 285.934 326.56 279.976 324.981 269.395C323.824 261.634 323.732 253.957 326.947 246.6C329.623 240.474 334.491 237.151 341.094 236.599C344.626 236.303 348.204 236.546 352 236.546H351.998Z" fill="black"/>
</svg>
