<svg width="352" height="353" viewBox="0 0 352 353" fill="none" xmlns="http://www.w3.org/2000/svg">
<g clip-path="url(#clip0_1076_28)">
<path d="M265.5 352.5C287.315 352.5 305 334.591 305 312.5C305 290.409 287.315 272.5 265.5 272.5C243.685 272.5 226 290.409 226 312.5C226 334.591 243.685 352.5 265.5 352.5Z" fill="black"/>
<path d="M64.9383 66.4871C68.3678 66.4871 71.3239 66.3396 74.2498 66.5696C75.2116 66.6446 76.599 67.4921 76.9415 68.3346C81.0181 78.337 84.9335 88.4045 88.8791 98.4594C88.9824 98.7244 88.9496 99.0419 89 99.5319C77.503 99.5319 66.0865 99.6094 54.6701 99.4719C52.2352 99.4419 51.0643 100.102 50.183 102.462C47.7683 108.914 45.064 115.262 42.3421 121.594C41.9896 122.414 40.8565 123.444 40.0784 123.449C27.0027 123.542 13.9243 123.487 0.846033 123.449C0.679847 123.449 0.513665 123.272 0 122.974C16.538 82.3945 33.0886 41.7697 49.9036 0.5C52.8546 7.78245 55.5614 14.4099 58.2254 21.0549C62.0905 30.6998 65.9883 40.3323 69.6973 50.0372C70.2059 51.3697 70.0926 53.2097 69.6217 54.5947C68.3124 58.4471 66.6631 62.1846 64.9383 66.4896V66.4871Z" fill="black"/>
</g>
<defs>
<clipPath id="clip0_1076_28">
<rect width="352" height="352" fill="white" transform="translate(0 0.5)"/>
</clipPath>
</defs>
</svg>
