<svg width="352" height="353" viewBox="0 0 352 353" fill="none" xmlns="http://www.w3.org/2000/svg">
<g clip-path="url(#clip0_1076_31)">
<path d="M39 79.5C60.5391 79.5 78 61.8152 78 40C78 18.1848 60.5391 0.5 39 0.5C17.4609 0.5 0 18.1848 0 40C0 61.8152 17.4609 79.5 39 79.5Z" fill="black"/>
<path d="M327.398 294.097C330.904 294.097 333.927 293.945 336.918 294.181C337.902 294.258 339.32 295.126 339.67 295.989C343.839 306.235 347.842 316.548 351.876 326.849C351.982 327.12 351.949 327.445 352 327.947C340.245 327.947 328.572 328.027 316.899 327.886C314.409 327.855 313.212 328.531 312.311 330.949C309.842 337.559 307.077 344.061 304.294 350.548C303.933 351.388 302.775 352.443 301.979 352.448C288.609 352.543 275.237 352.486 261.865 352.448C261.695 352.448 261.525 352.266 261 351.961C277.91 310.392 294.832 268.776 312.025 226.5C315.042 233.96 317.81 240.749 320.534 247.556C324.486 257.436 328.471 267.304 332.263 277.245C332.784 278.61 332.668 280.495 332.186 281.914C330.848 285.86 329.161 289.689 327.398 294.099V294.097Z" fill="black"/>
</g>
<defs>
<clipPath id="clip0_1076_31">
<rect width="352" height="352" fill="white" transform="translate(0 0.5)"/>
</clipPath>
</defs>
</svg>
