<svg width="352" height="352" viewBox="0 0 352 352" fill="none" xmlns="http://www.w3.org/2000/svg">
<ellipse cx="265.5" cy="312" rx="39.5" ry="40" fill="black"/>
<path d="M64.9383 65.9871C68.3678 65.9871 71.3239 65.8396 74.2498 66.0696C75.2116 66.1446 76.599 66.9921 76.9415 67.8346C81.0181 77.837 84.9335 87.9045 88.8791 97.9594C88.9824 98.2244 88.9496 98.5419 89 99.0319C77.503 99.0319 66.0865 99.1094 54.6701 98.9719C52.2352 98.9419 51.0643 99.6019 50.183 101.962C47.7683 108.414 45.064 114.762 42.3421 121.094C41.9896 121.914 40.8565 122.944 40.0784 122.949C27.0027 123.042 13.9243 122.987 0.846033 122.949C0.679847 122.949 0.513665 122.772 0 122.474C16.538 81.8945 33.0886 41.2697 49.9036 0C52.8546 7.28245 55.5614 13.9099 58.2254 20.5549C62.0905 30.1998 65.9883 39.8323 69.6973 49.5372C70.2059 50.8697 70.0926 52.7097 69.6217 54.0947C68.3124 57.9471 66.6631 61.6846 64.9383 65.9896V65.9871Z" fill="black"/>
</svg>
