<svg width="352" height="355" viewBox="0 0 352 355" fill="none" xmlns="http://www.w3.org/2000/svg">
<path d="M76.853 150.48C76.2095 150.513 75.7599 150.554 75.3103 150.555C67.3854 150.56 59.4605 150.532 51.5356 150.587C50.373 150.595 49.7389 150.188 49.1158 149.251C33.0404 125.113 16.9351 100.995 0.837607 76.8726C0.582067 76.4909 0.362804 76.084 0 75.4783C0.6215 75.4483 1.06002 75.4089 1.49854 75.4089C9.48182 75.4057 17.4667 75.4278 25.4499 75.3805C26.5194 75.3742 27.1551 75.7022 27.7451 76.5903C43.8536 100.777 59.9874 124.947 76.1116 149.121C76.3609 149.494 76.5439 149.91 76.8515 150.48H76.853Z" fill="black"/>
<path d="M125.438 150.48C124.794 150.513 124.345 150.554 123.895 150.555C115.97 150.56 108.045 150.532 100.121 150.587C98.958 150.595 98.3239 150.188 97.7008 149.251C81.6254 125.113 65.52 100.995 49.4226 76.8726C49.167 76.4909 48.9478 76.084 48.585 75.4783C49.2065 75.4483 49.645 75.4089 50.0835 75.4089C58.0668 75.4057 66.0516 75.4278 74.0349 75.3805C75.1044 75.3742 75.7401 75.7022 76.33 76.5903C92.4386 100.777 108.572 124.947 124.697 149.121C124.946 149.494 125.129 149.91 125.436 150.48H125.438Z" fill="black"/>
<path d="M351.997 258.785V226.112C346.92 226.112 341.862 225.831 336.843 226.159C313.763 227.673 295.192 237.148 283.214 257.459C275.893 269.874 273.97 283.593 275.478 297.679C278.392 324.914 293.216 342.898 319.171 351.705C329.737 355.292 340.719 355.223 351.916 354.799V322.252C348.502 322.252 345.176 322.27 341.849 322.249C328.113 322.165 319.352 314.519 317.326 300.941C315.841 290.981 315.723 281.128 319.849 271.687C323.283 263.825 329.53 259.56 338.004 258.853C342.537 258.473 347.128 258.785 352 258.785H351.997Z" fill="black"/>
</svg>
