<svg width="352" height="353" viewBox="0 0 352 353" fill="none" xmlns="http://www.w3.org/2000/svg">
<g clip-path="url(#clip0_1076_25)">
<path d="M42 160.5C65.196 160.5 84 141.472 84 118C84 94.5279 65.196 75.5 42 75.5C18.804 75.5 0 94.5279 0 118C0 141.472 18.804 160.5 42 160.5Z" fill="black"/>
<path d="M325.505 289.925C329.281 289.925 332.536 289.763 335.758 290.015C336.817 290.098 338.345 291.028 338.722 291.953C343.211 302.931 347.522 313.98 351.867 325.016C351.981 325.307 351.945 325.656 352 326.194C339.34 326.194 326.769 326.279 314.198 326.128C311.517 326.095 310.228 326.819 309.258 329.409C306.599 336.491 303.621 343.458 300.624 350.408C300.236 351.308 298.988 352.439 298.131 352.444C283.733 352.546 269.332 352.485 254.932 352.444C254.749 352.444 254.566 352.249 254 351.923C272.21 307.384 290.435 262.796 308.95 217.5C312.199 225.493 315.18 232.767 318.113 240.06C322.369 250.646 326.661 261.218 330.745 271.87C331.305 273.333 331.181 275.352 330.662 276.872C329.22 281.101 327.404 285.203 325.505 289.928V289.925Z" fill="black"/>
</g>
<defs>
<clipPath id="clip0_1076_25">
<rect width="352" height="352" fill="white" transform="translate(0 0.5)"/>
</clipPath>
</defs>
</svg>
