<svg width="352" height="352" viewBox="0 0 352 352" fill="none" xmlns="http://www.w3.org/2000/svg">
<path d="M194.811 351.442C193.942 351.487 193.334 351.542 192.727 351.544C182.022 351.551 171.318 351.512 160.613 351.587C159.042 351.597 158.186 351.048 157.344 349.782C135.63 317.177 113.875 284.6 92.1314 252.016C91.7862 251.5 91.4901 250.95 91 250.132C91.8395 250.092 92.4318 250.038 93.0242 250.038C103.808 250.034 114.593 250.064 125.377 250C126.822 249.992 127.68 250.435 128.477 251.634C150.236 284.305 172.029 316.953 193.809 349.607C194.146 350.11 194.393 350.673 194.809 351.442H194.811Z" fill="black"/>
<path d="M260.438 351.442C259.569 351.487 258.961 351.542 258.354 351.544C247.649 351.551 236.945 351.512 226.24 351.587C224.669 351.597 223.813 351.048 222.971 349.782C201.257 317.177 179.502 284.6 157.758 252.016C157.413 251.5 157.117 250.95 156.627 250.132C157.466 250.092 158.059 250.038 158.651 250.038C169.435 250.034 180.22 250.064 191.004 250C192.449 249.992 193.307 250.435 194.104 251.634C215.863 284.305 237.656 316.953 259.436 349.607C259.773 350.11 260.02 350.673 260.436 351.442H260.438Z" fill="black"/>
<path d="M266.323 61C262.666 53.1112 259.339 45.9571 256.038 38.794C252.188 30.4395 247.69 20.4039 244 11.9738C244.604 11.0667 250.311 0.0997819 250.311 0.0997819C250.311 0.0997819 279.731 0 295 0C279.818 32.5349 281.741 27.9631 266.326 60.997L266.323 61Z" fill="black"/>
</svg>
