<svg width="352" height="352" viewBox="0 0 352 352" fill="none" xmlns="http://www.w3.org/2000/svg">
<ellipse cx="265" cy="321.38" rx="30" ry="30.3797" fill="black"/>
<path d="M48.7786 44.4857C51.0906 44.4857 53.0835 44.3862 55.056 44.5413C55.7045 44.5919 56.6398 45.1632 56.8706 45.7312C59.6189 52.4744 62.2585 59.2614 64.9185 66.04C64.9881 66.2187 64.966 66.4327 65 66.7631C57.2492 66.7631 49.5527 66.8153 41.8562 66.7226C40.2147 66.7024 39.4254 67.1473 38.8313 68.7383C37.2034 73.0883 35.3802 77.3675 33.5452 81.6366C33.3076 82.1894 32.5437 82.8838 32.0192 82.8871C23.204 82.9495 14.3872 82.9124 5.57036 82.8871C5.45832 82.8871 5.34629 82.7675 5 82.5669C16.1492 55.2098 27.3069 27.8223 38.6428 0C40.6323 4.90952 42.4571 9.37747 44.2531 13.8572C46.8588 20.3594 49.4865 26.8532 51.9869 33.3959C52.3298 34.2942 52.2534 35.5346 51.936 36.4683C51.0533 39.0655 49.9414 41.5851 48.7786 44.4874V44.4857Z" fill="black"/>
</svg>
