<svg width="352" height="352" viewBox="0 0 352 352" fill="none" xmlns="http://www.w3.org/2000/svg">
<g clip-path="url(#clip0_1121_15)">
<ellipse cx="50" cy="30.3846" rx="30" ry="30.3846" fill="black"/>
<path d="M335.779 313.569C338.091 313.569 340.084 313.47 342.056 313.625C342.704 313.676 343.64 314.248 343.871 314.817C346.619 321.573 349.259 328.373 351.919 335.164C351.988 335.343 351.966 335.557 352 335.888C344.249 335.888 336.553 335.941 328.856 335.848C327.215 335.828 326.425 336.273 325.831 337.867C324.203 342.225 322.38 346.513 320.545 350.79C320.308 351.344 319.544 352.039 319.019 352.043C310.204 352.105 301.387 352.068 292.57 352.043C292.458 352.043 292.346 351.923 292 351.722C303.149 324.313 314.307 296.874 325.643 269C327.632 273.919 329.457 278.395 331.253 282.883C333.859 289.398 336.486 295.904 338.987 302.459C339.33 303.359 339.253 304.601 338.936 305.537C338.053 308.139 336.941 310.663 335.779 313.571V313.569Z" fill="black"/>
</g>
<defs>
<clipPath id="clip0_1121_15">
<rect width="352" height="352" fill="white"/>
</clipPath>
</defs>
</svg>
