<svg width="352" height="353" viewBox="0 0 352 353" fill="none" xmlns="http://www.w3.org/2000/svg">
<g clip-path="url(#clip0_1076_41)">
<path d="M211.853 351.98C211.209 352.013 210.76 352.054 210.31 352.055C202.385 352.06 194.461 352.032 186.536 352.087C185.373 352.095 184.739 351.688 184.116 350.751C168.04 326.613 151.935 302.495 135.838 278.373C135.582 277.991 135.363 277.584 135 276.978C135.621 276.948 136.06 276.909 136.499 276.909C144.482 276.906 152.467 276.928 160.45 276.88C161.519 276.874 162.155 277.202 162.745 278.09C178.854 302.277 194.987 326.447 211.112 350.621C211.361 350.994 211.544 351.41 211.851 351.98H211.853Z" fill="black"/>
<path d="M260.438 351.98C259.794 352.013 259.345 352.054 258.895 352.055C250.97 352.06 243.045 352.032 235.121 352.087C233.958 352.095 233.324 351.688 232.701 350.751C216.625 326.613 200.52 302.495 184.423 278.373C184.167 277.991 183.948 277.584 183.585 276.978C184.206 276.948 184.645 276.909 185.084 276.909C193.067 276.906 201.052 276.928 209.035 276.88C210.104 276.874 210.74 277.202 211.33 278.09C227.439 302.277 243.572 326.447 259.697 350.621C259.946 350.994 260.129 351.41 260.436 351.98H260.438Z" fill="black"/>
<path d="M266.323 61.5C262.666 53.6112 259.339 46.4571 256.038 39.294C252.188 30.9395 247.69 20.9039 244 12.4738C244.604 11.5667 250.311 0.599782 250.311 0.599782C250.311 0.599782 279.731 0.5 295 0.5C279.818 33.0349 281.741 28.4631 266.326 61.497L266.323 61.5Z" fill="black"/>
</g>
<defs>
<clipPath id="clip0_1076_41">
<rect width="352" height="352" fill="white" transform="translate(0 0.5)"/>
</clipPath>
</defs>
</svg>
