<svg width="352" height="352" viewBox="0 0 352 352" fill="none" xmlns="http://www.w3.org/2000/svg">
<path d="M64.998 25.2477V0.0860233C61.0419 0.0860233 57.1002 -0.129844 53.1892 0.122337C35.2047 1.28843 20.734 8.58556 11.4008 24.2269C5.69607 33.7876 4.1972 44.353 5.37255 55.2009C7.64339 76.1744 19.1942 90.0242 39.4188 96.8069C47.6523 99.5688 56.2095 99.5163 64.9345 99.1895V74.1246C62.2746 74.1246 59.6823 74.1388 57.0899 74.1226C46.3869 74.0581 39.56 68.1691 37.9813 57.7126C36.8244 50.0423 36.7322 42.4546 39.9471 35.1837C42.6233 29.1293 47.4906 25.8449 54.0942 25.3002C57.6264 25.0077 61.2037 25.2477 65 25.2477H64.998Z" fill="black"/>
<path d="M352 259.005C342.302 259.005 332.948 258.972 323.596 259.079C322.97 259.087 322.104 260.031 321.774 260.743C316.589 271.876 311.473 283.043 306.343 294.202C301.792 304.108 297.237 314.012 292.713 323.929C292.361 324.7 292.039 325.576 292.033 326.406C291.983 334.434 292.002 342.462 292.012 350.488C292.012 350.838 292.1 351.187 292.165 351.658H320.896C320.93 350.887 320.992 350.118 320.994 349.351C321.002 341.98 320.95 334.608 321.04 327.238C321.057 325.839 321.384 324.334 321.973 323.073C331.725 302.2 341.544 281.36 351.343 260.512C351.522 260.132 351.679 259.741 352 259.005Z" fill="black"/>
</svg>
