<svg width="352" height="352" viewBox="0 0 352 352" fill="none" xmlns="http://www.w3.org/2000/svg">
<path d="M137.314 351.914C136.8 351.941 136.441 351.973 136.083 351.975C129.76 351.979 123.438 351.956 117.115 352C116.188 352.006 115.682 351.682 115.185 350.934C102.36 331.677 89.5109 312.435 76.6682 293.191C76.4644 292.886 76.2894 292.561 76 292.078C76.4958 292.054 76.8457 292.023 77.1955 292.023C83.5646 292.02 89.935 292.038 96.304 292C97.1573 291.995 97.6644 292.257 98.1351 292.965C110.987 312.262 123.858 331.544 136.722 350.831C136.921 351.128 137.067 351.46 137.312 351.914H137.314Z" fill="black"/>
<path d="M176.075 351.914C175.561 351.941 175.203 351.973 174.844 351.975C168.522 351.979 162.199 351.956 155.876 352C154.949 352.006 154.443 351.682 153.946 350.934C141.121 331.677 128.272 312.435 115.429 293.191C115.226 292.886 115.051 292.561 114.761 292.078C115.257 292.054 115.607 292.023 115.957 292.023C122.326 292.02 128.696 292.038 135.065 292C135.919 291.995 136.426 292.257 136.896 292.965C149.748 312.262 162.619 331.544 175.483 350.831C175.682 351.128 175.828 351.46 176.074 351.914H176.075Z" fill="black"/>
<path d="M265.957 60C262.36 52.2405 259.087 45.2037 255.841 38.158C252.053 29.9405 247.63 20.0694 244 11.7775C244.595 10.8853 250.207 0.0981461 250.207 0.0981461C250.207 0.0981461 279.145 0 294.164 0C279.231 32.0016 281.122 27.5047 265.96 59.997L265.957 60Z" fill="black"/>
</svg>
