<svg width="352" height="356" viewBox="0 0 352 356" fill="none" xmlns="http://www.w3.org/2000/svg">
<path d="M64.853 150.98C64.2095 151.013 63.7599 151.054 63.3103 151.055C55.3854 151.06 59.4605 151.032 51.5356 151.087C50.373 151.095 49.7389 150.688 49.1158 149.751C33.0404 125.613 16.9351 101.495 0.837607 77.3726C0.582067 76.9909 0.362804 76.584 0 75.9783C0.6215 75.9483 1.06002 75.9089 1.49854 75.9089C9.48182 75.9057 5.4667 75.9278 13.4499 75.8805C14.5194 75.8742 15.1551 76.2022 15.7451 77.0903C31.8536 101.277 47.9874 125.447 64.1116 149.621C64.3609 149.994 64.5439 150.41 64.8515 150.98H64.853Z" fill="black"/>
<path d="M91.853 150.98C91.2095 151.013 90.7599 151.054 90.3103 151.055C82.3854 151.06 86.4605 151.032 78.5356 151.087C77.373 151.095 76.7389 150.688 76.1158 149.751C60.0404 125.613 43.9351 101.495 27.8376 77.3726C27.5821 76.9909 27.3628 76.584 27 75.9783C27.6215 75.9483 28.06 75.9089 28.4985 75.9089C36.4818 75.9057 32.4667 75.9278 40.4499 75.8805C41.5194 75.8742 42.1551 76.2022 42.7451 77.0903C58.8536 101.277 74.9874 125.447 91.1116 149.621C91.3609 149.994 91.5439 150.41 91.8515 150.98H91.853Z" fill="black"/>
<path fill-rule="evenodd" clip-rule="evenodd" d="M352 239C334.327 239 320 253.327 320 271C320 288.673 334.327 303 352 303V319C325.49 319 304 297.51 304 271C304 244.49 325.49 223 352 223V239Z" fill="black"/>
</svg>
