<svg width="352" height="353" viewBox="0 0 352 353" fill="none" xmlns="http://www.w3.org/2000/svg">
<g clip-path="url(#clip0_1076_15)">
<path d="M52.9982 22.8729V0.0779317C49.5036 0.0779317 46.0218 -0.117631 42.5671 0.110831C26.6808 1.16724 13.8984 7.77803 5.65405 21.9481C0.614865 30.6096 -0.709145 40.1812 0.329081 50.0087C2.33499 69.0094 12.5382 81.5566 30.4033 87.7015C37.6762 90.2034 45.2351 90.1557 52.9422 89.86V67.1524C50.5925 67.1524 48.3026 67.1653 46.0128 67.1506C36.5584 67.0921 30.5281 61.7571 29.1335 52.2841C28.1116 45.3353 28.0301 38.4613 30.8699 31.8743C33.2339 26.3894 37.5333 23.4139 43.3665 22.9204C46.4867 22.6554 49.6466 22.8729 53 22.8729H52.9982Z" fill="black"/>
<path d="M352 176.006C338.585 176.006 325.645 175.961 312.708 176.109C311.842 176.12 310.643 177.425 310.187 178.408C303.014 193.787 295.937 209.213 288.842 224.629C282.546 238.313 276.244 251.995 269.986 265.695C269.499 266.76 269.053 267.969 269.045 269.116C268.977 280.207 269.003 291.297 269.016 302.384C269.016 302.866 269.138 303.349 269.229 304H308.973C309.021 302.935 309.106 301.873 309.108 300.813C309.119 290.63 309.047 280.447 309.172 270.265C309.196 268.334 309.647 266.254 310.463 264.511C323.953 235.677 337.535 206.889 351.091 178.089C351.338 177.564 351.557 177.024 352 176.006Z" fill="black"/>
</g>
<defs>
<clipPath id="clip0_1076_15">
<rect width="352" height="352" fill="white" transform="translate(0 0.5)"/>
</clipPath>
</defs>
</svg>
