<svg width="1440" height="840" viewBox="0 0 1440 840" xmlns="http://www.w3.org/2000/svg">
<path d="M21 41.8107C21 27.5558 32.5559 16 46.8107 16H553.659C567.914 16 579.47 27.5558 579.47 41.8107V544.764C579.47 698.981 454.452 823.999 300.235 823.999C146.018 823.999 21 698.981 21 544.764V41.8107Z" fill="var(--text-primary)"/>
<path d="M520.06 604.177C520.06 725.582 421.642 824 300.236 824C178.831 824 80.4132 725.582 80.4132 604.177C80.4132 482.772 178.831 384.354 300.236 384.354C421.642 384.354 520.06 482.772 520.06 604.177Z" fill="var(--background)"/>
<path d="M640.564 815L1407.84 815C1416.7 815 1422.5 805.73 1418.63 797.76L1043.92 25.7275C1039.59 16.8064 1026.92 16.689 1022.43 25.5283L629.867 797.561C625.808 805.544 631.608 815 640.564 815Z" fill="var(--text-primary)"/>
<path d="M1407.42 16.0002L640.185 16.0001C631.321 16.0001 625.516 25.2797 629.394 33.2503L1004.09 803.336C1008.42 812.243 1021.07 812.361 1025.57 803.536L1418.11 33.4498C1422.18 25.4659 1416.38 16.0002 1407.42 16.0002Z" fill="var(--text-primary)"/>
<path d="M1229.19 406.229L1044.5 25.7271C1040.17 16.8061 1027.51 16.6886 1023.01 25.5279L820 424.786L1004.67 804.336C1009.01 813.243 1021.66 813.36 1026.16 804.535L1229.19 406.229Z" fill="var(--background)"/>
</svg>
