<svg width="24" height="24" viewBox="0 0 24 24" fill="none" xmlns="http://www.w3.org/2000/svg">
<path d="M11.4223 7.38164C11.7837 7.63654 12.2664 7.63654 12.6279 7.38164L21.2221 1.32047C22.1816 0.643764 23.3562 1.81842 22.6795 2.77793L16.6184 11.3721C16.3635 11.7336 16.3635 12.2163 16.6184 12.5777L22.7997 21.3422C23.4723 22.2959 22.3141 23.468 21.3525 22.8068L12.475 16.7036C12.115 16.4561 11.6391 16.4584 11.2815 16.7095L2.77429 22.6826C1.8154 23.3559 0.644097 22.1846 1.31736 21.2257L7.29053 12.7185C7.54158 12.3609 7.54392 11.885 7.29642 11.525L1.19317 2.64753C0.532017 1.68585 1.70408 0.527727 2.65778 1.20034L11.4223 7.38164Z" fill="white"/>
</svg>
