<svg width="320" height="360" viewBox="0 0 320 360" fill="none" xmlns="http://www.w3.org/2000/svg">
<path d="M306.524 11.7461H16.0313C12.5004 11.7461 10.1879 15.4421 11.732 18.6174L157.173 317.71L310.776 18.7113C312.41 15.5299 310.1 11.7461 306.524 11.7461Z" fill="#7ACCC3"/>
<path d="M13.901 317.711L306.619 317.711C310.173 317.711 312.484 313.971 310.895 310.792L167.94 24.8819C166.196 21.3954 161.237 21.3486 159.429 24.8016L9.66614 310.712C7.99878 313.895 10.3076 317.711 13.901 317.711Z" fill="#29B7B7"/>
<path fill-rule="evenodd" clip-rule="evenodd" d="M237.128 158.751L167.939 20.3741C166.196 16.8876 161.237 16.8408 159.429 20.2939L84.0957 164.111L152.99 305.79C154.713 309.333 159.742 309.388 161.542 305.883L237.128 158.751Z" fill="#157677"/>
</svg>
